solid forearm_shell
  facet normal 0.164352333 -0.986113998 -0.0238221205
    outer loop
      vertex 0 0.058 0
      vertex 0.03 0.063 0
      vertex 0.03 0.0623918006 0.0251763472
    endloop
  endfacet
  facet normal 0.163805939 -0.986220858 -0.0231524
    outer loop
      vertex 0 0.058 0
      vertex 0.03 0.0623918006 0.0251763472
      vertex 0 0.0574400704 0.0238512763
    endloop
  endfacet
  facet normal 0.167883987 -0.969846728 -0.176670005
    outer loop
      vertex 0 0.0574400704 0.0238512763
      vertex 0.03 0.0623918006 0.0251763472
      vertex 0.03 0.060554751 0.035261005
    endloop
  endfacet
  facet normal 0.166184943 -0.970997912 -0.171888393
    outer loop
      vertex 0 0.0574400704 0.0238512763
      vertex 0.03 0.060554751 0.035261005
      vertex 0 0.0557488183 0.0334051626
    endloop
  endfacet
  facet normal 0.169132303 -0.905364001 -0.389500052
    outer loop
      vertex 0 0.0557488183 0.0334051626
      vertex 0.03 0.060554751 0.035261005
      vertex 0.03 0.057446522 0.0424858528
    endloop
  endfacet
  facet normal 0.166603296 -0.909720915 -0.38033038
    outer loop
      vertex 0 0.0557488183 0.0334051626
      vertex 0.03 0.057446522 0.0424858528
      vertex 0 0.0528872742 0.0402497553
    endloop
  endfacet
  facet normal 0.162566693 -0.762641494 -0.626059121
    outer loop
      vertex 0 0.0528872742 0.0402497553
      vertex 0.03 0.057446522 0.0424858528
      vertex 0.03 0.0529764742 0.0479310957
    endloop
  endfacet
  facet normal 0.159913904 -0.771668325 -0.615593648
    outer loop
      vertex 0 0.0528872742 0.0402497553
      vertex 0.03 0.0529764742 0.0479310957
      vertex 0 0.0487719921 0.0454084064
    endloop
  endfacet
  facet normal 0.146370394 -0.55174886 -0.821065712
    outer loop
      vertex 0 0.0487719921 0.0454084064
      vertex 0.03 0.0529764742 0.0479310957
      vertex 0.03 0.0469580478 0.0519754247
    endloop
  endfacet
  facet normal 0.14413493 -0.56282429 -0.813912735
    outer loop
      vertex 0 0.0487719921 0.0454084064
      vertex 0.03 0.0469580478 0.0519754247
      vertex 0 0.0432312186 0.049239876
    endloop
  endfacet
  facet normal 0.126254017 -0.329515529 -0.935670583
    outer loop
      vertex 0 0.0432312186 0.049239876
      vertex 0.03 0.0469580478 0.0519754247
      vertex 0.03 0.0389726897 0.0547876318
    endloop
  endfacet
  facet normal 0.124519259 -0.338061869 -0.932850002
    outer loop
      vertex 0 0.0432312186 0.049239876
      vertex 0.03 0.0389726897 0.0547876318
      vertex 0 0.0358796191 0.0519040723
    endloop
  endfacet
  facet normal 0.109609298 -0.146598017 -0.983104686
    outer loop
      vertex 0 0.0358796191 0.0519040723
      vertex 0.03 0.0389726897 0.0547876318
      vertex 0.03 0.027826489 0.0564497243
    endloop
  endfacet
  facet normal 0.108411463 -0.150778292 -0.98260514
    outer loop
      vertex 0 0.0358796191 0.0519040723
      vertex 0.03 0.027826489 0.0564497243
      vertex 0 0.0256180375 0.0534786862
    endloop
  endfacet
  facet normal 0.0999674298 -0.0196723407 -0.994796216
    outer loop
      vertex 0 0.0256180375 0.0534786862
      vertex 0.03 0.027826489 0.0564497243
      vertex 0.03 4.92981904e-10 0.057
    endloop
  endfacet
  facet normal 0.099483327 -0.0202443424 -0.99483327
    outer loop
      vertex 0 0.0256180375 0.0534786862
      vertex 0.03 4.92981904e-10 0.057
      vertex 0 4.53856356e-10 0.054
    endloop
  endfacet
  facet normal 0.0994844612 0.0196732971 -0.994844613
    outer loop
      vertex 0 4.53856356e-10 0.054
      vertex 0.03 4.92981904e-10 0.057
      vertex 0.03 -0.027826489 0.0564497243
    endloop
  endfacet
  facet normal 0.100007921 0.0202432717 -0.994780692
    outer loop
      vertex 0 4.53856356e-10 0.054
      vertex 0.03 -0.027826489 0.0564497243
      vertex 0 -0.0256180375 0.0534786862
    endloop
  endfacet
  facet normal 0.108170355 0.146621264 -0.983260586
    outer loop
      vertex 0 -0.0256180375 0.0534786862
      vertex 0.03 -0.027826489 0.0564497243
      vertex 0.03 -0.0389726897 0.0547876318
    endloop
  endfacet
  facet normal 0.109973296 0.15075227 -0.982435559
    outer loop
      vertex 0 -0.0256180375 0.0534786862
      vertex 0.03 -0.0389726897 0.0547876318
      vertex 0 -0.0358796191 0.0519040723
    endloop
  endfacet
  facet normal 0.123945579 0.329612215 -0.935945127
    outer loop
      vertex 0 -0.0358796191 0.0519040723
      vertex 0.03 -0.0389726897 0.0547876318
      vertex 0.03 -0.0469580478 0.0519754247
    endloop
  endfacet
  facet normal 0.12701795 0.33795394 -0.932552183
    outer loop
      vertex 0 -0.0358796191 0.0519040723
      vertex 0.03 -0.0469580478 0.0519754247
      vertex 0 -0.0432312186 0.049239876
    endloop
  endfacet
  facet normal 0.143472826 0.551985572 -0.821417967
    outer loop
      vertex 0 -0.0432312186 0.049239876
      vertex 0.03 -0.0469580478 0.0519754247
      vertex 0.03 -0.0529764742 0.0479310957
    endloop
  endfacet
  facet normal 0.147252762 0.562563143 -0.813535085
    outer loop
      vertex 0 -0.0432312186 0.049239876
      vertex 0.03 -0.0529764742 0.0479310957
      vertex 0 -0.0487719921 0.0454084064
    endloop
  endfacet
  facet normal 0.159606942 0.763014882 -0.626365639
    outer loop
      vertex 0 -0.0487719921 0.0454084064
      vertex 0.03 -0.0529764742 0.0479310957
      vertex 0.03 -0.057446522 0.0424858528
    endloop
  endfacet
  facet normal 0.163073037 0.771264198 -0.615271258
    outer loop
      vertex 0 -0.0487719921 0.0454084064
      vertex 0.03 -0.057446522 0.0424858528
      vertex 0 -0.0528872742 0.0402497553
    endloop
  endfacet
  facet normal 0.166694821 0.905745385 -0.389664129
    outer loop
      vertex 0 -0.0528872742 0.0402497553
      vertex 0.03 -0.057446522 0.0424858528
      vertex 0.03 -0.060554751 0.035261005
    endloop
  endfacet
  facet normal 0.16918747 0.909314855 -0.380160617
    outer loop
      vertex 0 -0.0528872742 0.0402497553
      vertex 0.03 -0.060554751 0.035261005
      vertex 0 -0.0557488183 0.0334051626
    endloop
  endfacet
  facet normal 0.166340457 0.970104114 -0.176716891
    outer loop
      vertex 0 -0.0557488183 0.0334051626
      vertex 0.03 -0.060554751 0.035261005
      vertex 0.03 -0.0623918006 0.0251763472
    endloop
  endfacet
  facet normal 0.167815777 0.970725912 -0.171840243
    outer loop
      vertex 0 -0.0557488183 0.0334051626
      vertex 0.03 -0.0623918006 0.0251763472
      vertex 0 -0.0574400704 0.0238512763
    endloop
  endfacet
  facet normal 0.16383225 0.986200487 -0.0238242104
    outer loop
      vertex 0 -0.0574400704 0.0238512763
      vertex 0.03 -0.0623918006 0.0251763472
      vertex 0.03 -0.063 6.30783438e-10
    endloop
  endfacet
  facet normal 0.164354928 0.986129567 -0.0231502574
    outer loop
      vertex 0 -0.0574400704 0.0238512763
      vertex 0.03 -0.063 6.30783438e-10
      vertex 0 -0.058 5.97584309e-10
    endloop
  endfacet
  facet normal 0.164352333 0.986113998 0.0238221199
    outer loop
      vertex 0 -0.058 5.97584309e-10
      vertex 0.03 -0.063 6.30783438e-10
      vertex 0.03 -0.0623918006 -0.0251763472
    endloop
  endfacet
  facet normal 0.163805939 0.986220858 0.0231523994
    outer loop
      vertex 0 -0.058 5.97584309e-10
      vertex 0.03 -0.0623918006 -0.0251763472
      vertex 0 -0.0574400704 -0.0238512763
    endloop
  endfacet
  facet normal 0.167883987 0.969846728 0.176670005
    outer loop
      vertex 0 -0.0574400704 -0.0238512763
      vertex 0.03 -0.0623918006 -0.0251763472
      vertex 0.03 -0.060554751 -0.035261005
    endloop
  endfacet
  facet normal 0.166184943 0.970997912 0.171888393
    outer loop
      vertex 0 -0.0574400704 -0.0238512763
      vertex 0.03 -0.060554751 -0.035261005
      vertex 0 -0.0557488183 -0.0334051626
    endloop
  endfacet
  facet normal 0.169132303 0.905364001 0.389500052
    outer loop
      vertex 0 -0.0557488183 -0.0334051626
      vertex 0.03 -0.060554751 -0.035261005
      vertex 0.03 -0.057446522 -0.0424858528
    endloop
  endfacet
  facet normal 0.166603296 0.909720915 0.38033038
    outer loop
      vertex 0 -0.0557488183 -0.0334051626
      vertex 0.03 -0.057446522 -0.0424858528
      vertex 0 -0.0528872742 -0.0402497553
    endloop
  endfacet
  facet normal 0.162566693 0.762641494 0.626059121
    outer loop
      vertex 0 -0.0528872742 -0.0402497553
      vertex 0.03 -0.057446522 -0.0424858528
      vertex 0.03 -0.0529764742 -0.0479310957
    endloop
  endfacet
  facet normal 0.159913904 0.771668325 0.615593648
    outer loop
      vertex 0 -0.0528872742 -0.0402497553
      vertex 0.03 -0.0529764742 -0.0479310957
      vertex 0 -0.0487719921 -0.0454084064
    endloop
  endfacet
  facet normal 0.146370394 0.55174886 0.821065712
    outer loop
      vertex 0 -0.0487719921 -0.0454084064
      vertex 0.03 -0.0529764742 -0.0479310957
      vertex 0.03 -0.0469580478 -0.0519754247
    endloop
  endfacet
  facet normal 0.14413493 0.56282429 0.813912735
    outer loop
      vertex 0 -0.0487719921 -0.0454084064
      vertex 0.03 -0.0469580478 -0.0519754247
      vertex 0 -0.0432312186 -0.049239876
    endloop
  endfacet
  facet normal 0.126254017 0.329515529 0.935670583
    outer loop
      vertex 0 -0.0432312186 -0.049239876
      vertex 0.03 -0.0469580478 -0.0519754247
      vertex 0.03 -0.0389726897 -0.0547876318
    endloop
  endfacet
  facet normal 0.124519259 0.338061869 0.932850002
    outer loop
      vertex 0 -0.0432312186 -0.049239876
      vertex 0.03 -0.0389726897 -0.0547876318
      vertex 0 -0.0358796191 -0.0519040723
    endloop
  endfacet
  facet normal 0.109609298 0.146598017 0.983104686
    outer loop
      vertex 0 -0.0358796191 -0.0519040723
      vertex 0.03 -0.0389726897 -0.0547876318
      vertex 0.03 -0.027826489 -0.0564497243
    endloop
  endfacet
  facet normal 0.108411463 0.150778292 0.98260514
    outer loop
      vertex 0 -0.0358796191 -0.0519040723
      vertex 0.03 -0.027826489 -0.0564497243
      vertex 0 -0.0256180375 -0.0534786862
    endloop
  endfacet
  facet normal 0.0999674298 0.019672341 0.994796216
    outer loop
      vertex 0 -0.0256180375 -0.0534786862
      vertex 0.03 -0.027826489 -0.0564497243
      vertex 0.03 -8.53869704e-10 -0.057
    endloop
  endfacet
  facet normal 0.099483327 0.0202443426 0.99483327
    outer loop
      vertex 0 -0.0256180375 -0.0534786862
      vertex 0.03 -8.53869704e-10 -0.057
      vertex 0 -7.86102267e-10 -0.054
    endloop
  endfacet
  facet normal 0.0994844612 -0.0196732968 0.994844613
    outer loop
      vertex 0 -7.86102267e-10 -0.054
      vertex 0.03 -8.53869704e-10 -0.057
      vertex 0.03 0.027826489 -0.0564497243
    endloop
  endfacet
  facet normal 0.100007921 -0.0202432715 0.994780692
    outer loop
      vertex 0 -7.86102267e-10 -0.054
      vertex 0.03 0.027826489 -0.0564497243
      vertex 0 0.0256180375 -0.0534786862
    endloop
  endfacet
  facet normal 0.108170355 -0.146621264 0.983260586
    outer loop
      vertex 0 0.0256180375 -0.0534786862
      vertex 0.03 0.027826489 -0.0564497243
      vertex 0.03 0.0389726897 -0.0547876318
    endloop
  endfacet
  facet normal 0.109973296 -0.15075227 0.982435559
    outer loop
      vertex 0 0.0256180375 -0.0534786862
      vertex 0.03 0.0389726897 -0.0547876318
      vertex 0 0.0358796191 -0.0519040723
    endloop
  endfacet
  facet normal 0.123945579 -0.329612215 0.935945127
    outer loop
      vertex 0 0.0358796191 -0.0519040723
      vertex 0.03 0.0389726897 -0.0547876318
      vertex 0.03 0.0469580478 -0.0519754247
    endloop
  endfacet
  facet normal 0.12701795 -0.33795394 0.932552183
    outer loop
      vertex 0 0.0358796191 -0.0519040723
      vertex 0.03 0.0469580478 -0.0519754247
      vertex 0 0.0432312186 -0.049239876
    endloop
  endfacet
  facet normal 0.143472826 -0.551985572 0.821417967
    outer loop
      vertex 0 0.0432312186 -0.049239876
      vertex 0.03 0.0469580478 -0.0519754247
      vertex 0.03 0.0529764742 -0.0479310957
    endloop
  endfacet
  facet normal 0.147252762 -0.562563143 0.813535085
    outer loop
      vertex 0 0.0432312186 -0.049239876
      vertex 0.03 0.0529764742 -0.0479310957
      vertex 0 0.0487719921 -0.0454084064
    endloop
  endfacet
  facet normal 0.159606942 -0.763014882 0.626365639
    outer loop
      vertex 0 0.0487719921 -0.0454084064
      vertex 0.03 0.0529764742 -0.0479310957
      vertex 0.03 0.057446522 -0.0424858528
    endloop
  endfacet
  facet normal 0.163073037 -0.771264198 0.615271258
    outer loop
      vertex 0 0.0487719921 -0.0454084064
      vertex 0.03 0.057446522 -0.0424858528
      vertex 0 0.0528872742 -0.0402497553
    endloop
  endfacet
  facet normal 0.166694821 -0.905745385 0.389664129
    outer loop
      vertex 0 0.0528872742 -0.0402497553
      vertex 0.03 0.057446522 -0.0424858528
      vertex 0.03 0.060554751 -0.035261005
    endloop
  endfacet
  facet normal 0.16918747 -0.909314855 0.380160617
    outer loop
      vertex 0 0.0528872742 -0.0402497553
      vertex 0.03 0.060554751 -0.035261005
      vertex 0 0.0557488183 -0.0334051626
    endloop
  endfacet
  facet normal 0.166340457 -0.970104114 0.176716891
    outer loop
      vertex 0 0.0557488183 -0.0334051626
      vertex 0.03 0.060554751 -0.035261005
      vertex 0.03 0.0623918006 -0.0251763472
    endloop
  endfacet
  facet normal 0.167815777 -0.970725912 0.171840243
    outer loop
      vertex 0 0.0557488183 -0.0334051626
      vertex 0.03 0.0623918006 -0.0251763472
      vertex 0 0.0574400704 -0.0238512763
    endloop
  endfacet
  facet normal 0.16383225 -0.986200487 0.0238242098
    outer loop
      vertex 0 0.0574400704 -0.0238512763
      vertex 0.03 0.0623918006 -0.0251763472
      vertex 0.03 0.063 0
    endloop
  endfacet
  facet normal 0.164354928 -0.986129567 0.0231502568
    outer loop
      vertex 0 0.0574400704 -0.0238512763
      vertex 0.03 0.063 0
      vertex 0 0.058 0
    endloop
  endfacet
  facet normal -0.10416159 -0.994269719 -0.0240434784
    outer loop
      vertex 0.03 0.063 0
      vertex 0.135 0.052 0
      vertex 0.135 0.0514979941 0.0207594441
    endloop
  endfacet
  facet normal -0.10416641 -0.994269802 -0.0240191449
    outer loop
      vertex 0.03 0.063 0
      vertex 0.135 0.0514979941 0.0207594441
      vertex 0.03 0.0623918006 0.0251763472
    endloop
  endfacet
  facet normal -0.108961022 -0.977920762 -0.178321281
    outer loop
      vertex 0.03 0.0623918006 0.0251763472
      vertex 0.135 0.0514979941 0.0207594441
      vertex 0.135 0.0499816992 0.0290748638
    endloop
  endfacet
  facet normal -0.108971149 -0.977951507 -0.178146394
    outer loop
      vertex 0.03 0.0623918006 0.0251763472
      vertex 0.135 0.0499816992 0.0290748638
      vertex 0.03 0.060554751 0.035261005
    endloop
  endfacet
  facet normal -0.115018778 -0.912357042 -0.392906233
    outer loop
      vertex 0.03 0.060554751 0.035261005
      vertex 0.135 0.0499816992 0.0290748638
      vertex 0.135 0.0474161769 0.0350321944
    endloop
  endfacet
  facet normal -0.115035889 -0.912499651 -0.392569907
    outer loop
      vertex 0.03 0.060554751 0.035261005
      vertex 0.135 0.0474161769 0.0350321944
      vertex 0.03 0.057446522 0.0424858528
    endloop
  endfacet
  facet normal -0.118042506 -0.767206369 -0.630444569
    outer loop
      vertex 0.03 0.057446522 0.0424858528
      vertex 0.135 0.0474161769 0.0350321944
      vertex 0.135 0.0437266136 0.0395221315
    endloop
  endfacet
  facet normal -0.11807223 -0.76751667 -0.630061195
    outer loop
      vertex 0.03 0.057446522 0.0424858528
      vertex 0.135 0.0437266136 0.0395221315
      vertex 0.03 0.0529764742 0.0479310957
    endloop
  endfacet
  facet normal -0.114828211 -0.5536801 -0.824774411
    outer loop
      vertex 0.03 0.0529764742 0.0479310957
      vertex 0.135 0.0437266136 0.0395221315
      vertex 0.135 0.0387590236 0.0428569291
    endloop
  endfacet
  facet normal -0.114867477 -0.554064088 -0.824511036
    outer loop
      vertex 0.03 0.0529764742 0.0479310957
      vertex 0.135 0.0387590236 0.0428569291
      vertex 0.03 0.0469580478 0.0519754247
    endloop
  endfacet
  facet normal -0.107214035 -0.329961503 -0.937886218
    outer loop
      vertex 0.03 0.0469580478 0.0519754247
      vertex 0.135 0.0387590236 0.0428569291
      vertex 0.135 0.0321679344 0.0451757666
    endloop
  endfacet
  facet normal -0.107248748 -0.330257696 -0.937777991
    outer loop
      vertex 0.03 0.0469580478 0.0519754247
      vertex 0.135 0.0321679344 0.0451757666
      vertex 0.03 0.0389726897 0.0547876318
    endloop
  endfacet
  facet normal -0.0995935706 -0.146608077 -0.984168274
    outer loop
      vertex 0.03 0.0389726897 0.0547876318
      vertex 0.135 0.0321679344 0.0451757666
      vertex 0.135 0.0229678957 0.0465462639
    endloop
  endfacet
  facet normal -0.0996138169 -0.146753088 -0.984144613
    outer loop
      vertex 0.03 0.0389726897 0.0547876318
      vertex 0.135 0.0229678957 0.0465462639
      vertex 0.03 0.027826489 0.0564497243
    endloop
  endfacet
  facet normal -0.0947855317 -0.0196624513 -0.995303517
    outer loop
      vertex 0.03 0.027826489 0.0564497243
      vertex 0.135 0.0229678957 0.0465462639
      vertex 0.135 4.06905698e-10 0.047
    endloop
  endfacet
  facet normal -0.0947907266 -0.0196823552 -0.995302629
    outer loop
      vertex 0.03 0.027826489 0.0564497243
      vertex 0.135 4.06905698e-10 0.047
      vertex 0.03 4.92981904e-10 0.057
    endloop
  endfacet
  facet normal -0.0947907637 0.0196624408 -0.995303019
    outer loop
      vertex 0.03 4.92981904e-10 0.057
      vertex 0.135 4.06905698e-10 0.047
      vertex 0.135 -0.0229678957 0.0465462639
    endloop
  endfacet
  facet normal -0.0947864081 0.0196823626 -0.99530304
    outer loop
      vertex 0.03 4.92981904e-10 0.057
      vertex 0.135 -0.0229678957 0.0465462639
      vertex 0.03 -0.027826489 0.0564497243
    endloop
  endfacet
  facet normal -0.0996091823 0.146607847 -0.984166729
    outer loop
      vertex 0.03 -0.027826489 0.0564497243
      vertex 0.135 -0.0229678957 0.0465462639
      vertex 0.135 -0.0321679344 0.0451757666
    endloop
  endfacet
  facet normal -0.0996009315 0.146753278 -0.984145889
    outer loop
      vertex 0.03 -0.027826489 0.0564497243
      vertex 0.135 -0.0321679344 0.0451757666
      vertex 0.03 -0.0389726897 0.0547876318
    endloop
  endfacet
  facet normal -0.107239167 0.329960603 -0.937883661
    outer loop
      vertex 0.03 -0.0389726897 0.0547876318
      vertex 0.135 -0.0321679344 0.0451757666
      vertex 0.135 -0.0387590236 0.0428569291
    endloop
  endfacet
  facet normal -0.107228006 0.330258439 -0.937780101
    outer loop
      vertex 0.03 -0.0389726897 0.0547876318
      vertex 0.135 -0.0387590236 0.0428569291
      vertex 0.03 -0.0469580478 0.0519754247
    endloop
  endfacet
  facet normal -0.114859941 0.553678056 -0.824771365
    outer loop
      vertex 0.03 -0.0469580478 0.0519754247
      vertex 0.135 -0.0387590236 0.0428569291
      vertex 0.135 -0.0437266136 0.0395221315
    endloop
  endfacet
  facet normal -0.114841296 0.554065776 -0.824513549
    outer loop
      vertex 0.03 -0.0469580478 0.0519754247
      vertex 0.135 -0.0437266136 0.0395221315
      vertex 0.03 -0.0529764742 0.0479310957
    endloop
  endfacet
  facet normal -0.118075136 0.767203372 -0.630442106
    outer loop
      vertex 0.03 -0.0529764742 0.0479310957
      vertex 0.135 -0.0437266136 0.0395221315
      vertex 0.135 -0.0474161769 0.0350321944
    endloop
  endfacet
  facet normal -0.118045314 0.767519143 -0.630063226
    outer loop
      vertex 0.03 -0.0529764742 0.0479310957
      vertex 0.135 -0.0474161769 0.0350321944
      vertex 0.03 -0.057446522 0.0424858528
    endloop
  endfacet
  facet normal -0.115045779 0.91235417 -0.392904997
    outer loop
      vertex 0.03 -0.057446522 0.0424858528
      vertex 0.135 -0.0474161769 0.0350321944
      vertex 0.135 -0.0499816992 0.0290748638
    endloop
  endfacet
  facet normal -0.115013622 0.912502019 -0.392570926
    outer loop
      vertex 0.03 -0.057446522 0.0424858528
      vertex 0.135 -0.0499816992 0.0290748638
      vertex 0.03 -0.060554751 0.035261005
    endloop
  endfacet
  facet normal -0.108978151 0.977918915 -0.178320944
    outer loop
      vertex 0.03 -0.060554751 0.035261005
      vertex 0.135 -0.0499816992 0.0290748638
      vertex 0.135 -0.0514979941 0.0207594441
    endloop
  endfacet
  facet normal -0.108957025 0.977953031 -0.178146672
    outer loop
      vertex 0.03 -0.060554751 0.035261005
      vertex 0.135 -0.0514979941 0.0207594441
      vertex 0.03 -0.0623918006 0.0251763472
    endloop
  endfacet
  facet normal -0.104167361 0.994269115 -0.0240434644
    outer loop
      vertex 0.03 -0.0623918006 0.0251763472
      vertex 0.135 -0.0514979941 0.0207594441
      vertex 0.135 -0.052 5.20119677e-10
    endloop
  endfacet
  facet normal -0.104161651 0.994270301 -0.0240191575
    outer loop
      vertex 0.03 -0.0623918006 0.0251763472
      vertex 0.135 -0.052 5.20119677e-10
      vertex 0.03 -0.063 6.30783438e-10
    endloop
  endfacet
  facet normal -0.10416159 0.994269719 0.0240434778
    outer loop
      vertex 0.03 -0.063 6.30783438e-10
      vertex 0.135 -0.052 5.20119677e-10
      vertex 0.135 -0.0514979941 -0.0207594441
    endloop
  endfacet
  facet normal -0.10416641 0.994269802 0.0240191443
    outer loop
      vertex 0.03 -0.063 6.30783438e-10
      vertex 0.135 -0.0514979941 -0.0207594441
      vertex 0.03 -0.0623918006 -0.0251763472
    endloop
  endfacet
  facet normal -0.108961022 0.977920762 0.178321281
    outer loop
      vertex 0.03 -0.0623918006 -0.0251763472
      vertex 0.135 -0.0514979941 -0.0207594441
      vertex 0.135 -0.0499816992 -0.0290748638
    endloop
  endfacet
  facet normal -0.108971149 0.977951507 0.178146394
    outer loop
      vertex 0.03 -0.0623918006 -0.0251763472
      vertex 0.135 -0.0499816992 -0.0290748638
      vertex 0.03 -0.060554751 -0.035261005
    endloop
  endfacet
  facet normal -0.115018778 0.912357042 0.392906233
    outer loop
      vertex 0.03 -0.060554751 -0.035261005
      vertex 0.135 -0.0499816992 -0.0290748638
      vertex 0.135 -0.0474161769 -0.0350321944
    endloop
  endfacet
  facet normal -0.115035889 0.912499651 0.392569907
    outer loop
      vertex 0.03 -0.060554751 -0.035261005
      vertex 0.135 -0.0474161769 -0.0350321944
      vertex 0.03 -0.057446522 -0.0424858528
    endloop
  endfacet
  facet normal -0.118042506 0.767206369 0.630444569
    outer loop
      vertex 0.03 -0.057446522 -0.0424858528
      vertex 0.135 -0.0474161769 -0.0350321944
      vertex 0.135 -0.0437266136 -0.0395221315
    endloop
  endfacet
  facet normal -0.11807223 0.76751667 0.630061195
    outer loop
      vertex 0.03 -0.057446522 -0.0424858528
      vertex 0.135 -0.0437266136 -0.0395221315
      vertex 0.03 -0.0529764742 -0.0479310957
    endloop
  endfacet
  facet normal -0.114828211 0.5536801 0.824774411
    outer loop
      vertex 0.03 -0.0529764742 -0.0479310957
      vertex 0.135 -0.0437266136 -0.0395221315
      vertex 0.135 -0.0387590236 -0.0428569291
    endloop
  endfacet
  facet normal -0.114867477 0.554064088 0.824511036
    outer loop
      vertex 0.03 -0.0529764742 -0.0479310957
      vertex 0.135 -0.0387590236 -0.0428569291
      vertex 0.03 -0.0469580478 -0.0519754247
    endloop
  endfacet
  facet normal -0.107214035 0.329961503 0.937886218
    outer loop
      vertex 0.03 -0.0469580478 -0.0519754247
      vertex 0.135 -0.0387590236 -0.0428569291
      vertex 0.135 -0.0321679344 -0.0451757666
    endloop
  endfacet
  facet normal -0.107248748 0.330257696 0.937777991
    outer loop
      vertex 0.03 -0.0469580478 -0.0519754247
      vertex 0.135 -0.0321679344 -0.0451757666
      vertex 0.03 -0.0389726897 -0.0547876318
    endloop
  endfacet
  facet normal -0.0995935706 0.146608077 0.984168274
    outer loop
      vertex 0.03 -0.0389726897 -0.0547876318
      vertex 0.135 -0.0321679344 -0.0451757666
      vertex 0.135 -0.0229678957 -0.0465462639
    endloop
  endfacet
  facet normal -0.0996138169 0.146753088 0.984144613
    outer loop
      vertex 0.03 -0.0389726897 -0.0547876318
      vertex 0.135 -0.0229678957 -0.0465462639
      vertex 0.03 -0.027826489 -0.0564497243
    endloop
  endfacet
  facet normal -0.0947855317 0.0196624515 0.995303517
    outer loop
      vertex 0.03 -0.027826489 -0.0564497243
      vertex 0.135 -0.0229678957 -0.0465462639
      vertex 0.135 -7.04781343e-10 -0.047
    endloop
  endfacet
  facet normal -0.0947907266 0.0196823554 0.995302629
    outer loop
      vertex 0.03 -0.027826489 -0.0564497243
      vertex 0.135 -7.04781343e-10 -0.047
      vertex 0.03 -8.53869704e-10 -0.057
    endloop
  endfacet
  facet normal -0.0947907637 -0.0196624405 0.995303019
    outer loop
      vertex 0.03 -8.53869704e-10 -0.057
      vertex 0.135 -7.04781343e-10 -0.047
      vertex 0.135 0.0229678957 -0.0465462639
    endloop
  endfacet
  facet normal -0.094786408 -0.0196823623 0.99530304
    outer loop
      vertex 0.03 -8.53869704e-10 -0.057
      vertex 0.135 0.0229678957 -0.0465462639
      vertex 0.03 0.027826489 -0.0564497243
    endloop
  endfacet
  facet normal -0.0996091823 -0.146607847 0.984166729
    outer loop
      vertex 0.03 0.027826489 -0.0564497243
      vertex 0.135 0.0229678957 -0.0465462639
      vertex 0.135 0.0321679344 -0.0451757666
    endloop
  endfacet
  facet normal -0.0996009315 -0.146753278 0.984145889
    outer loop
      vertex 0.03 0.027826489 -0.0564497243
      vertex 0.135 0.0321679344 -0.0451757666
      vertex 0.03 0.0389726897 -0.0547876318
    endloop
  endfacet
  facet normal -0.107239167 -0.329960603 0.937883661
    outer loop
      vertex 0.03 0.0389726897 -0.0547876318
      vertex 0.135 0.0321679344 -0.0451757666
      vertex 0.135 0.0387590236 -0.0428569291
    endloop
  endfacet
  facet normal -0.107228006 -0.330258439 0.937780101
    outer loop
      vertex 0.03 0.0389726897 -0.0547876318
      vertex 0.135 0.0387590236 -0.0428569291
      vertex 0.03 0.0469580478 -0.0519754247
    endloop
  endfacet
  facet normal -0.114859941 -0.553678056 0.824771365
    outer loop
      vertex 0.03 0.0469580478 -0.0519754247
      vertex 0.135 0.0387590236 -0.0428569291
      vertex 0.135 0.0437266136 -0.0395221315
    endloop
  endfacet
  facet normal -0.114841296 -0.554065776 0.824513549
    outer loop
      vertex 0.03 0.0469580478 -0.0519754247
      vertex 0.135 0.0437266136 -0.0395221315
      vertex 0.03 0.0529764742 -0.0479310957
    endloop
  endfacet
  facet normal -0.118075136 -0.767203372 0.630442106
    outer loop
      vertex 0.03 0.0529764742 -0.0479310957
      vertex 0.135 0.0437266136 -0.0395221315
      vertex 0.135 0.0474161769 -0.0350321944
    endloop
  endfacet
  facet normal -0.118045314 -0.767519143 0.630063226
    outer loop
      vertex 0.03 0.0529764742 -0.0479310957
      vertex 0.135 0.0474161769 -0.0350321944
      vertex 0.03 0.057446522 -0.0424858528
    endloop
  endfacet
  facet normal -0.115045779 -0.91235417 0.392904997
    outer loop
      vertex 0.03 0.057446522 -0.0424858528
      vertex 0.135 0.0474161769 -0.0350321944
      vertex 0.135 0.0499816992 -0.0290748638
    endloop
  endfacet
  facet normal -0.115013622 -0.912502019 0.392570926
    outer loop
      vertex 0.03 0.057446522 -0.0424858528
      vertex 0.135 0.0499816992 -0.0290748638
      vertex 0.03 0.060554751 -0.035261005
    endloop
  endfacet
  facet normal -0.108978151 -0.977918915 0.178320944
    outer loop
      vertex 0.03 0.060554751 -0.035261005
      vertex 0.135 0.0499816992 -0.0290748638
      vertex 0.135 0.0514979941 -0.0207594441
    endloop
  endfacet
  facet normal -0.108957025 -0.977953031 0.178146672
    outer loop
      vertex 0.03 0.060554751 -0.035261005
      vertex 0.135 0.0514979941 -0.0207594441
      vertex 0.03 0.0623918006 -0.0251763472
    endloop
  endfacet
  facet normal -0.104167361 -0.994269115 0.0240434638
    outer loop
      vertex 0.03 0.0623918006 -0.0251763472
      vertex 0.135 0.0514979941 -0.0207594441
      vertex 0.135 0.052 0
    endloop
  endfacet
  facet normal -0.104161651 -0.994270301 0.0240191569
    outer loop
      vertex 0.03 0.0623918006 -0.0251763472
      vertex 0.135 0.052 0
      vertex 0.03 0.063 0
    endloop
  endfacet
  facet normal -0.0896118916 -0.995687685 -0.023994659
    outer loop
      vertex 0.135 0.052 0
      vertex 0.235 0.043 0
      vertex 0.235 0.0425848798 0.0172259217
    endloop
  endfacet
  facet normal -0.0895975113 -0.995686973 -0.0240777505
    outer loop
      vertex 0.135 0.052 0
      vertex 0.235 0.0425848798 0.0172259217
      vertex 0.135 0.0514979941 0.0207594441
    endloop
  endfacet
  facet normal -0.0935998562 -0.979567893 -0.178005086
    outer loop
      vertex 0.135 0.0514979941 0.0207594441
      vertex 0.235 0.0425848798 0.0172259217
      vertex 0.235 0.0413310205 0.0241259508
    endloop
  endfacet
  facet normal -0.0935689957 -0.979462121 -0.178602343
    outer loop
      vertex 0.135 0.0514979941 0.0207594441
      vertex 0.235 0.0413310205 0.0241259508
      vertex 0.135 0.0499816992 0.0290748638
    endloop
  endfacet
  facet normal -0.0985309012 -0.914476418 -0.392459606
    outer loop
      vertex 0.135 0.0499816992 0.0290748638
      vertex 0.235 0.0413310205 0.0241259508
      vertex 0.235 0.0392095309 0.0290692677
    endloop
  endfacet
  facet normal -0.0984783629 -0.913988099 -0.393608647
    outer loop
      vertex 0.135 0.0499816992 0.0290748638
      vertex 0.235 0.0392095309 0.0290692677
      vertex 0.135 0.0474161769 0.0350321944
    endloop
  endfacet
  facet normal -0.100757539 -0.769746066 -0.630348247
    outer loop
      vertex 0.135 0.0474161769 0.0350321944
      vertex 0.235 0.0392095309 0.0290692677
      vertex 0.235 0.0361585459 0.0327949602
    endloop
  endfacet
  facet normal -0.100667203 -0.768683295 -0.631658219
    outer loop
      vertex 0.135 0.0474161769 0.0350321944
      vertex 0.235 0.0361585459 0.0327949602
      vertex 0.135 0.0437266136 0.0395221315
    endloop
  endfacet
  facet normal -0.0976074746 -0.55602774 -0.825412583
    outer loop
      vertex 0.135 0.0437266136 0.0395221315
      vertex 0.235 0.0361585459 0.0327949602
      vertex 0.235 0.0320507311 0.0355621327
    endloop
  endfacet
  facet normal -0.0974894311 -0.554711896 -0.826311396
    outer loop
      vertex 0.135 0.0437266136 0.0395221315
      vertex 0.235 0.0320507311 0.0355621327
      vertex 0.135 0.0387590236 0.0428569291
    endloop
  endfacet
  facet normal -0.0907430139 -0.331523321 -0.939072944
    outer loop
      vertex 0.135 0.0387590236 0.0428569291
      vertex 0.235 0.0320507311 0.0355621327
      vertex 0.235 0.0266004073 0.0374862744
    endloop
  endfacet
  facet normal -0.0906393581 -0.330508372 -0.939440644
    outer loop
      vertex 0.135 0.0387590236 0.0428569291
      vertex 0.235 0.0266004073 0.0374862744
      vertex 0.135 0.0321679344 0.0451757666
    endloop
  endfacet
  facet normal -0.0839832198 -0.14731753 -0.985517308
    outer loop
      vertex 0.135 0.0321679344 0.0451757666
      vertex 0.235 0.0266004073 0.0374862744
      vertex 0.235 0.0189926829 0.0386234956
    endloop
  endfacet
  facet normal -0.0839229727 -0.146820843 -0.985596558
    outer loop
      vertex 0.135 0.0321679344 0.0451757666
      vertex 0.235 0.0189926829 0.0386234956
      vertex 0.135 0.0229678957 0.0465462639
    endloop
  endfacet
  facet normal -0.0797452205 -0.0197566419 -0.996619473
    outer loop
      vertex 0.135 0.0229678957 0.0465462639
      vertex 0.235 0.0189926829 0.0386234956
      vertex 0.235 3.36479712e-10 0.039
    endloop
  endfacet
  facet normal -0.0797297647 -0.0196884994 -0.996622059
    outer loop
      vertex 0.135 0.0229678957 0.0465462639
      vertex 0.235 3.36479712e-10 0.039
      vertex 0.135 4.06905698e-10 0.047
    endloop
  endfacet
  facet normal -0.0797296574 0.0197566658 -0.996620718
    outer loop
      vertex 0.135 4.06905698e-10 0.047
      vertex 0.235 3.36479712e-10 0.039
      vertex 0.235 -0.0189926829 0.0386234956
    endloop
  endfacet
  facet normal -0.0797426341 0.0196884784 -0.996621029
    outer loop
      vertex 0.135 4.06905698e-10 0.047
      vertex 0.235 -0.0189926829 0.0386234956
      vertex 0.135 -0.0229678957 0.0465462639
    endloop
  endfacet
  facet normal -0.083936768 0.147318109 -0.985521179
    outer loop
      vertex 0.135 -0.0229678957 0.0465462639
      vertex 0.235 -0.0189926829 0.0386234956
      vertex 0.235 -0.0266004073 0.0374862744
    endloop
  endfacet
  facet normal -0.0839613879 0.146820367 -0.985593357
    outer loop
      vertex 0.135 -0.0229678957 0.0465462639
      vertex 0.235 -0.0266004073 0.0374862744
      vertex 0.135 -0.0321679344 0.0451757666
    endloop
  endfacet
  facet normal -0.0906682116 0.331525589 -0.939079368
    outer loop
      vertex 0.135 -0.0321679344 0.0451757666
      vertex 0.235 -0.0266004073 0.0374862744
      vertex 0.235 -0.0320507311 0.0355621327
    endloop
  endfacet
  facet normal -0.090701238 0.330506502 -0.939435329
    outer loop
      vertex 0.135 -0.0321679344 0.0451757666
      vertex 0.235 -0.0320507311 0.0355621327
      vertex 0.135 -0.0387590236 0.0428569291
    endloop
  endfacet
  facet normal -0.0975130423 0.556032912 -0.825420261
    outer loop
      vertex 0.135 -0.0387590236 0.0428569291
      vertex 0.235 -0.0320507311 0.0355621327
      vertex 0.235 -0.0361585459 0.0327949602
    endloop
  endfacet
  facet normal -0.0975676043 0.554707626 -0.826305036
    outer loop
      vertex 0.135 -0.0387590236 0.0428569291
      vertex 0.235 -0.0361585459 0.0327949602
      vertex 0.135 -0.0437266136 0.0395221315
    endloop
  endfacet
  facet normal -0.100660504 0.769753666 -0.63035447
    outer loop
      vertex 0.135 -0.0437266136 0.0395221315
      vertex 0.235 -0.0361585459 0.0327949602
      vertex 0.235 -0.0392095309 0.0290692677
    endloop
  endfacet
  facet normal -0.100747609 0.768677007 -0.631653052
    outer loop
      vertex 0.135 -0.0437266136 0.0395221315
      vertex 0.235 -0.0392095309 0.0290692677
      vertex 0.135 -0.0474161769 0.0350321944
    endloop
  endfacet
  facet normal -0.0984507063 0.914483712 -0.392462736
    outer loop
      vertex 0.135 -0.0474161769 0.0350321944
      vertex 0.235 -0.0392095309 0.0290692677
      vertex 0.235 -0.0413310205 0.0241259508
    endloop
  endfacet
  facet normal -0.0985448713 0.913982052 -0.393606043
    outer loop
      vertex 0.135 -0.0474161769 0.0350321944
      vertex 0.235 -0.0413310205 0.0241259508
      vertex 0.135 -0.0499816992 0.0290748638
    endloop
  endfacet
  facet normal -0.0935490367 0.979572592 -0.17800594
    outer loop
      vertex 0.135 -0.0499816992 0.0290748638
      vertex 0.235 -0.0413310205 0.0241259508
      vertex 0.235 -0.0425848798 0.0172259217
    endloop
  endfacet
  facet normal -0.0936111602 0.979458221 -0.178601632
    outer loop
      vertex 0.135 -0.0499816992 0.0290748638
      vertex 0.235 -0.0425848798 0.0172259217
      vertex 0.135 -0.0514979941 0.0207594441
    endloop
  endfacet
  facet normal -0.0895947772 0.995689224 -0.0239946967
    outer loop
      vertex 0.135 -0.0514979941 0.0207594441
      vertex 0.235 -0.0425848798 0.0172259217
      vertex 0.235 -0.043 4.31588668e-10
    endloop
  endfacet
  facet normal -0.0896117126 0.995685696 -0.0240777202
    outer loop
      vertex 0.135 -0.0514979941 0.0207594441
      vertex 0.235 -0.043 4.31588668e-10
      vertex 0.135 -0.052 5.20119677e-10
    endloop
  endfacet
  facet normal -0.0896118916 0.995687685 0.0239946584
    outer loop
      vertex 0.135 -0.052 5.20119677e-10
      vertex 0.235 -0.043 4.31588668e-10
      vertex 0.235 -0.0425848798 -0.0172259217
    endloop
  endfacet
  facet normal -0.0895975113 0.995686973 0.0240777499
    outer loop
      vertex 0.135 -0.052 5.20119677e-10
      vertex 0.235 -0.0425848798 -0.0172259217
      vertex 0.135 -0.0514979941 -0.0207594441
    endloop
  endfacet
  facet normal -0.0935998562 0.979567893 0.178005086
    outer loop
      vertex 0.135 -0.0514979941 -0.0207594441
      vertex 0.235 -0.0425848798 -0.0172259217
      vertex 0.235 -0.0413310205 -0.0241259508
    endloop
  endfacet
  facet normal -0.0935689957 0.979462121 0.178602343
    outer loop
      vertex 0.135 -0.0514979941 -0.0207594441
      vertex 0.235 -0.0413310205 -0.0241259508
      vertex 0.135 -0.0499816992 -0.0290748638
    endloop
  endfacet
  facet normal -0.0985309012 0.914476418 0.392459606
    outer loop
      vertex 0.135 -0.0499816992 -0.0290748638
      vertex 0.235 -0.0413310205 -0.0241259508
      vertex 0.235 -0.0392095309 -0.0290692677
    endloop
  endfacet
  facet normal -0.0984783629 0.913988099 0.393608647
    outer loop
      vertex 0.135 -0.0499816992 -0.0290748638
      vertex 0.235 -0.0392095309 -0.0290692677
      vertex 0.135 -0.0474161769 -0.0350321944
    endloop
  endfacet
  facet normal -0.100757539 0.769746066 0.630348247
    outer loop
      vertex 0.135 -0.0474161769 -0.0350321944
      vertex 0.235 -0.0392095309 -0.0290692677
      vertex 0.235 -0.0361585459 -0.0327949602
    endloop
  endfacet
  facet normal -0.100667203 0.768683295 0.631658219
    outer loop
      vertex 0.135 -0.0474161769 -0.0350321944
      vertex 0.235 -0.0361585459 -0.0327949602
      vertex 0.135 -0.0437266136 -0.0395221315
    endloop
  endfacet
  facet normal -0.0976074746 0.55602774 0.825412583
    outer loop
      vertex 0.135 -0.0437266136 -0.0395221315
      vertex 0.235 -0.0361585459 -0.0327949602
      vertex 0.235 -0.0320507311 -0.0355621327
    endloop
  endfacet
  facet normal -0.0974894311 0.554711896 0.826311396
    outer loop
      vertex 0.135 -0.0437266136 -0.0395221315
      vertex 0.235 -0.0320507311 -0.0355621327
      vertex 0.135 -0.0387590236 -0.0428569291
    endloop
  endfacet
  facet normal -0.0907430139 0.331523321 0.939072944
    outer loop
      vertex 0.135 -0.0387590236 -0.0428569291
      vertex 0.235 -0.0320507311 -0.0355621327
      vertex 0.235 -0.0266004073 -0.0374862744
    endloop
  endfacet
  facet normal -0.0906393581 0.330508372 0.939440644
    outer loop
      vertex 0.135 -0.0387590236 -0.0428569291
      vertex 0.235 -0.0266004073 -0.0374862744
      vertex 0.135 -0.0321679344 -0.0451757666
    endloop
  endfacet
  facet normal -0.0839832198 0.14731753 0.985517308
    outer loop
      vertex 0.135 -0.0321679344 -0.0451757666
      vertex 0.235 -0.0266004073 -0.0374862744
      vertex 0.235 -0.0189926829 -0.0386234956
    endloop
  endfacet
  facet normal -0.0839229727 0.146820843 0.985596558
    outer loop
      vertex 0.135 -0.0321679344 -0.0451757666
      vertex 0.235 -0.0189926829 -0.0386234956
      vertex 0.135 -0.0229678957 -0.0465462639
    endloop
  endfacet
  facet normal -0.0797452205 0.0197566421 0.996619473
    outer loop
      vertex 0.135 -0.0229678957 -0.0465462639
      vertex 0.235 -0.0189926829 -0.0386234956
      vertex 0.235 -5.82799957e-10 -0.039
    endloop
  endfacet
  facet normal -0.0797297647 0.0196884996 0.996622059
    outer loop
      vertex 0.135 -0.0229678957 -0.0465462639
      vertex 0.235 -5.82799957e-10 -0.039
      vertex 0.135 -7.04781343e-10 -0.047
    endloop
  endfacet
  facet normal -0.0797296574 -0.0197566656 0.996620718
    outer loop
      vertex 0.135 -7.04781343e-10 -0.047
      vertex 0.235 -5.82799957e-10 -0.039
      vertex 0.235 0.0189926829 -0.0386234956
    endloop
  endfacet
  facet normal -0.0797426341 -0.0196884781 0.996621029
    outer loop
      vertex 0.135 -7.04781343e-10 -0.047
      vertex 0.235 0.0189926829 -0.0386234956
      vertex 0.135 0.0229678957 -0.0465462639
    endloop
  endfacet
  facet normal -0.083936768 -0.147318109 0.985521179
    outer loop
      vertex 0.135 0.0229678957 -0.0465462639
      vertex 0.235 0.0189926829 -0.0386234956
      vertex 0.235 0.0266004073 -0.0374862744
    endloop
  endfacet
  facet normal -0.0839613879 -0.146820367 0.985593357
    outer loop
      vertex 0.135 0.0229678957 -0.0465462639
      vertex 0.235 0.0266004073 -0.0374862744
      vertex 0.135 0.0321679344 -0.0451757666
    endloop
  endfacet
  facet normal -0.0906682116 -0.331525589 0.939079368
    outer loop
      vertex 0.135 0.0321679344 -0.0451757666
      vertex 0.235 0.0266004073 -0.0374862744
      vertex 0.235 0.0320507311 -0.0355621327
    endloop
  endfacet
  facet normal -0.090701238 -0.330506502 0.939435329
    outer loop
      vertex 0.135 0.0321679344 -0.0451757666
      vertex 0.235 0.0320507311 -0.0355621327
      vertex 0.135 0.0387590236 -0.0428569291
    endloop
  endfacet
  facet normal -0.0975130423 -0.556032912 0.825420261
    outer loop
      vertex 0.135 0.0387590236 -0.0428569291
      vertex 0.235 0.0320507311 -0.0355621327
      vertex 0.235 0.0361585459 -0.0327949602
    endloop
  endfacet
  facet normal -0.0975676043 -0.554707626 0.826305036
    outer loop
      vertex 0.135 0.0387590236 -0.0428569291
      vertex 0.235 0.0361585459 -0.0327949602
      vertex 0.135 0.0437266136 -0.0395221315
    endloop
  endfacet
  facet normal -0.100660504 -0.769753666 0.63035447
    outer loop
      vertex 0.135 0.0437266136 -0.0395221315
      vertex 0.235 0.0361585459 -0.0327949602
      vertex 0.235 0.0392095309 -0.0290692677
    endloop
  endfacet
  facet normal -0.100747609 -0.768677007 0.631653052
    outer loop
      vertex 0.135 0.0437266136 -0.0395221315
      vertex 0.235 0.0392095309 -0.0290692677
      vertex 0.135 0.0474161769 -0.0350321944
    endloop
  endfacet
  facet normal -0.0984507063 -0.914483712 0.392462736
    outer loop
      vertex 0.135 0.0474161769 -0.0350321944
      vertex 0.235 0.0392095309 -0.0290692677
      vertex 0.235 0.0413310205 -0.0241259508
    endloop
  endfacet
  facet normal -0.0985448713 -0.913982052 0.393606043
    outer loop
      vertex 0.135 0.0474161769 -0.0350321944
      vertex 0.235 0.0413310205 -0.0241259508
      vertex 0.135 0.0499816992 -0.0290748638
    endloop
  endfacet
  facet normal -0.0935490367 -0.979572592 0.17800594
    outer loop
      vertex 0.135 0.0499816992 -0.0290748638
      vertex 0.235 0.0413310205 -0.0241259508
      vertex 0.235 0.0425848798 -0.0172259217
    endloop
  endfacet
  facet normal -0.0936111602 -0.979458221 0.178601632
    outer loop
      vertex 0.135 0.0499816992 -0.0290748638
      vertex 0.235 0.0425848798 -0.0172259217
      vertex 0.135 0.0514979941 -0.0207594441
    endloop
  endfacet
  facet normal -0.0895947772 -0.995689224 0.0239946961
    outer loop
      vertex 0.135 0.0514979941 -0.0207594441
      vertex 0.235 0.0425848798 -0.0172259217
      vertex 0.235 0.043 0
    endloop
  endfacet
  facet normal -0.0896117126 -0.995685696 0.0240777196
    outer loop
      vertex 0.135 0.0514979941 -0.0207594441
      vertex 0.235 0.043 0
      vertex 0.135 0.052 0
    endloop
  endfacet
  facet normal 0.0885135258 -0.995777165 -0.0243555718
    outer loop
      vertex 0.235 0.043 0
      vertex 0.28 0.047 0
      vertex 0.28 0.0465462639 0.0185509926
    endloop
  endfacet
  facet normal 0.0883675528 -0.995798827 -0.0239973374
    outer loop
      vertex 0.235 0.043 0
      vertex 0.28 0.0465462639 0.0185509926
      vertex 0.235 0.0425848798 0.0172259217
    endloop
  endfacet
  facet normal 0.0915256833 -0.979286224 -0.180614343
    outer loop
      vertex 0.235 0.0425848798 0.0172259217
      vertex 0.28 0.0465462639 0.0185509926
      vertex 0.28 0.0451757666 0.0259817931
    endloop
  endfacet
  facet normal 0.0910557741 -0.979799989 -0.178047263
    outer loop
      vertex 0.235 0.0425848798 0.0172259217
      vertex 0.28 0.0451757666 0.0259817931
      vertex 0.235 0.0413310205 0.0241259508
    endloop
  endfacet
  facet normal 0.0943765687 -0.912710705 -0.397557835
    outer loop
      vertex 0.235 0.0413310205 0.0241259508
      vertex 0.28 0.0451757666 0.0259817931
      vertex 0.28 0.0428569291 0.0313053652
    endloop
  endfacet
  facet normal 0.0936672354 -0.914907927 -0.392644794
    outer loop
      vertex 0.235 0.0413310205 0.0241259508
      vertex 0.28 0.0428569291 0.0313053652
      vertex 0.235 0.0392095309 0.0290692677
    endloop
  endfacet
  facet normal 0.0936821231 -0.765665443 -0.63638046
    outer loop
      vertex 0.235 0.0392095309 0.0290692677
      vertex 0.28 0.0428569291 0.0313053652
      vertex 0.28 0.0395221315 0.0353176494
    endloop
  endfacet
  facet normal 0.0929438557 -0.770334329 -0.630829978
    outer loop
      vertex 0.235 0.0392095309 0.0290692677
      vertex 0.28 0.0395221315 0.0353176494
      vertex 0.235 0.0361585459 0.0327949602
    endloop
  endfacet
  facet normal 0.0877032479 -0.550864704 -0.829973625
    outer loop
      vertex 0.235 0.0361585459 0.0327949602
      vertex 0.28 0.0395221315 0.0353176494
      vertex 0.28 0.0350321944 0.0382976813
    endloop
  endfacet
  facet normal 0.0871014807 -0.556572163 -0.826220769
    outer loop
      vertex 0.235 0.0361585459 0.0327949602
      vertex 0.28 0.0350321944 0.0382976813
      vertex 0.235 0.0320507311 0.0355621327
    endloop
  endfacet
  facet normal 0.0789351532 -0.327500864 -0.941547888
    outer loop
      vertex 0.235 0.0320507311 0.0355621327
      vertex 0.28 0.0350321944 0.0382976813
      vertex 0.28 0.0290748638 0.040369834
    endloop
  endfacet
  facet normal 0.0784866724 -0.331869807 -0.940054399
    outer loop
      vertex 0.235 0.0320507311 0.0355621327
      vertex 0.28 0.0290748638 0.040369834
      vertex 0.235 0.0266004073 0.0374862744
    endloop
  endfacet
  facet normal 0.0712260785 -0.145338651 -0.986814837
    outer loop
      vertex 0.235 0.0266004073 0.0374862744
      vertex 0.28 0.0290748638 0.040369834
      vertex 0.28 0.0207594441 0.0415945337
    endloop
  endfacet
  facet normal 0.0709229064 -0.147467533 -0.986520789
    outer loop
      vertex 0.235 0.0266004073 0.0374862744
      vertex 0.28 0.0207594441 0.0415945337
      vertex 0.235 0.0189926829 0.0386234956
    endloop
  endfacet
  facet normal 0.0666287827 -0.019484536 -0.997587569
    outer loop
      vertex 0.235 0.0189926829 0.0386234956
      vertex 0.28 0.0207594441 0.0415945337
      vertex 0.28 3.6778015e-10 0.042
    endloop
  endfacet
  facet normal 0.066506002 -0.0197758818 -0.997590029
    outer loop
      vertex 0.235 0.0189926829 0.0386234956
      vertex 0.28 3.6778015e-10 0.042
      vertex 0.235 3.36479712e-10 0.039
    endloop
  endfacet
  facet normal 0.0665063822 0.0194846948 -0.997595734
    outer loop
      vertex 0.235 3.36479712e-10 0.039
      vertex 0.28 3.6778015e-10 0.042
      vertex 0.28 -0.0207594441 0.0415945337
    endloop
  endfacet
  facet normal 0.0666397875 0.0197757042 -0.997581105
    outer loop
      vertex 0.235 3.36479712e-10 0.039
      vertex 0.28 -0.0207594441 0.0415945337
      vertex 0.235 -0.0189926829 0.0386234956
    endloop
  endfacet
  facet normal 0.0708605868 0.145342444 -0.986840591
    outer loop
      vertex 0.235 -0.0189926829 0.0386234956
      vertex 0.28 -0.0207594441 0.0415945337
      vertex 0.28 -0.0290748638 0.040369834
    endloop
  endfacet
  facet normal 0.0713222629 0.147463323 -0.986492627
    outer loop
      vertex 0.235 -0.0189926829 0.0386234956
      vertex 0.28 -0.0290748638 0.040369834
      vertex 0.235 -0.0266004073 0.0374862744
    endloop
  endfacet
  facet normal 0.0783457884 0.327516138 -0.941591799
    outer loop
      vertex 0.235 -0.0266004073 0.0374862744
      vertex 0.28 -0.0290748638 0.040369834
      vertex 0.28 -0.0350321944 0.0382976813
    endloop
  endfacet
  facet normal 0.0791297915 0.331852882 -0.940006458
    outer loop
      vertex 0.235 -0.0266004073 0.0374862744
      vertex 0.28 -0.0350321944 0.0382976813
      vertex 0.235 -0.0320507311 0.0355621327
    endloop
  endfacet
  facet normal 0.0869571795 0.550900872 -0.830028119
    outer loop
      vertex 0.235 -0.0320507311 0.0355621327
      vertex 0.28 -0.0350321944 0.0382976813
      vertex 0.28 -0.0395221315 0.0353176494
    endloop
  endfacet
  facet normal 0.0879131826 0.556532327 -0.826161632
    outer loop
      vertex 0.235 -0.0320507311 0.0355621327
      vertex 0.28 -0.0395221315 0.0353176494
      vertex 0.235 -0.0361585459 0.0327949602
    endloop
  endfacet
  facet normal 0.0929127597 0.765720886 -0.636426542
    outer loop
      vertex 0.235 -0.0361585459 0.0327949602
      vertex 0.28 -0.0395221315 0.0353176494
      vertex 0.28 -0.0428569291 0.0313053652
    endloop
  endfacet
  facet normal 0.0937773804 0.770273858 -0.630780458
    outer loop
      vertex 0.235 -0.0361585459 0.0327949602
      vertex 0.28 -0.0428569291 0.0313053652
      vertex 0.235 -0.0392095309 0.0290692677
    endloop
  endfacet
  facet normal 0.0937389494 0.912765934 -0.397581891
    outer loop
      vertex 0.235 -0.0392095309 0.0290692677
      vertex 0.28 -0.0428569291 0.0313053652
      vertex 0.28 -0.0451757666 0.0259817931
    endloop
  endfacet
  facet normal 0.0943555182 0.914848201 -0.392619162
    outer loop
      vertex 0.235 -0.0392095309 0.0290692677
      vertex 0.28 -0.0451757666 0.0259817931
      vertex 0.235 -0.0413310205 0.0241259508
    endloop
  endfacet
  facet normal 0.091121142 0.979322708 -0.180621071
    outer loop
      vertex 0.235 -0.0413310205 0.0241259508
      vertex 0.28 -0.0451757666 0.0259817931
      vertex 0.28 -0.0465462639 0.0185509926
    endloop
  endfacet
  facet normal 0.0914916496 0.979760682 -0.17804012
    outer loop
      vertex 0.235 -0.0413310205 0.0241259508
      vertex 0.28 -0.0465462639 0.0185509926
      vertex 0.235 -0.0425848798 0.0172259217
    endloop
  endfacet
  facet normal 0.0883772679 0.99578926 -0.0243558682
    outer loop
      vertex 0.235 -0.0425848798 0.0172259217
      vertex 0.28 -0.0465462639 0.0185509926
      vertex 0.28 -0.047 4.64787796e-10
    endloop
  endfacet
  facet normal 0.0885142935 0.995785802 -0.0239970241
    outer loop
      vertex 0.235 -0.0425848798 0.0172259217
      vertex 0.28 -0.047 4.64787796e-10
      vertex 0.235 -0.043 4.31588668e-10
    endloop
  endfacet
  facet normal 0.0885135257 0.995777165 0.0243555712
    outer loop
      vertex 0.235 -0.043 4.31588668e-10
      vertex 0.28 -0.047 4.64787796e-10
      vertex 0.28 -0.0465462639 -0.0185509926
    endloop
  endfacet
  facet normal 0.0883675528 0.995798827 0.0239973368
    outer loop
      vertex 0.235 -0.043 4.31588668e-10
      vertex 0.28 -0.0465462639 -0.0185509926
      vertex 0.235 -0.0425848798 -0.0172259217
    endloop
  endfacet
  facet normal 0.0915256833 0.979286224 0.180614343
    outer loop
      vertex 0.235 -0.0425848798 -0.0172259217
      vertex 0.28 -0.0465462639 -0.0185509926
      vertex 0.28 -0.0451757666 -0.0259817931
    endloop
  endfacet
  facet normal 0.0910557741 0.979799989 0.178047263
    outer loop
      vertex 0.235 -0.0425848798 -0.0172259217
      vertex 0.28 -0.0451757666 -0.0259817931
      vertex 0.235 -0.0413310205 -0.0241259508
    endloop
  endfacet
  facet normal 0.0943765687 0.912710705 0.397557835
    outer loop
      vertex 0.235 -0.0413310205 -0.0241259508
      vertex 0.28 -0.0451757666 -0.0259817931
      vertex 0.28 -0.0428569291 -0.0313053652
    endloop
  endfacet
  facet normal 0.0936672354 0.914907927 0.392644794
    outer loop
      vertex 0.235 -0.0413310205 -0.0241259508
      vertex 0.28 -0.0428569291 -0.0313053652
      vertex 0.235 -0.0392095309 -0.0290692677
    endloop
  endfacet
  facet normal 0.0936821231 0.765665443 0.63638046
    outer loop
      vertex 0.235 -0.0392095309 -0.0290692677
      vertex 0.28 -0.0428569291 -0.0313053652
      vertex 0.28 -0.0395221315 -0.0353176494
    endloop
  endfacet
  facet normal 0.0929438557 0.770334329 0.630829978
    outer loop
      vertex 0.235 -0.0392095309 -0.0290692677
      vertex 0.28 -0.0395221315 -0.0353176494
      vertex 0.235 -0.0361585459 -0.0327949602
    endloop
  endfacet
  facet normal 0.0877032479 0.550864704 0.829973625
    outer loop
      vertex 0.235 -0.0361585459 -0.0327949602
      vertex 0.28 -0.0395221315 -0.0353176494
      vertex 0.28 -0.0350321944 -0.0382976813
    endloop
  endfacet
  facet normal 0.0871014807 0.556572163 0.826220769
    outer loop
      vertex 0.235 -0.0361585459 -0.0327949602
      vertex 0.28 -0.0350321944 -0.0382976813
      vertex 0.235 -0.0320507311 -0.0355621327
    endloop
  endfacet
  facet normal 0.0789351532 0.327500864 0.941547888
    outer loop
      vertex 0.235 -0.0320507311 -0.0355621327
      vertex 0.28 -0.0350321944 -0.0382976813
      vertex 0.28 -0.0290748638 -0.040369834
    endloop
  endfacet
  facet normal 0.0784866724 0.331869807 0.940054399
    outer loop
      vertex 0.235 -0.0320507311 -0.0355621327
      vertex 0.28 -0.0290748638 -0.040369834
      vertex 0.235 -0.0266004073 -0.0374862744
    endloop
  endfacet
  facet normal 0.0712260785 0.145338651 0.986814837
    outer loop
      vertex 0.235 -0.0266004073 -0.0374862744
      vertex 0.28 -0.0290748638 -0.040369834
      vertex 0.28 -0.0207594441 -0.0415945337
    endloop
  endfacet
  facet normal 0.0709229064 0.147467533 0.986520789
    outer loop
      vertex 0.235 -0.0266004073 -0.0374862744
      vertex 0.28 -0.0207594441 -0.0415945337
      vertex 0.235 -0.0189926829 -0.0386234956
    endloop
  endfacet
  facet normal 0.0666287827 0.0194845363 0.997587569
    outer loop
      vertex 0.235 -0.0189926829 -0.0386234956
      vertex 0.28 -0.0207594441 -0.0415945337
      vertex 0.28 -6.37013906e-10 -0.042
    endloop
  endfacet
  facet normal 0.066506002 0.0197758821 0.997590029
    outer loop
      vertex 0.235 -0.0189926829 -0.0386234956
      vertex 0.28 -6.37013906e-10 -0.042
      vertex 0.235 -5.82799957e-10 -0.039
    endloop
  endfacet
  facet normal 0.0665063822 -0.0194846945 0.997595734
    outer loop
      vertex 0.235 -5.82799957e-10 -0.039
      vertex 0.28 -6.37013906e-10 -0.042
      vertex 0.28 0.0207594441 -0.0415945337
    endloop
  endfacet
  facet normal 0.0666397875 -0.0197757039 0.997581105
    outer loop
      vertex 0.235 -5.82799957e-10 -0.039
      vertex 0.28 0.0207594441 -0.0415945337
      vertex 0.235 0.0189926829 -0.0386234956
    endloop
  endfacet
  facet normal 0.0708605868 -0.145342444 0.986840591
    outer loop
      vertex 0.235 0.0189926829 -0.0386234956
      vertex 0.28 0.0207594441 -0.0415945337
      vertex 0.28 0.0290748638 -0.040369834
    endloop
  endfacet
  facet normal 0.0713222629 -0.147463323 0.986492627
    outer loop
      vertex 0.235 0.0189926829 -0.0386234956
      vertex 0.28 0.0290748638 -0.040369834
      vertex 0.235 0.0266004073 -0.0374862744
    endloop
  endfacet
  facet normal 0.0783457884 -0.327516138 0.941591799
    outer loop
      vertex 0.235 0.0266004073 -0.0374862744
      vertex 0.28 0.0290748638 -0.040369834
      vertex 0.28 0.0350321944 -0.0382976813
    endloop
  endfacet
  facet normal 0.0791297915 -0.331852882 0.940006458
    outer loop
      vertex 0.235 0.0266004073 -0.0374862744
      vertex 0.28 0.0350321944 -0.0382976813
      vertex 0.235 0.0320507311 -0.0355621327
    endloop
  endfacet
  facet normal 0.0869571795 -0.550900872 0.830028119
    outer loop
      vertex 0.235 0.0320507311 -0.0355621327
      vertex 0.28 0.0350321944 -0.0382976813
      vertex 0.28 0.0395221315 -0.0353176494
    endloop
  endfacet
  facet normal 0.0879131826 -0.556532327 0.826161632
    outer loop
      vertex 0.235 0.0320507311 -0.0355621327
      vertex 0.28 0.0395221315 -0.0353176494
      vertex 0.235 0.0361585459 -0.0327949602
    endloop
  endfacet
  facet normal 0.0929127597 -0.765720886 0.636426542
    outer loop
      vertex 0.235 0.0361585459 -0.0327949602
      vertex 0.28 0.0395221315 -0.0353176494
      vertex 0.28 0.0428569291 -0.0313053652
    endloop
  endfacet
  facet normal 0.0937773804 -0.770273858 0.630780458
    outer loop
      vertex 0.235 0.0361585459 -0.0327949602
      vertex 0.28 0.0428569291 -0.0313053652
      vertex 0.235 0.0392095309 -0.0290692677
    endloop
  endfacet
  facet normal 0.0937389494 -0.912765934 0.397581891
    outer loop
      vertex 0.235 0.0392095309 -0.0290692677
      vertex 0.28 0.0428569291 -0.0313053652
      vertex 0.28 0.0451757666 -0.0259817931
    endloop
  endfacet
  facet normal 0.0943555182 -0.914848201 0.392619162
    outer loop
      vertex 0.235 0.0392095309 -0.0290692677
      vertex 0.28 0.0451757666 -0.0259817931
      vertex 0.235 0.0413310205 -0.0241259508
    endloop
  endfacet
  facet normal 0.091121142 -0.979322708 0.180621071
    outer loop
      vertex 0.235 0.0413310205 -0.0241259508
      vertex 0.28 0.0451757666 -0.0259817931
      vertex 0.28 0.0465462639 -0.0185509926
    endloop
  endfacet
  facet normal 0.0914916496 -0.979760682 0.17804012
    outer loop
      vertex 0.235 0.0413310205 -0.0241259508
      vertex 0.28 0.0465462639 -0.0185509926
      vertex 0.235 0.0425848798 -0.0172259217
    endloop
  endfacet
  facet normal 0.0883772679 -0.99578926 0.0243558676
    outer loop
      vertex 0.235 0.0425848798 -0.0172259217
      vertex 0.28 0.0465462639 -0.0185509926
      vertex 0.28 0.047 0
    endloop
  endfacet
  facet normal 0.0885142935 -0.995785802 0.0239970235
    outer loop
      vertex 0.235 0.0425848798 -0.0172259217
      vertex 0.28 0.047 0
      vertex 0.235 0.043 0
    endloop
  endfacet
  facet normal -1 0 0
    outer loop
      vertex 0 0 0
      vertex 0 0.0574400704 0.0238512763
      vertex 0 0.058 0
    endloop
  endfacet
  facet normal 1 0 0
    outer loop
      vertex 0.28 0 0
      vertex 0.28 0.047 0
      vertex 0.28 0.0465462639 0.0185509926
    endloop
  endfacet
  facet normal -1 0 0
    outer loop
      vertex 0 0 0
      vertex 0 0.0557488183 0.0334051626
      vertex 0 0.0574400704 0.0238512763
    endloop
  endfacet
  facet normal 1 0 0
    outer loop
      vertex 0.28 0 0
      vertex 0.28 0.0465462639 0.0185509926
      vertex 0.28 0.0451757666 0.0259817931
    endloop
  endfacet
  facet normal -1 0 0
    outer loop
      vertex 0 0 0
      vertex 0 0.0528872742 0.0402497553
      vertex 0 0.0557488183 0.0334051626
    endloop
  endfacet
  facet normal 1 0 0
    outer loop
      vertex 0.28 0 0
      vertex 0.28 0.0451757666 0.0259817931
      vertex 0.28 0.0428569291 0.0313053652
    endloop
  endfacet
  facet normal -1 0 0
    outer loop
      vertex 0 0 0
      vertex 0 0.0487719921 0.0454084064
      vertex 0 0.0528872742 0.0402497553
    endloop
  endfacet
  facet normal 1 0 0
    outer loop
      vertex 0.28 0 0
      vertex 0.28 0.0428569291 0.0313053652
      vertex 0.28 0.0395221315 0.0353176494
    endloop
  endfacet
  facet normal -1 0 0
    outer loop
      vertex 0 0 0
      vertex 0 0.0432312186 0.049239876
      vertex 0 0.0487719921 0.0454084064
    endloop
  endfacet
  facet normal 1 0 0
    outer loop
      vertex 0.28 0 0
      vertex 0.28 0.0395221315 0.0353176494
      vertex 0.28 0.0350321944 0.0382976813
    endloop
  endfacet
  facet normal -1 0 0
    outer loop
      vertex 0 0 0
      vertex 0 0.0358796191 0.0519040723
      vertex 0 0.0432312186 0.049239876
    endloop
  endfacet
  facet normal 1 0 0
    outer loop
      vertex 0.28 0 0
      vertex 0.28 0.0350321944 0.0382976813
      vertex 0.28 0.0290748638 0.040369834
    endloop
  endfacet
  facet normal -1 0 0
    outer loop
      vertex 0 0 0
      vertex 0 0.0256180375 0.0534786862
      vertex 0 0.0358796191 0.0519040723
    endloop
  endfacet
  facet normal 1 0 0
    outer loop
      vertex 0.28 0 0
      vertex 0.28 0.0290748638 0.040369834
      vertex 0.28 0.0207594441 0.0415945337
    endloop
  endfacet
  facet normal -1 0 0
    outer loop
      vertex 0 0 0
      vertex 0 4.53856356e-10 0.054
      vertex 0 0.0256180375 0.0534786862
    endloop
  endfacet
  facet normal 1 0 0
    outer loop
      vertex 0.28 0 0
      vertex 0.28 0.0207594441 0.0415945337
      vertex 0.28 3.6778015e-10 0.042
    endloop
  endfacet
  facet normal -1 0 0
    outer loop
      vertex 0 0 0
      vertex 0 -0.0256180375 0.0534786862
      vertex 0 4.53856356e-10 0.054
    endloop
  endfacet
  facet normal 1 0 -0
    outer loop
      vertex 0.28 0 0
      vertex 0.28 3.6778015e-10 0.042
      vertex 0.28 -0.0207594441 0.0415945337
    endloop
  endfacet
  facet normal -1 0 0
    outer loop
      vertex 0 0 0
      vertex 0 -0.0358796191 0.0519040723
      vertex 0 -0.0256180375 0.0534786862
    endloop
  endfacet
  facet normal 1 0 0
    outer loop
      vertex 0.28 0 0
      vertex 0.28 -0.0207594441 0.0415945337
      vertex 0.28 -0.0290748638 0.040369834
    endloop
  endfacet
  facet normal -1 0 0
    outer loop
      vertex 0 0 0
      vertex 0 -0.0432312186 0.049239876
      vertex 0 -0.0358796191 0.0519040723
    endloop
  endfacet
  facet normal 1 0 0
    outer loop
      vertex 0.28 0 0
      vertex 0.28 -0.0290748638 0.040369834
      vertex 0.28 -0.0350321944 0.0382976813
    endloop
  endfacet
  facet normal -1 0 0
    outer loop
      vertex 0 0 0
      vertex 0 -0.0487719921 0.0454084064
      vertex 0 -0.0432312186 0.049239876
    endloop
  endfacet
  facet normal 1 0 0
    outer loop
      vertex 0.28 0 0
      vertex 0.28 -0.0350321944 0.0382976813
      vertex 0.28 -0.0395221315 0.0353176494
    endloop
  endfacet
  facet normal -1 0 0
    outer loop
      vertex 0 0 0
      vertex 0 -0.0528872742 0.0402497553
      vertex 0 -0.0487719921 0.0454084064
    endloop
  endfacet
  facet normal 1 0 0
    outer loop
      vertex 0.28 0 0
      vertex 0.28 -0.0395221315 0.0353176494
      vertex 0.28 -0.0428569291 0.0313053652
    endloop
  endfacet
  facet normal -1 0 0
    outer loop
      vertex 0 0 0
      vertex 0 -0.0557488183 0.0334051626
      vertex 0 -0.0528872742 0.0402497553
    endloop
  endfacet
  facet normal 1 0 0
    outer loop
      vertex 0.28 0 0
      vertex 0.28 -0.0428569291 0.0313053652
      vertex 0.28 -0.0451757666 0.0259817931
    endloop
  endfacet
  facet normal -1 0 0
    outer loop
      vertex 0 0 0
      vertex 0 -0.0574400704 0.0238512763
      vertex 0 -0.0557488183 0.0334051626
    endloop
  endfacet
  facet normal 1 0 0
    outer loop
      vertex 0.28 0 0
      vertex 0.28 -0.0451757666 0.0259817931
      vertex 0.28 -0.0465462639 0.0185509926
    endloop
  endfacet
  facet normal -1 0 0
    outer loop
      vertex 0 0 0
      vertex 0 -0.058 5.97584309e-10
      vertex 0 -0.0574400704 0.0238512763
    endloop
  endfacet
  facet normal 1 0 0
    outer loop
      vertex 0.28 0 0
      vertex 0.28 -0.0465462639 0.0185509926
      vertex 0.28 -0.047 4.64787796e-10
    endloop
  endfacet
  facet normal -1 -0 0
    outer loop
      vertex 0 0 0
      vertex 0 -0.0574400704 -0.0238512763
      vertex 0 -0.058 5.97584309e-10
    endloop
  endfacet
  facet normal 1 0 0
    outer loop
      vertex 0.28 0 0
      vertex 0.28 -0.047 4.64787796e-10
      vertex 0.28 -0.0465462639 -0.0185509926
    endloop
  endfacet
  facet normal -1 0 0
    outer loop
      vertex 0 0 0
      vertex 0 -0.0557488183 -0.0334051626
      vertex 0 -0.0574400704 -0.0238512763
    endloop
  endfacet
  facet normal 1 0 0
    outer loop
      vertex 0.28 0 0
      vertex 0.28 -0.0465462639 -0.0185509926
      vertex 0.28 -0.0451757666 -0.0259817931
    endloop
  endfacet
  facet normal -1 0 0
    outer loop
      vertex 0 0 0
      vertex 0 -0.0528872742 -0.0402497553
      vertex 0 -0.0557488183 -0.0334051626
    endloop
  endfacet
  facet normal 1 0 0
    outer loop
      vertex 0.28 0 0
      vertex 0.28 -0.0451757666 -0.0259817931
      vertex 0.28 -0.0428569291 -0.0313053652
    endloop
  endfacet
  facet normal -1 0 0
    outer loop
      vertex 0 0 0
      vertex 0 -0.0487719921 -0.0454084064
      vertex 0 -0.0528872742 -0.0402497553
    endloop
  endfacet
  facet normal 1 0 0
    outer loop
      vertex 0.28 0 0
      vertex 0.28 -0.0428569291 -0.0313053652
      vertex 0.28 -0.0395221315 -0.0353176494
    endloop
  endfacet
  facet normal -1 0 0
    outer loop
      vertex 0 0 0
      vertex 0 -0.0432312186 -0.049239876
      vertex 0 -0.0487719921 -0.0454084064
    endloop
  endfacet
  facet normal 1 0 0
    outer loop
      vertex 0.28 0 0
      vertex 0.28 -0.0395221315 -0.0353176494
      vertex 0.28 -0.0350321944 -0.0382976813
    endloop
  endfacet
  facet normal -1 0 0
    outer loop
      vertex 0 0 0
      vertex 0 -0.0358796191 -0.0519040723
      vertex 0 -0.0432312186 -0.049239876
    endloop
  endfacet
  facet normal 1 0 0
    outer loop
      vertex 0.28 0 0
      vertex 0.28 -0.0350321944 -0.0382976813
      vertex 0.28 -0.0290748638 -0.040369834
    endloop
  endfacet
  facet normal -1 0 0
    outer loop
      vertex 0 0 0
      vertex 0 -0.0256180375 -0.0534786862
      vertex 0 -0.0358796191 -0.0519040723
    endloop
  endfacet
  facet normal 1 0 0
    outer loop
      vertex 0.28 0 0
      vertex 0.28 -0.0290748638 -0.040369834
      vertex 0.28 -0.0207594441 -0.0415945337
    endloop
  endfacet
  facet normal -1 0 0
    outer loop
      vertex 0 0 0
      vertex 0 -7.86102267e-10 -0.054
      vertex 0 -0.0256180375 -0.0534786862
    endloop
  endfacet
  facet normal 1 0 0
    outer loop
      vertex 0.28 0 0
      vertex 0.28 -0.0207594441 -0.0415945337
      vertex 0.28 -6.37013906e-10 -0.042
    endloop
  endfacet
  facet normal -1 0 -0
    outer loop
      vertex 0 0 0
      vertex 0 0.0256180375 -0.0534786862
      vertex 0 -7.86102267e-10 -0.054
    endloop
  endfacet
  facet normal 1 0 0
    outer loop
      vertex 0.28 0 0
      vertex 0.28 -6.37013906e-10 -0.042
      vertex 0.28 0.0207594441 -0.0415945337
    endloop
  endfacet
  facet normal -1 0 0
    outer loop
      vertex 0 0 0
      vertex 0 0.0358796191 -0.0519040723
      vertex 0 0.0256180375 -0.0534786862
    endloop
  endfacet
  facet normal 1 0 0
    outer loop
      vertex 0.28 0 0
      vertex 0.28 0.0207594441 -0.0415945337
      vertex 0.28 0.0290748638 -0.040369834
    endloop
  endfacet
  facet normal -1 0 0
    outer loop
      vertex 0 0 0
      vertex 0 0.0432312186 -0.049239876
      vertex 0 0.0358796191 -0.0519040723
    endloop
  endfacet
  facet normal 1 0 0
    outer loop
      vertex 0.28 0 0
      vertex 0.28 0.0290748638 -0.040369834
      vertex 0.28 0.0350321944 -0.0382976813
    endloop
  endfacet
  facet normal -1 0 0
    outer loop
      vertex 0 0 0
      vertex 0 0.0487719921 -0.0454084064
      vertex 0 0.0432312186 -0.049239876
    endloop
  endfacet
  facet normal 1 0 0
    outer loop
      vertex 0.28 0 0
      vertex 0.28 0.0350321944 -0.0382976813
      vertex 0.28 0.0395221315 -0.0353176494
    endloop
  endfacet
  facet normal -1 0 0
    outer loop
      vertex 0 0 0
      vertex 0 0.0528872742 -0.0402497553
      vertex 0 0.0487719921 -0.0454084064
    endloop
  endfacet
  facet normal 1 0 0
    outer loop
      vertex 0.28 0 0
      vertex 0.28 0.0395221315 -0.0353176494
      vertex 0.28 0.0428569291 -0.0313053652
    endloop
  endfacet
  facet normal -1 0 0
    outer loop
      vertex 0 0 0
      vertex 0 0.0557488183 -0.0334051626
      vertex 0 0.0528872742 -0.0402497553
    endloop
  endfacet
  facet normal 1 0 0
    outer loop
      vertex 0.28 0 0
      vertex 0.28 0.0428569291 -0.0313053652
      vertex 0.28 0.0451757666 -0.0259817931
    endloop
  endfacet
  facet normal -1 0 0
    outer loop
      vertex 0 0 0
      vertex 0 0.0574400704 -0.0238512763
      vertex 0 0.0557488183 -0.0334051626
    endloop
  endfacet
  facet normal 1 0 0
    outer loop
      vertex 0.28 0 0
      vertex 0.28 0.0451757666 -0.0259817931
      vertex 0.28 0.0465462639 -0.0185509926
    endloop
  endfacet
  facet normal -1 0 0
    outer loop
      vertex 0 0 0
      vertex 0 0.058 0
      vertex 0 0.0574400704 -0.0238512763
    endloop
  endfacet
  facet normal 1 -0 0
    outer loop
      vertex 0.28 0 0
      vertex 0.28 0.0465462639 -0.0185509926
      vertex 0.28 0.047 0
    endloop
  endfacet
endsolid forearm_shell
