solid gripper_finger_shell
  facet normal -0.998100392 -0.0268496393 0.0554500218
    outer loop
      vertex 0.015 0 0
      vertex 0.016 0 0.018
      vertex 0.0158455367 0.00574197391 0.018
    endloop
  endfacet
  facet normal -0.998081646 -0.0272686527 0.0555828059
    outer loop
      vertex 0.015 0 0
      vertex 0.0158455367 0.00574197391 0.018
      vertex 0.0148551906 0.00530028361 0
    endloop
  endfacet
  facet normal -0.978350457 -0.198456398 0.058697876
    outer loop
      vertex 0.0148551906 0.00530028361 0
      vertex 0.0158455367 0.00574197391 0.018
      vertex 0.0153789844 0.00804198359 0.018
    endloop
  endfacet
  facet normal -0.97771707 -0.20142679 0.0591318849
    outer loop
      vertex 0.0148551906 0.00530028361 0
      vertex 0.0153789844 0.00804198359 0.018
      vertex 0.0144177978 0.00742336947 0
    endloop
  endfacet
  facet normal -0.900066666 -0.431191224 0.0628818295
    outer loop
      vertex 0.0144177978 0.00742336947 0
      vertex 0.0153789844 0.00804198359 0.018
      vertex 0.0145895929 0.0096897559 0.018
    endloop
  endfacet
  facet normal -0.897395068 -0.436628717 0.063540968
    outer loop
      vertex 0.0144177978 0.00742336947 0
      vertex 0.0145895929 0.0096897559 0.018
      vertex 0.0136777433 0.00894439006 0
    endloop
  endfacet
  facet normal -0.736517653 -0.673269612 0.0651903035
    outer loop
      vertex 0.0136777433 0.00894439006 0
      vertex 0.0145895929 0.0096897559 0.018
      vertex 0.0134543426 0.0109316534 0.018
    endloop
  endfacet
  facet normal -0.731260932 -0.678909064 0.0658781608
    outer loop
      vertex 0.0136777433 0.00894439006 0
      vertex 0.0134543426 0.0109316534 0.018
      vertex 0.0126134462 0.010090757 0
    endloop
  endfacet
  facet normal -0.51561655 -0.854425609 0.06400353
    outer loop
      vertex 0.0126134462 0.010090757 0
      vertex 0.0134543426 0.0109316534 0.018
      vertex 0.0119258534 0.0118540442 0.018
    endloop
  endfacet
  facet normal -0.509747163 -0.857897906 0.0645678859
    outer loop
      vertex 0.0126134462 0.010090757 0
      vertex 0.0119258534 0.0118540442 0.018
      vertex 0.0111804876 0.0109421947 0
    endloop
  endfacet
  facet normal -0.300982279 -0.951697553 0.0606748278
    outer loop
      vertex 0.0111804876 0.0109421947 0
      vertex 0.0119258534 0.0118540442 0.018
      vertex 0.00989782596 0.0124954248 0.018
    endloop
  endfacet
  facet normal -0.296756509 -0.952997281 0.0610881061
    outer loop
      vertex 0.0111804876 0.0109421947 0
      vertex 0.00989782596 0.0124954248 0.018
      vertex 0.00927921184 0.0115342383 0
    endloop
  endfacet
  facet normal -0.132507813 -0.989518905 0.0573935245
    outer loop
      vertex 0.00927921184 0.0115342383 0
      vertex 0.00989782596 0.0124954248 0.018
      vertex 0.00706704482 0.0128744985 0.018
    endloop
  endfacet
  facet normal -0.130502336 -0.989769981 0.0576586888
    outer loop
      vertex 0.00927921184 0.0115342383 0
      vertex 0.00706704482 0.0128744985 0.018
      vertex 0.00662535452 0.0118841525 0
    endloop
  endfacet
  facet normal -0.0177286618 -0.998308985 0.0553612183
    outer loop
      vertex 0.00662535452 0.0118841525 0
      vertex 0.00706704482 0.0128744985 0.018
      vertex 1.25201753e-10 0.013 0.018
    endloop
  endfacet
  facet normal -0.0174558999 -0.998308222 0.0554615679
    outer loop
      vertex 0.00662535452 0.0118841525 0
      vertex 1.25201753e-10 0.013 0.018
      vertex 1.17376644e-10 0.012 0
    endloop
  endfacet
  facet normal 0.0177285626 -0.998303432 0.0554613018
    outer loop
      vertex 1.17376644e-10 0.012 0
      vertex 1.25201753e-10 0.013 0.018
      vertex -0.00706704482 0.0128744985 0.018
    endloop
  endfacet
  facet normal 0.0174560028 -0.998314145 0.0553548116
    outer loop
      vertex 1.17376644e-10 0.012 0
      vertex -0.00706704482 0.0128744985 0.018
      vertex -0.00662535452 0.0118841525 0
    endloop
  endfacet
  facet normal 0.132505522 -0.989501791 0.057693088
    outer loop
      vertex -0.00662535452 0.0118841525 0
      vertex -0.00706704482 0.0128744985 0.018
      vertex -0.00989782596 0.0124954248 0.018
    endloop
  endfacet
  facet normal 0.130504743 -0.989788232 0.0573390659
    outer loop
      vertex -0.00662535452 0.0118841525 0
      vertex -0.00989782596 0.0124954248 0.018
      vertex -0.00927921184 0.0115342383 0
    endloop
  endfacet
  facet normal 0.300973312 -0.951669198 0.0611621083
    outer loop
      vertex -0.00927921184 0.0115342383 0
      vertex -0.00989782596 0.0124954248 0.018
      vertex -0.0119258534 0.0118540442 0.018
    endloop
  endfacet
  facet normal 0.296765939 -0.953027566 0.0605676087
    outer loop
      vertex -0.00927921184 0.0115342383 0
      vertex -0.0119258534 0.0118540442 0.018
      vertex -0.0111804876 0.0109421947 0
    endloop
  endfacet
  facet normal 0.515595608 -0.854390906 0.0646324067
    outer loop
      vertex -0.0111804876 0.0109421947 0
      vertex -0.0119258534 0.0118540442 0.018
      vertex -0.0134543426 0.0109316534 0.018
    endloop
  endfacet
  facet normal 0.509769308 -0.857935177 0.0638943222
    outer loop
      vertex -0.0111804876 0.0109421947 0
      vertex -0.0134543426 0.0109316534 0.018
      vertex -0.0126134462 0.010090757 0
    endloop
  endfacet
  facet normal 0.736485322 -0.673240058 0.0658573899
    outer loop
      vertex -0.0126134462 0.010090757 0
      vertex -0.0134543426 0.0109316534 0.018
      vertex -0.0145895929 0.0096897559 0.018
    endloop
  endfacet
  facet normal 0.73129546 -0.67894112 0.0651606088
    outer loop
      vertex -0.0126134462 0.010090757 0
      vertex -0.0145895929 0.0096897559 0.018
      vertex -0.0136777433 0.00894439006 0
    endloop
  endfacet
  facet normal 0.9000343 -0.431175718 0.0634488626
    outer loop
      vertex -0.0136777433 0.00894439006 0
      vertex -0.0145895929 0.0096897559 0.018
      vertex -0.0153789844 0.00804198359 0.018
    endloop
  endfacet
  facet normal 0.897429965 -0.436645696 0.0629284879
    outer loop
      vertex -0.0136777433 0.00894439006 0
      vertex -0.0153789844 0.00804198359 0.018
      vertex -0.0144177978 0.00742336947 0
    endloop
  endfacet
  facet normal 0.978329389 -0.198452124 0.0590623506
    outer loop
      vertex -0.0144177978 0.00742336947 0
      vertex -0.0153789844 0.00804198359 0.018
      vertex -0.0158455367 0.00574197391 0.018
    endloop
  endfacet
  facet normal 0.977739886 -0.201431491 0.0587372867
    outer loop
      vertex -0.0144177978 0.00742336947 0
      vertex -0.0158455367 0.00574197391 0.018
      vertex -0.0148551906 0.00530028361 0
    endloop
  endfacet
  facet normal 0.998093547 -0.0268494558 0.0555731743
    outer loop
      vertex -0.0148551906 0.00530028361 0
      vertex -0.0158455367 0.00574197391 0.018
      vertex -0.016 1.43862889e-10 0.018
    endloop
  endfacet
  facet normal 0.998089061 -0.027268856 0.0554493923
    outer loop
      vertex -0.0148551906 0.00530028361 0
      vertex -0.016 1.43862889e-10 0.018
      vertex -0.015 1.32796513e-10 0
    endloop
  endfacet
  facet normal 0.998100392 0.0268496386 0.0554500217
    outer loop
      vertex -0.015 1.32796513e-10 0
      vertex -0.016 1.43862889e-10 0.018
      vertex -0.0158455367 -0.00574197391 0.018
    endloop
  endfacet
  facet normal 0.998081646 0.0272686521 0.0555828059
    outer loop
      vertex -0.015 1.32796513e-10 0
      vertex -0.0158455367 -0.00574197391 0.018
      vertex -0.0148551906 -0.00530028361 0
    endloop
  endfacet
  facet normal 0.978350457 0.198456398 0.058697876
    outer loop
      vertex -0.0148551906 -0.00530028361 0
      vertex -0.0158455367 -0.00574197391 0.018
      vertex -0.0153789844 -0.00804198359 0.018
    endloop
  endfacet
  facet normal 0.97771707 0.20142679 0.0591318849
    outer loop
      vertex -0.0148551906 -0.00530028361 0
      vertex -0.0153789844 -0.00804198359 0.018
      vertex -0.0144177978 -0.00742336947 0
    endloop
  endfacet
  facet normal 0.900066666 0.431191224 0.0628818295
    outer loop
      vertex -0.0144177978 -0.00742336947 0
      vertex -0.0153789844 -0.00804198359 0.018
      vertex -0.0145895929 -0.0096897559 0.018
    endloop
  endfacet
  facet normal 0.897395068 0.436628717 0.063540968
    outer loop
      vertex -0.0144177978 -0.00742336947 0
      vertex -0.0145895929 -0.0096897559 0.018
      vertex -0.0136777433 -0.00894439006 0
    endloop
  endfacet
  facet normal 0.736517653 0.673269612 0.0651903035
    outer loop
      vertex -0.0136777433 -0.00894439006 0
      vertex -0.0145895929 -0.0096897559 0.018
      vertex -0.0134543426 -0.0109316534 0.018
    endloop
  endfacet
  facet normal 0.731260932 0.678909064 0.0658781608
    outer loop
      vertex -0.0136777433 -0.00894439006 0
      vertex -0.0134543426 -0.0109316534 0.018
      vertex -0.0126134462 -0.010090757 0
    endloop
  endfacet
  facet normal 0.51561655 0.854425609 0.06400353
    outer loop
      vertex -0.0126134462 -0.010090757 0
      vertex -0.0134543426 -0.0109316534 0.018
      vertex -0.0119258534 -0.0118540442 0.018
    endloop
  endfacet
  facet normal 0.509747163 0.857897906 0.0645678859
    outer loop
      vertex -0.0126134462 -0.010090757 0
      vertex -0.0119258534 -0.0118540442 0.018
      vertex -0.0111804876 -0.0109421947 0
    endloop
  endfacet
  facet normal 0.300982279 0.951697553 0.0606748278
    outer loop
      vertex -0.0111804876 -0.0109421947 0
      vertex -0.0119258534 -0.0118540442 0.018
      vertex -0.00989782596 -0.0124954248 0.018
    endloop
  endfacet
  facet normal 0.296756509 0.952997281 0.0610881061
    outer loop
      vertex -0.0111804876 -0.0109421947 0
      vertex -0.00989782596 -0.0124954248 0.018
      vertex -0.00927921184 -0.0115342383 0
    endloop
  endfacet
  facet normal 0.132507813 0.989518905 0.0573935245
    outer loop
      vertex -0.00927921184 -0.0115342383 0
      vertex -0.00989782596 -0.0124954248 0.018
      vertex -0.00706704482 -0.0128744985 0.018
    endloop
  endfacet
  facet normal 0.130502336 0.989769981 0.0576586888
    outer loop
      vertex -0.00927921184 -0.0115342383 0
      vertex -0.00706704482 -0.0128744985 0.018
      vertex -0.00662535452 -0.0118841525 0
    endloop
  endfacet
  facet normal 0.0177286621 0.998308985 0.0553612183
    outer loop
      vertex -0.00662535452 -0.0118841525 0
      vertex -0.00706704482 -0.0128744985 0.018
      vertex -2.16855798e-10 -0.013 0.018
    endloop
  endfacet
  facet normal 0.0174559001 0.998308222 0.0554615679
    outer loop
      vertex -0.00662535452 -0.0118841525 0
      vertex -2.16855798e-10 -0.013 0.018
      vertex -2.03302311e-10 -0.012 0
    endloop
  endfacet
  facet normal -0.0177285624 0.998303432 0.0554613018
    outer loop
      vertex -2.03302311e-10 -0.012 0
      vertex -2.16855798e-10 -0.013 0.018
      vertex 0.00706704482 -0.0128744985 0.018
    endloop
  endfacet
  facet normal -0.0174560026 0.998314145 0.0553548116
    outer loop
      vertex -2.03302311e-10 -0.012 0
      vertex 0.00706704482 -0.0128744985 0.018
      vertex 0.00662535452 -0.0118841525 0
    endloop
  endfacet
  facet normal -0.132505522 0.989501791 0.057693088
    outer loop
      vertex 0.00662535452 -0.0118841525 0
      vertex 0.00706704482 -0.0128744985 0.018
      vertex 0.00989782596 -0.0124954248 0.018
    endloop
  endfacet
  facet normal -0.130504743 0.989788232 0.0573390659
    outer loop
      vertex 0.00662535452 -0.0118841525 0
      vertex 0.00989782596 -0.0124954248 0.018
      vertex 0.00927921184 -0.0115342383 0
    endloop
  endfacet
  facet normal -0.300973312 0.951669198 0.0611621083
    outer loop
      vertex 0.00927921184 -0.0115342383 0
      vertex 0.00989782596 -0.0124954248 0.018
      vertex 0.0119258534 -0.0118540442 0.018
    endloop
  endfacet
  facet normal -0.296765939 0.953027566 0.0605676087
    outer loop
      vertex 0.00927921184 -0.0115342383 0
      vertex 0.0119258534 -0.0118540442 0.018
      vertex 0.0111804876 -0.0109421947 0
    endloop
  endfacet
  facet normal -0.515595608 0.854390906 0.0646324067
    outer loop
      vertex 0.0111804876 -0.0109421947 0
      vertex 0.0119258534 -0.0118540442 0.018
      vertex 0.0134543426 -0.0109316534 0.018
    endloop
  endfacet
  facet normal -0.509769308 0.857935177 0.0638943222
    outer loop
      vertex 0.0111804876 -0.0109421947 0
      vertex 0.0134543426 -0.0109316534 0.018
      vertex 0.0126134462 -0.010090757 0
    endloop
  endfacet
  facet normal -0.736485322 0.673240058 0.0658573899
    outer loop
      vertex 0.0126134462 -0.010090757 0
      vertex 0.0134543426 -0.0109316534 0.018
      vertex 0.0145895929 -0.0096897559 0.018
    endloop
  endfacet
  facet normal -0.73129546 0.67894112 0.0651606088
    outer loop
      vertex 0.0126134462 -0.010090757 0
      vertex 0.0145895929 -0.0096897559 0.018
      vertex 0.0136777433 -0.00894439006 0
    endloop
  endfacet
  facet normal -0.9000343 0.431175718 0.0634488626
    outer loop
      vertex 0.0136777433 -0.00894439006 0
      vertex 0.0145895929 -0.0096897559 0.018
      vertex 0.0153789844 -0.00804198359 0.018
    endloop
  endfacet
  facet normal -0.897429965 0.436645696 0.0629284879
    outer loop
      vertex 0.0136777433 -0.00894439006 0
      vertex 0.0153789844 -0.00804198359 0.018
      vertex 0.0144177978 -0.00742336947 0
    endloop
  endfacet
  facet normal -0.978329389 0.198452124 0.0590623506
    outer loop
      vertex 0.0144177978 -0.00742336947 0
      vertex 0.0153789844 -0.00804198359 0.018
      vertex 0.0158455367 -0.00574197391 0.018
    endloop
  endfacet
  facet normal -0.977739886 0.201431491 0.0587372867
    outer loop
      vertex 0.0144177978 -0.00742336947 0
      vertex 0.0158455367 -0.00574197391 0.018
      vertex 0.0148551906 -0.00530028361 0
    endloop
  endfacet
  facet normal -0.998093547 0.0268494552 0.0555731743
    outer loop
      vertex 0.0148551906 -0.00530028361 0
      vertex 0.0158455367 -0.00574197391 0.018
      vertex 0.016 0 0.018
    endloop
  endfacet
  facet normal -0.998089061 0.0272688553 0.0554493923
    outer loop
      vertex 0.0148551906 -0.00530028361 0
      vertex 0.016 0 0.018
      vertex 0.015 0 0
    endloop
  endfacet
  facet normal -0.999349484 -0.0277997149 -0.0229735514
    outer loop
      vertex 0.016 0 0.018
      vertex 0.014 0 0.105
      vertex 0.0138648446 0.00485859331 0.105
    endloop
  endfacet
  facet normal -0.99937335 -0.0268838828 -0.0230252826
    outer loop
      vertex 0.016 0 0.018
      vertex 0.0138648446 0.00485859331 0.105
      vertex 0.0158455367 0.00574197391 0.018
    endloop
  endfacet
  facet normal -0.978409675 -0.205234379 -0.0243589467
    outer loop
      vertex 0.0158455367 0.00574197391 0.018
      vertex 0.0138648446 0.00485859331 0.105
      vertex 0.0134566113 0.00680475535 0.105
    endloop
  endfacet
  facet normal -0.979746671 -0.198739617 -0.0244749984
    outer loop
      vertex 0.0158455367 0.00574197391 0.018
      vertex 0.0134566113 0.00680475535 0.105
      vertex 0.0153789844 0.00804198359 0.018
    endloop
  endfacet
  facet normal -0.895765367 -0.443760071 -0.0261037666
    outer loop
      vertex 0.0153789844 0.00804198359 0.018
      vertex 0.0134566113 0.00680475535 0.105
      vertex 0.0127658938 0.00819902422 0.105
    endloop
  endfacet
  facet normal -0.901539527 -0.431896821 -0.0262986104
    outer loop
      vertex 0.0153789844 0.00804198359 0.018
      vertex 0.0127658938 0.00819902422 0.105
      vertex 0.0145895929 0.0096897559 0.018
    endloop
  endfacet
  facet normal -0.726441915 -0.686697502 -0.0269941746
    outer loop
      vertex 0.0145895929 0.0096897559 0.018
      vertex 0.0127658938 0.00819902422 0.105
      vertex 0.0117725498 0.00924986057 0.105
    endloop
  endfacet
  facet normal -0.737812572 -0.674453331 -0.0273004445
    outer loop
      vertex 0.0145895929 0.0096897559 0.018
      vertex 0.0117725498 0.00924986057 0.105
      vertex 0.0134543426 0.0109316534 0.018
    endloop
  endfacet
  facet normal -0.503848248 -0.863387746 -0.0264299735
    outer loop
      vertex 0.0134543426 0.0109316534 0.018
      vertex 0.0117725498 0.00924986057 0.105
      vertex 0.0104351217 0.0100303451 0.105
    endloop
  endfacet
  facet normal -0.51649045 -0.855873744 -0.0267908605
    outer loop
      vertex 0.0134543426 0.0109316534 0.018
      vertex 0.0104351217 0.0100303451 0.105
      vertex 0.0119258534 0.0118540442 0.018
    endloop
  endfacet
  facet normal -0.292368746 -0.955977545 -0.0250489512
    outer loop
      vertex 0.0119258534 0.0118540442 0.018
      vertex 0.0104351217 0.0100303451 0.105
      vertex 0.00866059771 0.0105730518 0.105
    endloop
  endfacet
  facet normal -0.301440951 -0.95314786 -0.0253477818
    outer loop
      vertex 0.0119258534 0.0118540442 0.018
      vertex 0.00866059771 0.0105730518 0.105
      vertex 0.00989782596 0.0124954248 0.018
    endloop
  endfacet
  facet normal -0.128388196 -0.991439973 -0.0237329079
    outer loop
      vertex 0.00989782596 0.0124954248 0.018
      vertex 0.00866059771 0.0105730518 0.105
      vertex 0.00618366421 0.0108938064 0.105
    endloop
  endfacet
  facet normal -0.132688664 -0.990869427 -0.0239059979
    outer loop
      vertex 0.00989782596 0.0124954248 0.018
      vertex 0.00618366421 0.0108938064 0.105
      vertex 0.00706704482 0.0128744985 0.018
    endloop
  endfacet
  facet normal -0.0171661936 -0.999589649 -0.0229315355
    outer loop
      vertex 0.00706704482 0.0128744985 0.018
      vertex 0.00618366421 0.0108938064 0.105
      vertex 1.09551534e-10 0.011 0.105
    endloop
  endfacet
  facet normal -0.017751204 -0.999578346 -0.0229788125
    outer loop
      vertex 0.00706704482 0.0128744985 0.018
      vertex 1.09551534e-10 0.011 0.105
      vertex 1.25201753e-10 0.013 0.018
    endloop
  endfacet
  facet normal 0.0171661743 -0.999588558 -0.0229790473
    outer loop
      vertex 1.25201753e-10 0.013 0.018
      vertex 1.09551534e-10 0.011 0.105
      vertex -0.00618366421 0.0108938064 0.105
    endloop
  endfacet
  facet normal 0.0177512203 -0.9995793 -0.0229372401
    outer loop
      vertex 1.25201753e-10 0.013 0.018
      vertex -0.00618366421 0.0108938064 0.105
      vertex -0.00706704482 0.0128744985 0.018
    endloop
  endfacet
  facet normal 0.128387761 -0.991436612 -0.0238752403
    outer loop
      vertex -0.00706704482 0.0128744985 0.018
      vertex -0.00618366421 0.0108938064 0.105
      vertex -0.00866059771 0.0105730518 0.105
    endloop
  endfacet
  facet normal 0.132689058 -0.99087237 -0.0237815286
    outer loop
      vertex -0.00706704482 0.0128744985 0.018
      vertex -0.00866059771 0.0105730518 0.105
      vertex -0.00989782596 0.0124954248 0.018
    endloop
  endfacet
  facet normal 0.292367037 -0.955971955 -0.0252811434
    outer loop
      vertex -0.00989782596 0.0124954248 0.018
      vertex -0.00866059771 0.0105730518 0.105
      vertex -0.0104351217 0.0100303451 0.105
    endloop
  endfacet
  facet normal 0.301442494 -0.953152738 -0.0251452147
    outer loop
      vertex -0.00989782596 0.0124954248 0.018
      vertex -0.0104351217 0.0100303451 0.105
      vertex -0.0119258534 0.0118540442 0.018
    endloop
  endfacet
  facet normal 0.503844206 -0.863380821 -0.0267315328
    outer loop
      vertex -0.0119258534 0.0118540442 0.018
      vertex -0.0104351217 0.0100303451 0.105
      vertex -0.0117725498 0.00924986057 0.105
    endloop
  endfacet
  facet normal 0.516494054 -0.855879716 -0.0265292916
    outer loop
      vertex -0.0119258534 0.0118540442 0.018
      vertex -0.0117725498 0.00924986057 0.105
      vertex -0.0134543426 0.0109316534 0.018
    endloop
  endfacet
  facet normal 0.72643554 -0.686691476 -0.0273170906
    outer loop
      vertex -0.0134543426 0.0109316534 0.018
      vertex -0.0117725498 0.00924986057 0.105
      vertex -0.0127658938 0.00819902422 0.105
    endloop
  endfacet
  facet normal 0.737818137 -0.674458418 -0.0270229288
    outer loop
      vertex -0.0134543426 0.0109316534 0.018
      vertex -0.0127658938 0.00819902422 0.105
      vertex -0.0145895929 0.0096897559 0.018
    endloop
  endfacet
  facet normal 0.895758854 -0.443756844 -0.0263806553
    outer loop
      vertex -0.0145895929 0.0096897559 0.018
      vertex -0.0127658938 0.00819902422 0.105
      vertex -0.0134566113 0.00680475535 0.105
    endloop
  endfacet
  facet normal 0.901545097 -0.431899489 -0.0260628074
    outer loop
      vertex -0.0145895929 0.0096897559 0.018
      vertex -0.0134566113 0.00680475535 0.105
      vertex -0.0153789844 0.00804198359 0.018
    endloop
  endfacet
  facet normal 0.978405396 -0.205233481 -0.0245377106
    outer loop
      vertex -0.0153789844 0.00804198359 0.018
      vertex -0.0134566113 0.00680475535 0.105
      vertex -0.0138648446 0.00485859331 0.105
    endloop
  endfacet
  facet normal 0.979750294 -0.198740352 -0.024323529
    outer loop
      vertex -0.0153789844 0.00804198359 0.018
      vertex -0.0138648446 0.00485859331 0.105
      vertex -0.0158455367 0.00574197391 0.018
    endloop
  endfacet
  facet normal 0.999348094 -0.0277996769 -0.0230340063
    outer loop
      vertex -0.0158455367 0.00574197391 0.018
      vertex -0.0138648446 0.00485859331 0.105
      vertex -0.014 1.21730137e-10 0.105
    endloop
  endfacet
  facet normal 0.999374527 -0.0268839151 -0.0229741271
    outer loop
      vertex -0.0158455367 0.00574197391 0.018
      vertex -0.014 1.21730137e-10 0.105
      vertex -0.016 1.43862889e-10 0.018
    endloop
  endfacet
  facet normal 0.999349484 0.0277997142 -0.0229735514
    outer loop
      vertex -0.016 1.43862889e-10 0.018
      vertex -0.014 1.21730137e-10 0.105
      vertex -0.0138648446 -0.00485859331 0.105
    endloop
  endfacet
  facet normal 0.99937335 0.0268838821 -0.0230252825
    outer loop
      vertex -0.016 1.43862889e-10 0.018
      vertex -0.0138648446 -0.00485859331 0.105
      vertex -0.0158455367 -0.00574197391 0.018
    endloop
  endfacet
  facet normal 0.978409675 0.205234379 -0.0243589467
    outer loop
      vertex -0.0158455367 -0.00574197391 0.018
      vertex -0.0138648446 -0.00485859331 0.105
      vertex -0.0134566113 -0.00680475535 0.105
    endloop
  endfacet
  facet normal 0.979746671 0.198739617 -0.0244749984
    outer loop
      vertex -0.0158455367 -0.00574197391 0.018
      vertex -0.0134566113 -0.00680475535 0.105
      vertex -0.0153789844 -0.00804198359 0.018
    endloop
  endfacet
  facet normal 0.895765367 0.443760071 -0.0261037666
    outer loop
      vertex -0.0153789844 -0.00804198359 0.018
      vertex -0.0134566113 -0.00680475535 0.105
      vertex -0.0127658938 -0.00819902422 0.105
    endloop
  endfacet
  facet normal 0.901539527 0.431896821 -0.0262986104
    outer loop
      vertex -0.0153789844 -0.00804198359 0.018
      vertex -0.0127658938 -0.00819902422 0.105
      vertex -0.0145895929 -0.0096897559 0.018
    endloop
  endfacet
  facet normal 0.726441915 0.686697502 -0.0269941746
    outer loop
      vertex -0.0145895929 -0.0096897559 0.018
      vertex -0.0127658938 -0.00819902422 0.105
      vertex -0.0117725498 -0.00924986057 0.105
    endloop
  endfacet
  facet normal 0.737812572 0.674453331 -0.0273004445
    outer loop
      vertex -0.0145895929 -0.0096897559 0.018
      vertex -0.0117725498 -0.00924986057 0.105
      vertex -0.0134543426 -0.0109316534 0.018
    endloop
  endfacet
  facet normal 0.503848248 0.863387746 -0.0264299735
    outer loop
      vertex -0.0134543426 -0.0109316534 0.018
      vertex -0.0117725498 -0.00924986057 0.105
      vertex -0.0104351217 -0.0100303451 0.105
    endloop
  endfacet
  facet normal 0.51649045 0.855873744 -0.0267908605
    outer loop
      vertex -0.0134543426 -0.0109316534 0.018
      vertex -0.0104351217 -0.0100303451 0.105
      vertex -0.0119258534 -0.0118540442 0.018
    endloop
  endfacet
  facet normal 0.292368746 0.955977545 -0.0250489512
    outer loop
      vertex -0.0119258534 -0.0118540442 0.018
      vertex -0.0104351217 -0.0100303451 0.105
      vertex -0.00866059771 -0.0105730518 0.105
    endloop
  endfacet
  facet normal 0.301440951 0.95314786 -0.0253477818
    outer loop
      vertex -0.0119258534 -0.0118540442 0.018
      vertex -0.00866059771 -0.0105730518 0.105
      vertex -0.00989782596 -0.0124954248 0.018
    endloop
  endfacet
  facet normal 0.128388196 0.991439973 -0.0237329079
    outer loop
      vertex -0.00989782596 -0.0124954248 0.018
      vertex -0.00866059771 -0.0105730518 0.105
      vertex -0.00618366421 -0.0108938064 0.105
    endloop
  endfacet
  facet normal 0.132688664 0.990869427 -0.0239059979
    outer loop
      vertex -0.00989782596 -0.0124954248 0.018
      vertex -0.00618366421 -0.0108938064 0.105
      vertex -0.00706704482 -0.0128744985 0.018
    endloop
  endfacet
  facet normal 0.0171661938 0.999589649 -0.0229315355
    outer loop
      vertex -0.00706704482 -0.0128744985 0.018
      vertex -0.00618366421 -0.0108938064 0.105
      vertex -1.89748823e-10 -0.011 0.105
    endloop
  endfacet
  facet normal 0.0177512043 0.999578346 -0.0229788125
    outer loop
      vertex -0.00706704482 -0.0128744985 0.018
      vertex -1.89748823e-10 -0.011 0.105
      vertex -2.16855798e-10 -0.013 0.018
    endloop
  endfacet
  facet normal -0.0171661741 0.999588558 -0.0229790473
    outer loop
      vertex -2.16855798e-10 -0.013 0.018
      vertex -1.89748823e-10 -0.011 0.105
      vertex 0.00618366421 -0.0108938064 0.105
    endloop
  endfacet
  facet normal -0.0177512201 0.9995793 -0.0229372401
    outer loop
      vertex -2.16855798e-10 -0.013 0.018
      vertex 0.00618366421 -0.0108938064 0.105
      vertex 0.00706704482 -0.0128744985 0.018
    endloop
  endfacet
  facet normal -0.128387761 0.991436612 -0.0238752403
    outer loop
      vertex 0.00706704482 -0.0128744985 0.018
      vertex 0.00618366421 -0.0108938064 0.105
      vertex 0.00866059771 -0.0105730518 0.105
    endloop
  endfacet
  facet normal -0.132689058 0.99087237 -0.0237815286
    outer loop
      vertex 0.00706704482 -0.0128744985 0.018
      vertex 0.00866059771 -0.0105730518 0.105
      vertex 0.00989782596 -0.0124954248 0.018
    endloop
  endfacet
  facet normal -0.292367037 0.955971955 -0.0252811434
    outer loop
      vertex 0.00989782596 -0.0124954248 0.018
      vertex 0.00866059771 -0.0105730518 0.105
      vertex 0.0104351217 -0.0100303451 0.105
    endloop
  endfacet
  facet normal -0.301442494 0.953152738 -0.0251452147
    outer loop
      vertex 0.00989782596 -0.0124954248 0.018
      vertex 0.0104351217 -0.0100303451 0.105
      vertex 0.0119258534 -0.0118540442 0.018
    endloop
  endfacet
  facet normal -0.503844206 0.863380821 -0.0267315328
    outer loop
      vertex 0.0119258534 -0.0118540442 0.018
      vertex 0.0104351217 -0.0100303451 0.105
      vertex 0.0117725498 -0.00924986057 0.105
    endloop
  endfacet
  facet normal -0.516494054 0.855879716 -0.0265292916
    outer loop
      vertex 0.0119258534 -0.0118540442 0.018
      vertex 0.0117725498 -0.00924986057 0.105
      vertex 0.0134543426 -0.0109316534 0.018
    endloop
  endfacet
  facet normal -0.72643554 0.686691476 -0.0273170906
    outer loop
      vertex 0.0134543426 -0.0109316534 0.018
      vertex 0.0117725498 -0.00924986057 0.105
      vertex 0.0127658938 -0.00819902422 0.105
    endloop
  endfacet
  facet normal -0.737818137 0.674458418 -0.0270229288
    outer loop
      vertex 0.0134543426 -0.0109316534 0.018
      vertex 0.0127658938 -0.00819902422 0.105
      vertex 0.0145895929 -0.0096897559 0.018
    endloop
  endfacet
  facet normal -0.895758854 0.443756844 -0.0263806553
    outer loop
      vertex 0.0145895929 -0.0096897559 0.018
      vertex 0.0127658938 -0.00819902422 0.105
      vertex 0.0134566113 -0.00680475535 0.105
    endloop
  endfacet
  facet normal -0.901545097 0.431899489 -0.0260628074
    outer loop
      vertex 0.0145895929 -0.0096897559 0.018
      vertex 0.0134566113 -0.00680475535 0.105
      vertex 0.0153789844 -0.00804198359 0.018
    endloop
  endfacet
  facet normal -0.978405396 0.205233481 -0.0245377106
    outer loop
      vertex 0.0153789844 -0.00804198359 0.018
      vertex 0.0134566113 -0.00680475535 0.105
      vertex 0.0138648446 -0.00485859331 0.105
    endloop
  endfacet
  facet normal -0.979750294 0.198740352 -0.024323529
    outer loop
      vertex 0.0153789844 -0.00804198359 0.018
      vertex 0.0138648446 -0.00485859331 0.105
      vertex 0.0158455367 -0.00574197391 0.018
    endloop
  endfacet
  facet normal -0.999348094 0.0277996762 -0.0230340063
    outer loop
      vertex 0.0158455367 -0.00574197391 0.018
      vertex 0.0138648446 -0.00485859331 0.105
      vertex 0.014 0 0.105
    endloop
  endfacet
  facet normal -0.999374527 0.0268839145 -0.0229741271
    outer loop
      vertex 0.0158455367 -0.00574197391 0.018
      vertex 0.014 0 0.105
      vertex 0.016 0 0.018
    endloop
  endfacet
  facet normal -0.995993916 -0.0266069112 -0.0853709071
    outer loop
      vertex 0.014 0 0.105
      vertex 0.011 0 0.14
      vertex 0.0108938064 0.00397521271 0.14
    endloop
  endfacet
  facet normal -0.995974789 -0.0277058383 -0.0852443962
    outer loop
      vertex 0.014 0 0.105
      vertex 0.0108938064 0.00397521271 0.14
      vertex 0.0138648446 0.00485859331 0.105
    endloop
  endfacet
  facet normal -0.976517532 -0.196709005 -0.0878582781
    outer loop
      vertex 0.0138648446 0.00485859331 0.105
      vertex 0.0108938064 0.00397521271 0.14
      vertex 0.0105730518 0.0055675271 0.14
    endloop
  endfacet
  facet normal -0.97494181 -0.204506948 -0.0875521302
    outer loop
      vertex 0.0138648446 0.00485859331 0.105
      vertex 0.0105730518 0.0055675271 0.14
      vertex 0.0134566113 0.00680475535 0.105
    endloop
  endfacet
  facet normal -0.899416911 -0.427887726 -0.0892262006
    outer loop
      vertex 0.0134566113 0.00680475535 0.105
      vertex 0.0105730518 0.0055675271 0.14
      vertex 0.0100303451 0.00670829255 0.14
    endloop
  endfacet
  facet normal -0.892547277 -0.442165837 -0.088593061
    outer loop
      vertex 0.0134566113 0.00680475535 0.105
      vertex 0.0100303451 0.00670829255 0.14
      vertex 0.0127658938 0.00819902422 0.105
    endloop
  endfacet
  facet normal -0.737669461 -0.669639714 -0.0861766812
    outer loop
      vertex 0.0127658938 0.00819902422 0.105
      vertex 0.0100303451 0.00670829255 0.14
      vertex 0.00924986057 0.00756806774 0.14
    endloop
  endfacet
  facet normal -0.72407192 -0.684457172 -0.0850778174
    outer loop
      vertex 0.0127658938 0.00819902422 0.105
      vertex 0.00924986057 0.00756806774 0.14
      vertex 0.0117725498 0.00924986057 0.105
    endloop
  endfacet
  facet normal -0.517724578 -0.851961042 -0.0782537199
    outer loop
      vertex 0.0117725498 0.00924986057 0.105
      vertex 0.00924986057 0.00756806774 0.14
      vertex 0.00819902422 0.008206646 0.14
    endloop
  endfacet
  facet normal -0.502528875 -0.861126886 -0.0769754259
    outer loop
      vertex 0.0117725498 0.00924986057 0.105
      vertex 0.00819902422 0.008206646 0.14
      vertex 0.0104351217 0.0100303451 0.105
    endloop
  endfacet
  facet normal -0.302732387 -0.950583903 -0.0688719473
    outer loop
      vertex 0.0104351217 0.0100303451 0.105
      vertex 0.00819902422 0.008206646 0.14
      vertex 0.00680475535 0.00865067871 0.14
    endloop
  endfacet
  facet normal -0.291786069 -0.954072326 -0.0678740535
    outer loop
      vertex 0.0104351217 0.0100303451 0.105
      vertex 0.00680475535 0.00865067871 0.14
      vertex 0.00866059771 0.0105730518 0.105
    endloop
  endfacet
  facet normal -0.133386072 -0.98916021 -0.0614022414
    outer loop
      vertex 0.00866059771 0.0105730518 0.105
      vertex 0.00680475535 0.00865067871 0.14
      vertex 0.00485859331 0.00891311437 0.14
    endloop
  endfacet
  facet normal -0.12818622 -0.98988027 -0.0608715383
    outer loop
      vertex 0.00866059771 0.0105730518 0.105
      vertex 0.00485859331 0.00891311437 0.14
      vertex 0.00618366421 0.0108938064 0.105
    endloop
  endfacet
  facet normal -0.0178507811 -0.99820512 -0.0571654436
    outer loop
      vertex 0.00618366421 0.0108938064 0.105
      vertex 0.00485859331 0.00891311437 0.14
      vertex 8.60762054e-11 0.009 0.14
    endloop
  endfacet
  facet normal -0.0171427517 -0.998224626 -0.0570414072
    outer loop
      vertex 0.00618366421 0.0108938064 0.105
      vertex 8.60762054e-11 0.009 0.14
      vertex 1.09551534e-10 0.011 0.105
    endloop
  endfacet
  facet normal 0.017850908 -0.998212254 -0.0570407002
    outer loop
      vertex 1.09551534e-10 0.011 0.105
      vertex 8.60762054e-11 0.009 0.14
      vertex -0.00485859331 0.00891311437 0.14
    endloop
  endfacet
  facet normal 0.0171426549 -0.998219022 -0.0571394213
    outer loop
      vertex 1.09551534e-10 0.011 0.105
      vertex -0.00485859331 0.00891311437 0.14
      vertex -0.00618366421 0.0108938064 0.105
    endloop
  endfacet
  facet normal 0.133389131 -0.989182892 -0.0610290508
    outer loop
      vertex -0.00618366421 0.0108938064 0.105
      vertex -0.00485859331 0.00891311437 0.14
      vertex -0.00680475535 0.00865067871 0.14
    endloop
  endfacet
  facet normal 0.128183916 -0.98986248 -0.0611649741
    outer loop
      vertex -0.00618366421 0.0108938064 0.105
      vertex -0.00680475535 0.00865067871 0.14
      vertex -0.00866059771 0.0105730518 0.105
    endloop
  endfacet
  facet normal 0.30274503 -0.950623605 -0.0682657214
    outer loop
      vertex -0.00866059771 0.0105730518 0.105
      vertex -0.00680475535 0.00865067871 0.14
      vertex -0.00819902422 0.008206646 0.14
    endloop
  endfacet
  facet normal 0.291776523 -0.954041114 -0.068352134
    outer loop
      vertex -0.00866059771 0.0105730518 0.105
      vertex -0.00819902422 0.008206646 0.14
      vertex -0.0104351217 0.0100303451 0.105
    endloop
  endfacet
  facet normal 0.517756227 -0.852013123 -0.0774733997
    outer loop
      vertex -0.0104351217 0.0100303451 0.105
      vertex -0.00819902422 0.008206646 0.14
      vertex -0.00924986057 0.00756806774 0.14
    endloop
  endfacet
  facet normal 0.502504662 -0.861085395 -0.0775951528
    outer loop
      vertex -0.0104351217 0.0100303451 0.105
      vertex -0.00924986057 0.00756806774 0.14
      vertex -0.0117725498 0.00924986057 0.105
    endloop
  endfacet
  facet normal 0.737722025 -0.669687431 -0.0853519697
    outer loop
      vertex -0.0117725498 0.00924986057 0.105
      vertex -0.00924986057 0.00756806774 0.14
      vertex -0.0100303451 0.00670829255 0.14
    endloop
  endfacet
  facet normal 0.72403066 -0.68441817 -0.0857401415
    outer loop
      vertex -0.0117725498 0.00924986057 0.105
      vertex -0.0100303451 0.00670829255 0.14
      vertex -0.0127658938 0.00819902422 0.105
    endloop
  endfacet
  facet normal 0.899473218 -0.427914514 -0.0885273853
    outer loop
      vertex -0.0127658938 0.00819902422 0.105
      vertex -0.0100303451 0.00670829255 0.14
      vertex -0.0105730518 0.0055675271 0.14
    endloop
  endfacet
  facet normal 0.892501913 -0.442143364 -0.0891604198
    outer loop
      vertex -0.0127658938 0.00819902422 0.105
      vertex -0.0105730518 0.0055675271 0.14
      vertex -0.0134566113 0.00680475535 0.105
    endloop
  endfacet
  facet normal 0.976556212 -0.196716797 -0.0874097597
    outer loop
      vertex -0.0134566113 0.00680475535 0.105
      vertex -0.0105730518 0.0055675271 0.14
      vertex -0.0108938064 0.00397521271 0.14
    endloop
  endfacet
  facet normal 0.97491023 -0.204500324 -0.087918488
    outer loop
      vertex -0.0134566113 0.00680475535 0.105
      vertex -0.0108938064 0.00397521271 0.14
      vertex -0.0138648446 0.00485859331 0.105
    endloop
  endfacet
  facet normal 0.996006882 -0.0266072583 -0.0852193929
    outer loop
      vertex -0.0138648446 0.00485859331 0.105
      vertex -0.0108938064 0.00397521271 0.14
      vertex -0.011 9.95973849e-11 0.14
    endloop
  endfacet
  facet normal 0.995964179 -0.0277055438 -0.0853683582
    outer loop
      vertex -0.0138648446 0.00485859331 0.105
      vertex -0.011 9.95973849e-11 0.14
      vertex -0.014 1.21730137e-10 0.105
    endloop
  endfacet
  facet normal 0.995993916 0.0266069105 -0.0853709071
    outer loop
      vertex -0.014 1.21730137e-10 0.105
      vertex -0.011 9.95973849e-11 0.14
      vertex -0.0108938064 -0.00397521271 0.14
    endloop
  endfacet
  facet normal 0.995974789 0.0277058376 -0.0852443961
    outer loop
      vertex -0.014 1.21730137e-10 0.105
      vertex -0.0108938064 -0.00397521271 0.14
      vertex -0.0138648446 -0.00485859331 0.105
    endloop
  endfacet
  facet normal 0.976517532 0.196709005 -0.0878582781
    outer loop
      vertex -0.0138648446 -0.00485859331 0.105
      vertex -0.0108938064 -0.00397521271 0.14
      vertex -0.0105730518 -0.0055675271 0.14
    endloop
  endfacet
  facet normal 0.97494181 0.204506948 -0.0875521302
    outer loop
      vertex -0.0138648446 -0.00485859331 0.105
      vertex -0.0105730518 -0.0055675271 0.14
      vertex -0.0134566113 -0.00680475535 0.105
    endloop
  endfacet
  facet normal 0.899416911 0.427887726 -0.0892262006
    outer loop
      vertex -0.0134566113 -0.00680475535 0.105
      vertex -0.0105730518 -0.0055675271 0.14
      vertex -0.0100303451 -0.00670829255 0.14
    endloop
  endfacet
  facet normal 0.892547277 0.442165837 -0.088593061
    outer loop
      vertex -0.0134566113 -0.00680475535 0.105
      vertex -0.0100303451 -0.00670829255 0.14
      vertex -0.0127658938 -0.00819902422 0.105
    endloop
  endfacet
  facet normal 0.737669461 0.669639714 -0.0861766812
    outer loop
      vertex -0.0127658938 -0.00819902422 0.105
      vertex -0.0100303451 -0.00670829255 0.14
      vertex -0.00924986057 -0.00756806774 0.14
    endloop
  endfacet
  facet normal 0.72407192 0.684457172 -0.0850778174
    outer loop
      vertex -0.0127658938 -0.00819902422 0.105
      vertex -0.00924986057 -0.00756806774 0.14
      vertex -0.0117725498 -0.00924986057 0.105
    endloop
  endfacet
  facet normal 0.517724578 0.851961042 -0.0782537199
    outer loop
      vertex -0.0117725498 -0.00924986057 0.105
      vertex -0.00924986057 -0.00756806774 0.14
      vertex -0.00819902422 -0.008206646 0.14
    endloop
  endfacet
  facet normal 0.502528875 0.861126886 -0.0769754259
    outer loop
      vertex -0.0117725498 -0.00924986057 0.105
      vertex -0.00819902422 -0.008206646 0.14
      vertex -0.0104351217 -0.0100303451 0.105
    endloop
  endfacet
  facet normal 0.302732387 0.950583903 -0.0688719473
    outer loop
      vertex -0.0104351217 -0.0100303451 0.105
      vertex -0.00819902422 -0.008206646 0.14
      vertex -0.00680475535 -0.00865067871 0.14
    endloop
  endfacet
  facet normal 0.291786069 0.954072326 -0.0678740535
    outer loop
      vertex -0.0104351217 -0.0100303451 0.105
      vertex -0.00680475535 -0.00865067871 0.14
      vertex -0.00866059771 -0.0105730518 0.105
    endloop
  endfacet
  facet normal 0.133386072 0.98916021 -0.0614022414
    outer loop
      vertex -0.00866059771 -0.0105730518 0.105
      vertex -0.00680475535 -0.00865067871 0.14
      vertex -0.00485859331 -0.00891311437 0.14
    endloop
  endfacet
  facet normal 0.12818622 0.98988027 -0.0608715383
    outer loop
      vertex -0.00866059771 -0.0105730518 0.105
      vertex -0.00485859331 -0.00891311437 0.14
      vertex -0.00618366421 -0.0108938064 0.105
    endloop
  endfacet
  facet normal 0.0178507813 0.99820512 -0.0571654437
    outer loop
      vertex -0.00618366421 -0.0108938064 0.105
      vertex -0.00485859331 -0.00891311437 0.14
      vertex -1.49088361e-10 -0.009 0.14
    endloop
  endfacet
  facet normal 0.017142752 0.998224626 -0.0570414072
    outer loop
      vertex -0.00618366421 -0.0108938064 0.105
      vertex -1.49088361e-10 -0.009 0.14
      vertex -1.89748823e-10 -0.011 0.105
    endloop
  endfacet
  facet normal -0.0178509078 0.998212254 -0.0570407002
    outer loop
      vertex -1.89748823e-10 -0.011 0.105
      vertex -1.49088361e-10 -0.009 0.14
      vertex 0.00485859331 -0.00891311437 0.14
    endloop
  endfacet
  facet normal -0.0171426547 0.998219022 -0.0571394213
    outer loop
      vertex -1.89748823e-10 -0.011 0.105
      vertex 0.00485859331 -0.00891311437 0.14
      vertex 0.00618366421 -0.0108938064 0.105
    endloop
  endfacet
  facet normal -0.133389131 0.989182892 -0.0610290508
    outer loop
      vertex 0.00618366421 -0.0108938064 0.105
      vertex 0.00485859331 -0.00891311437 0.14
      vertex 0.00680475535 -0.00865067871 0.14
    endloop
  endfacet
  facet normal -0.128183916 0.98986248 -0.0611649741
    outer loop
      vertex 0.00618366421 -0.0108938064 0.105
      vertex 0.00680475535 -0.00865067871 0.14
      vertex 0.00866059771 -0.0105730518 0.105
    endloop
  endfacet
  facet normal -0.30274503 0.950623605 -0.0682657214
    outer loop
      vertex 0.00866059771 -0.0105730518 0.105
      vertex 0.00680475535 -0.00865067871 0.14
      vertex 0.00819902422 -0.008206646 0.14
    endloop
  endfacet
  facet normal -0.291776523 0.954041114 -0.068352134
    outer loop
      vertex 0.00866059771 -0.0105730518 0.105
      vertex 0.00819902422 -0.008206646 0.14
      vertex 0.0104351217 -0.0100303451 0.105
    endloop
  endfacet
  facet normal -0.517756227 0.852013123 -0.0774733997
    outer loop
      vertex 0.0104351217 -0.0100303451 0.105
      vertex 0.00819902422 -0.008206646 0.14
      vertex 0.00924986057 -0.00756806774 0.14
    endloop
  endfacet
  facet normal -0.502504662 0.861085395 -0.0775951528
    outer loop
      vertex 0.0104351217 -0.0100303451 0.105
      vertex 0.00924986057 -0.00756806774 0.14
      vertex 0.0117725498 -0.00924986057 0.105
    endloop
  endfacet
  facet normal -0.737722025 0.669687431 -0.0853519697
    outer loop
      vertex 0.0117725498 -0.00924986057 0.105
      vertex 0.00924986057 -0.00756806774 0.14
      vertex 0.0100303451 -0.00670829255 0.14
    endloop
  endfacet
  facet normal -0.72403066 0.68441817 -0.0857401415
    outer loop
      vertex 0.0117725498 -0.00924986057 0.105
      vertex 0.0100303451 -0.00670829255 0.14
      vertex 0.0127658938 -0.00819902422 0.105
    endloop
  endfacet
  facet normal -0.899473218 0.427914514 -0.0885273853
    outer loop
      vertex 0.0127658938 -0.00819902422 0.105
      vertex 0.0100303451 -0.00670829255 0.14
      vertex 0.0105730518 -0.0055675271 0.14
    endloop
  endfacet
  facet normal -0.892501913 0.442143364 -0.0891604198
    outer loop
      vertex 0.0127658938 -0.00819902422 0.105
      vertex 0.0105730518 -0.0055675271 0.14
      vertex 0.0134566113 -0.00680475535 0.105
    endloop
  endfacet
  facet normal -0.976556212 0.196716797 -0.0874097597
    outer loop
      vertex 0.0134566113 -0.00680475535 0.105
      vertex 0.0105730518 -0.0055675271 0.14
      vertex 0.0108938064 -0.00397521271 0.14
    endloop
  endfacet
  facet normal -0.97491023 0.204500324 -0.087918488
    outer loop
      vertex 0.0134566113 -0.00680475535 0.105
      vertex 0.0108938064 -0.00397521271 0.14
      vertex 0.0138648446 -0.00485859331 0.105
    endloop
  endfacet
  facet normal -0.996006882 0.0266072576 -0.0852193929
    outer loop
      vertex 0.0138648446 -0.00485859331 0.105
      vertex 0.0108938064 -0.00397521271 0.14
      vertex 0.011 0 0.14
    endloop
  endfacet
  facet normal -0.995964179 0.0277055431 -0.0853683582
    outer loop
      vertex 0.0138648446 -0.00485859331 0.105
      vertex 0.011 0 0.14
      vertex 0.014 0 0.105
    endloop
  endfacet
  facet normal 0 0 -1
    outer loop
      vertex 0 0 0
      vertex 0.0148551906 0.00530028361 0
      vertex 0.015 0 0
    endloop
  endfacet
  facet normal 0 0 1
    outer loop
      vertex 0 0 0.14
      vertex 0.011 0 0.14
      vertex 0.0108938064 0.00397521271 0.14
    endloop
  endfacet
  facet normal 0 0 -1
    outer loop
      vertex 0 0 0
      vertex 0.0144177978 0.00742336947 0
      vertex 0.0148551906 0.00530028361 0
    endloop
  endfacet
  facet normal 0 0 1
    outer loop
      vertex 0 0 0.14
      vertex 0.0108938064 0.00397521271 0.14
      vertex 0.0105730518 0.0055675271 0.14
    endloop
  endfacet
  facet normal 0 0 -1
    outer loop
      vertex 0 0 0
      vertex 0.0136777433 0.00894439006 0
      vertex 0.0144177978 0.00742336947 0
    endloop
  endfacet
  facet normal 0 0 1
    outer loop
      vertex 0 0 0.14
      vertex 0.0105730518 0.0055675271 0.14
      vertex 0.0100303451 0.00670829255 0.14
    endloop
  endfacet
  facet normal 0 0 -1
    outer loop
      vertex 0 0 0
      vertex 0.0126134462 0.010090757 0
      vertex 0.0136777433 0.00894439006 0
    endloop
  endfacet
  facet normal 0 0 1
    outer loop
      vertex 0 0 0.14
      vertex 0.0100303451 0.00670829255 0.14
      vertex 0.00924986057 0.00756806774 0.14
    endloop
  endfacet
  facet normal 0 0 -1
    outer loop
      vertex 0 0 0
      vertex 0.0111804876 0.0109421947 0
      vertex 0.0126134462 0.010090757 0
    endloop
  endfacet
  facet normal 0 0 1
    outer loop
      vertex 0 0 0.14
      vertex 0.00924986057 0.00756806774 0.14
      vertex 0.00819902422 0.008206646 0.14
    endloop
  endfacet
  facet normal 0 0 -1
    outer loop
      vertex 0 0 0
      vertex 0.00927921184 0.0115342383 0
      vertex 0.0111804876 0.0109421947 0
    endloop
  endfacet
  facet normal 0 0 1
    outer loop
      vertex 0 0 0.14
      vertex 0.00819902422 0.008206646 0.14
      vertex 0.00680475535 0.00865067871 0.14
    endloop
  endfacet
  facet normal 0 0 -1
    outer loop
      vertex 0 0 0
      vertex 0.00662535452 0.0118841525 0
      vertex 0.00927921184 0.0115342383 0
    endloop
  endfacet
  facet normal 0 0 1
    outer loop
      vertex 0 0 0.14
      vertex 0.00680475535 0.00865067871 0.14
      vertex 0.00485859331 0.00891311437 0.14
    endloop
  endfacet
  facet normal 0 0 -1
    outer loop
      vertex 0 0 0
      vertex 1.17376644e-10 0.012 0
      vertex 0.00662535452 0.0118841525 0
    endloop
  endfacet
  facet normal 0 0 1
    outer loop
      vertex 0 0 0.14
      vertex 0.00485859331 0.00891311437 0.14
      vertex 8.60762054e-11 0.009 0.14
    endloop
  endfacet
  facet normal 0 0 -1
    outer loop
      vertex 0 0 0
      vertex -0.00662535452 0.0118841525 0
      vertex 1.17376644e-10 0.012 0
    endloop
  endfacet
  facet normal 0 -0 1
    outer loop
      vertex 0 0 0.14
      vertex 8.60762054e-11 0.009 0.14
      vertex -0.00485859331 0.00891311437 0.14
    endloop
  endfacet
  facet normal 0 0 -1
    outer loop
      vertex 0 0 0
      vertex -0.00927921184 0.0115342383 0
      vertex -0.00662535452 0.0118841525 0
    endloop
  endfacet
  facet normal 0 0 1
    outer loop
      vertex 0 0 0.14
      vertex -0.00485859331 0.00891311437 0.14
      vertex -0.00680475535 0.00865067871 0.14
    endloop
  endfacet
  facet normal 0 0 -1
    outer loop
      vertex 0 0 0
      vertex -0.0111804876 0.0109421947 0
      vertex -0.00927921184 0.0115342383 0
    endloop
  endfacet
  facet normal 0 0 1
    outer loop
      vertex 0 0 0.14
      vertex -0.00680475535 0.00865067871 0.14
      vertex -0.00819902422 0.008206646 0.14
    endloop
  endfacet
  facet normal 0 0 -1
    outer loop
      vertex 0 0 0
      vertex -0.0126134462 0.010090757 0
      vertex -0.0111804876 0.0109421947 0
    endloop
  endfacet
  facet normal 0 0 1
    outer loop
      vertex 0 0 0.14
      vertex -0.00819902422 0.008206646 0.14
      vertex -0.00924986057 0.00756806774 0.14
    endloop
  endfacet
  facet normal 0 0 -1
    outer loop
      vertex 0 0 0
      vertex -0.0136777433 0.00894439006 0
      vertex -0.0126134462 0.010090757 0
    endloop
  endfacet
  facet normal 0 0 1
    outer loop
      vertex 0 0 0.14
      vertex -0.00924986057 0.00756806774 0.14
      vertex -0.0100303451 0.00670829255 0.14
    endloop
  endfacet
  facet normal 0 0 -1
    outer loop
      vertex 0 0 0
      vertex -0.0144177978 0.00742336947 0
      vertex -0.0136777433 0.00894439006 0
    endloop
  endfacet
  facet normal 0 0 1
    outer loop
      vertex 0 0 0.14
      vertex -0.0100303451 0.00670829255 0.14
      vertex -0.0105730518 0.0055675271 0.14
    endloop
  endfacet
  facet normal 0 0 -1
    outer loop
      vertex 0 0 0
      vertex -0.0148551906 0.00530028361 0
      vertex -0.0144177978 0.00742336947 0
    endloop
  endfacet
  facet normal 0 0 1
    outer loop
      vertex 0 0 0.14
      vertex -0.0105730518 0.0055675271 0.14
      vertex -0.0108938064 0.00397521271 0.14
    endloop
  endfacet
  facet normal 0 0 -1
    outer loop
      vertex 0 0 0
      vertex -0.015 1.32796513e-10 0
      vertex -0.0148551906 0.00530028361 0
    endloop
  endfacet
  facet normal 0 0 1
    outer loop
      vertex 0 0 0.14
      vertex -0.0108938064 0.00397521271 0.14
      vertex -0.011 9.95973849e-11 0.14
    endloop
  endfacet
  facet normal -0 0 -1
    outer loop
      vertex 0 0 0
      vertex -0.0148551906 -0.00530028361 0
      vertex -0.015 1.32796513e-10 0
    endloop
  endfacet
  facet normal 0 0 1
    outer loop
      vertex 0 0 0.14
      vertex -0.011 9.95973849e-11 0.14
      vertex -0.0108938064 -0.00397521271 0.14
    endloop
  endfacet
  facet normal 0 0 -1
    outer loop
      vertex 0 0 0
      vertex -0.0144177978 -0.00742336947 0
      vertex -0.0148551906 -0.00530028361 0
    endloop
  endfacet
  facet normal 0 0 1
    outer loop
      vertex 0 0 0.14
      vertex -0.0108938064 -0.00397521271 0.14
      vertex -0.0105730518 -0.0055675271 0.14
    endloop
  endfacet
  facet normal 0 0 -1
    outer loop
      vertex 0 0 0
      vertex -0.0136777433 -0.00894439006 0
      vertex -0.0144177978 -0.00742336947 0
    endloop
  endfacet
  facet normal 0 0 1
    outer loop
      vertex 0 0 0.14
      vertex -0.0105730518 -0.0055675271 0.14
      vertex -0.0100303451 -0.00670829255 0.14
    endloop
  endfacet
  facet normal 0 0 -1
    outer loop
      vertex 0 0 0
      vertex -0.0126134462 -0.010090757 0
      vertex -0.0136777433 -0.00894439006 0
    endloop
  endfacet
  facet normal 0 0 1
    outer loop
      vertex 0 0 0.14
      vertex -0.0100303451 -0.00670829255 0.14
      vertex -0.00924986057 -0.00756806774 0.14
    endloop
  endfacet
  facet normal 0 0 -1
    outer loop
      vertex 0 0 0
      vertex -0.0111804876 -0.0109421947 0
      vertex -0.0126134462 -0.010090757 0
    endloop
  endfacet
  facet normal 0 0 1
    outer loop
      vertex 0 0 0.14
      vertex -0.00924986057 -0.00756806774 0.14
      vertex -0.00819902422 -0.008206646 0.14
    endloop
  endfacet
  facet normal 0 0 -1
    outer loop
      vertex 0 0 0
      vertex -0.00927921184 -0.0115342383 0
      vertex -0.0111804876 -0.0109421947 0
    endloop
  endfacet
  facet normal 0 0 1
    outer loop
      vertex 0 0 0.14
      vertex -0.00819902422 -0.008206646 0.14
      vertex -0.00680475535 -0.00865067871 0.14
    endloop
  endfacet
  facet normal 0 0 -1
    outer loop
      vertex 0 0 0
      vertex -0.00662535452 -0.0118841525 0
      vertex -0.00927921184 -0.0115342383 0
    endloop
  endfacet
  facet normal 0 0 1
    outer loop
      vertex 0 0 0.14
      vertex -0.00680475535 -0.00865067871 0.14
      vertex -0.00485859331 -0.00891311437 0.14
    endloop
  endfacet
  facet normal 0 0 -1
    outer loop
      vertex 0 0 0
      vertex -2.03302311e-10 -0.012 0
      vertex -0.00662535452 -0.0118841525 0
    endloop
  endfacet
  facet normal 0 0 1
    outer loop
      vertex 0 0 0.14
      vertex -0.00485859331 -0.00891311437 0.14
      vertex -1.49088361e-10 -0.009 0.14
    endloop
  endfacet
  facet normal 0 -0 -1
    outer loop
      vertex 0 0 0
      vertex 0.00662535452 -0.0118841525 0
      vertex -2.03302311e-10 -0.012 0
    endloop
  endfacet
  facet normal 0 0 1
    outer loop
      vertex 0 0 0.14
      vertex -1.49088361e-10 -0.009 0.14
      vertex 0.00485859331 -0.00891311437 0.14
    endloop
  endfacet
  facet normal 0 0 -1
    outer loop
      vertex 0 0 0
      vertex 0.00927921184 -0.0115342383 0
      vertex 0.00662535452 -0.0118841525 0
    endloop
  endfacet
  facet normal 0 0 1
    outer loop
      vertex 0 0 0.14
      vertex 0.00485859331 -0.00891311437 0.14
      vertex 0.00680475535 -0.00865067871 0.14
    endloop
  endfacet
  facet normal 0 0 -1
    outer loop
      vertex 0 0 0
      vertex 0.0111804876 -0.0109421947 0
      vertex 0.00927921184 -0.0115342383 0
    endloop
  endfacet
  facet normal 0 0 1
    outer loop
      vertex 0 0 0.14
      vertex 0.00680475535 -0.00865067871 0.14
      vertex 0.00819902422 -0.008206646 0.14
    endloop
  endfacet
  facet normal 0 0 -1
    outer loop
      vertex 0 0 0
      vertex 0.0126134462 -0.010090757 0
      vertex 0.0111804876 -0.0109421947 0
    endloop
  endfacet
  facet normal 0 0 1
    outer loop
      vertex 0 0 0.14
      vertex 0.00819902422 -0.008206646 0.14
      vertex 0.00924986057 -0.00756806774 0.14
    endloop
  endfacet
  facet normal 0 0 -1
    outer loop
      vertex 0 0 0
      vertex 0.0136777433 -0.00894439006 0
      vertex 0.0126134462 -0.010090757 0
    endloop
  endfacet
  facet normal 0 0 1
    outer loop
      vertex 0 0 0.14
      vertex 0.00924986057 -0.00756806774 0.14
      vertex 0.0100303451 -0.00670829255 0.14
    endloop
  endfacet
  facet normal 0 0 -1
    outer loop
      vertex 0 0 0
      vertex 0.0144177978 -0.00742336947 0
      vertex 0.0136777433 -0.00894439006 0
    endloop
  endfacet
  facet normal 0 0 1
    outer loop
      vertex 0 0 0.14
      vertex 0.0100303451 -0.00670829255 0.14
      vertex 0.0105730518 -0.0055675271 0.14
    endloop
  endfacet
  facet normal 0 0 -1
    outer loop
      vertex 0 0 0
      vertex 0.0148551906 -0.00530028361 0
      vertex 0.0144177978 -0.00742336947 0
    endloop
  endfacet
  facet normal 0 0 1
    outer loop
      vertex 0 0 0.14
      vertex 0.0105730518 -0.0055675271 0.14
      vertex 0.0108938064 -0.00397521271 0.14
    endloop
  endfacet
  facet normal 0 0 -1
    outer loop
      vertex 0 0 0
      vertex 0.015 0 0
      vertex 0.0148551906 -0.00530028361 0
    endloop
  endfacet
  facet normal -0 0 1
    outer loop
      vertex 0 0 0.14
      vertex 0.0108938064 -0.00397521271 0.14
      vertex 0.011 0 0.14
    endloop
  endfacet
endsolid gripper_finger_shell
