solid gripper_palm_shell
  facet normal -0.969980458 -0.0182764817 0.242495115
    outer loop
      vertex 0.047 0 0
      vertex 0.05 0 0.012
      vertex 0.049517302 0.0256180375 0.012
    endloop
  endfacet
  facet normal -0.970063322 -0.0181185255 0.242175287
    outer loop
      vertex 0.047 0 0
      vertex 0.049517302 0.0256180375 0.012
      vertex 0.0465462639 0.0242929666 0
    endloop
  endfacet
  facet normal -0.958045614 -0.136120088 0.252229901
    outer loop
      vertex 0.0465462639 0.0242929666 0
      vertex 0.049517302 0.0256180375 0.012
      vertex 0.0480593262 0.0358796191 0.012
    endloop
  endfacet
  facet normal -0.958476698 -0.134992845 0.251195841
    outer loop
      vertex 0.0465462639 0.0242929666 0
      vertex 0.0480593262 0.0358796191 0.012
      vertex 0.0451757666 0.0340237767 0
    endloop
  endfacet
  facet normal -0.91364361 -0.306575494 0.266958464
    outer loop
      vertex 0.0451757666 0.0340237767 0
      vertex 0.0480593262 0.0358796191 0.012
      vertex 0.0455924778 0.0432312186 0.012
    endloop
  endfacet
  facet normal -0.914891112 -0.304314875 0.265267242
    outer loop
      vertex 0.0451757666 0.0340237767 0
      vertex 0.0455924778 0.0432312186 0.012
      vertex 0.0428569291 0.0409951211 0
    endloop
  endfacet
  facet normal -0.80830423 -0.517542578 0.280702603
    outer loop
      vertex 0.0428569291 0.0409951211 0
      vertex 0.0455924778 0.0432312186 0.012
      vertex 0.0420448208 0.0487719921 0.012
    endloop
  endfacet
  facet normal -0.810858226 -0.514646848 0.278653116
    outer loop
      vertex 0.0428569291 0.0409951211 0
      vertex 0.0420448208 0.0487719921 0.012
      vertex 0.0395221315 0.0462493028 0
    endloop
  endfacet
  facet normal -0.625794705 -0.726347878 0.284252963
    outer loop
      vertex 0.0395221315 0.0462493028 0
      vertex 0.0420448208 0.0487719921 0.012
      vertex 0.0372682919 0.0528872742 0.012
    endloop
  endfacet
  facet normal -0.629312862 -0.724056662 0.282324764
    outer loop
      vertex 0.0395221315 0.0462493028 0
      vertex 0.0372682919 0.0528872742 0.012
      vertex 0.0350321944 0.0501517256 0
    endloop
  endfacet
  facet normal -0.39581469 -0.876627953 0.273594889
    outer loop
      vertex 0.0350321944 0.0501517256 0
      vertex 0.0372682919 0.0528872742 0.012
      vertex 0.0309307061 0.0557488183 0.012
    endloop
  endfacet
  facet normal -0.398876803 -0.875699989 0.272115463
    outer loop
      vertex 0.0350321944 0.0501517256 0
      vertex 0.0309307061 0.0557488183 0.012
      vertex 0.0290748638 0.0528652588 0
    endloop
  endfacet
  facet normal -0.181514886 -0.949424065 0.256215322
    outer loop
      vertex 0.0290748638 0.0528652588 0
      vertex 0.0309307061 0.0557488183 0.012
      vertex 0.0220845151 0.0574400704 0.012
    endloop
  endfacet
  facet normal -0.183103209 -0.949373496 0.255270799
    outer loop
      vertex 0.0290748638 0.0528652588 0
      vertex 0.0220845151 0.0574400704 0.012
      vertex 0.0207594441 0.0544690322 0
    endloop
  endfacet
  facet normal -0.0245872709 -0.969761036 0.242814741
    outer loop
      vertex 0.0207594441 0.0544690322 0
      vertex 0.0220845151 0.0574400704 0.012
      vertex 3.91255479e-10 0.058 0.012
    endloop
  endfacet
  facet normal -0.0248058613 -0.969843975 0.242460994
    outer loop
      vertex 0.0207594441 0.0544690322 0
      vertex 3.91255479e-10 0.058 0.012
      vertex 3.6778015e-10 0.055 0
    endloop
  endfacet
  facet normal 0.0245895044 -0.969849161 0.24246229
    outer loop
      vertex 3.6778015e-10 0.055 0
      vertex 3.91255479e-10 0.058 0.012
      vertex -0.0220845151 0.0574400704 0.012
    endloop
  endfacet
  facet normal 0.0248034625 -0.969750224 0.242835936
    outer loop
      vertex 3.6778015e-10 0.055 0
      vertex -0.0220845151 0.0574400704 0.012
      vertex -0.0207594441 0.0544690322 0
    endloop
  endfacet
  facet normal 0.181566298 -0.949692977 0.255180188
    outer loop
      vertex -0.0207594441 0.0544690322 0
      vertex -0.0220845151 0.0574400704 0.012
      vertex -0.0309307061 0.0557488183 0.012
    endloop
  endfacet
  facet normal 0.183048046 -0.949087478 0.25637155
    outer loop
      vertex -0.0207594441 0.0544690322 0
      vertex -0.0309307061 0.0557488183 0.012
      vertex -0.0290748638 0.0528652588 0
    endloop
  endfacet
  facet normal 0.396001578 -0.87704186 0.271993246
    outer loop
      vertex -0.0290748638 0.0528652588 0
      vertex -0.0309307061 0.0557488183 0.012
      vertex -0.0372682919 0.0528872742 0.012
    endloop
  endfacet
  facet normal 0.39867673 -0.875260745 0.273816534
    outer loop
      vertex -0.0290748638 0.0528652588 0
      vertex -0.0372682919 0.0528872742 0.012
      vertex -0.0350321944 0.0501517256 0
    endloop
  endfacet
  facet normal 0.626160397 -0.726772331 0.282356399
    outer loop
      vertex -0.0350321944 0.0501517256 0
      vertex -0.0372682919 0.0528872742 0.012
      vertex -0.0420448208 0.0487719921 0.012
    endloop
  endfacet
  facet normal 0.628923309 -0.723608461 0.284334779
    outer loop
      vertex -0.0350321944 0.0501517256 0
      vertex -0.0420448208 0.0487719921 0.012
      vertex -0.0395221315 0.0462493028 0
    endloop
  endfacet
  facet normal 0.808751735 -0.517829107 0.278879269
    outer loop
      vertex -0.0395221315 0.0462493028 0
      vertex -0.0420448208 0.0487719921 0.012
      vertex -0.0455924778 0.0432312186 0.012
    endloop
  endfacet
  facet normal 0.81038416 -0.514345961 0.280581086
    outer loop
      vertex -0.0395221315 0.0462493028 0
      vertex -0.0455924778 0.0432312186 0.012
      vertex -0.0428569291 0.0409951211 0
    endloop
  endfacet
  facet normal 0.914021856 -0.306702415 0.265513982
    outer loop
      vertex -0.0428569291 0.0409951211 0
      vertex -0.0455924778 0.0432312186 0.012
      vertex -0.0480593262 0.0358796191 0.012
    endloop
  endfacet
  facet normal 0.914491794 -0.304182052 0.266792125
    outer loop
      vertex -0.0428569291 0.0409951211 0
      vertex -0.0480593262 0.0358796191 0.012
      vertex -0.0451757666 0.0340237767 0
    endloop
  endfacet
  facet normal 0.958278037 -0.13615311 0.251327543
    outer loop
      vertex -0.0451757666 0.0340237767 0
      vertex -0.0480593262 0.0358796191 0.012
      vertex -0.049517302 0.0256180375 0.012
    endloop
  endfacet
  facet normal 0.958231603 -0.134958325 0.252147664
    outer loop
      vertex -0.0451757666 0.0340237767 0
      vertex -0.049517302 0.0256180375 0.012
      vertex -0.0465462639 0.0242929666 0
    endloop
  endfacet
  facet normal 0.970056368 -0.0182779124 0.242191165
    outer loop
      vertex -0.0465462639 0.0242929666 0
      vertex -0.049517302 0.0256180375 0.012
      vertex -0.05 6.41849814e-10 0.012
    endloop
  endfacet
  facet normal 0.969983274 -0.0181170308 0.242495818
    outer loop
      vertex -0.0465462639 0.0242929666 0
      vertex -0.05 6.41849814e-10 0.012
      vertex -0.047 6.08650685e-10 0
    endloop
  endfacet
  facet normal 0.969980458 0.0182764812 0.242495115
    outer loop
      vertex -0.047 6.08650685e-10 0
      vertex -0.05 6.41849814e-10 0.012
      vertex -0.049517302 -0.0256180375 0.012
    endloop
  endfacet
  facet normal 0.970063322 0.0181185251 0.242175287
    outer loop
      vertex -0.047 6.08650685e-10 0
      vertex -0.049517302 -0.0256180375 0.012
      vertex -0.0465462639 -0.0242929666 0
    endloop
  endfacet
  facet normal 0.958045614 0.136120088 0.252229901
    outer loop
      vertex -0.0465462639 -0.0242929666 0
      vertex -0.049517302 -0.0256180375 0.012
      vertex -0.0480593262 -0.0358796191 0.012
    endloop
  endfacet
  facet normal 0.958476698 0.134992845 0.251195841
    outer loop
      vertex -0.0465462639 -0.0242929666 0
      vertex -0.0480593262 -0.0358796191 0.012
      vertex -0.0451757666 -0.0340237767 0
    endloop
  endfacet
  facet normal 0.91364361 0.306575494 0.266958464
    outer loop
      vertex -0.0451757666 -0.0340237767 0
      vertex -0.0480593262 -0.0358796191 0.012
      vertex -0.0455924778 -0.0432312186 0.012
    endloop
  endfacet
  facet normal 0.914891112 0.304314875 0.265267242
    outer loop
      vertex -0.0451757666 -0.0340237767 0
      vertex -0.0455924778 -0.0432312186 0.012
      vertex -0.0428569291 -0.0409951211 0
    endloop
  endfacet
  facet normal 0.80830423 0.517542578 0.280702603
    outer loop
      vertex -0.0428569291 -0.0409951211 0
      vertex -0.0455924778 -0.0432312186 0.012
      vertex -0.0420448208 -0.0487719921 0.012
    endloop
  endfacet
  facet normal 0.810858226 0.514646848 0.278653116
    outer loop
      vertex -0.0428569291 -0.0409951211 0
      vertex -0.0420448208 -0.0487719921 0.012
      vertex -0.0395221315 -0.0462493028 0
    endloop
  endfacet
  facet normal 0.625794705 0.726347878 0.284252963
    outer loop
      vertex -0.0395221315 -0.0462493028 0
      vertex -0.0420448208 -0.0487719921 0.012
      vertex -0.0372682919 -0.0528872742 0.012
    endloop
  endfacet
  facet normal 0.629312862 0.724056662 0.282324764
    outer loop
      vertex -0.0395221315 -0.0462493028 0
      vertex -0.0372682919 -0.0528872742 0.012
      vertex -0.0350321944 -0.0501517256 0
    endloop
  endfacet
  facet normal 0.39581469 0.876627953 0.273594889
    outer loop
      vertex -0.0350321944 -0.0501517256 0
      vertex -0.0372682919 -0.0528872742 0.012
      vertex -0.0309307061 -0.0557488183 0.012
    endloop
  endfacet
  facet normal 0.398876803 0.875699989 0.272115463
    outer loop
      vertex -0.0350321944 -0.0501517256 0
      vertex -0.0309307061 -0.0557488183 0.012
      vertex -0.0290748638 -0.0528652588 0
    endloop
  endfacet
  facet normal 0.181514886 0.949424065 0.256215322
    outer loop
      vertex -0.0290748638 -0.0528652588 0
      vertex -0.0309307061 -0.0557488183 0.012
      vertex -0.0220845151 -0.0574400704 0.012
    endloop
  endfacet
  facet normal 0.183103209 0.949373496 0.255270799
    outer loop
      vertex -0.0290748638 -0.0528652588 0
      vertex -0.0220845151 -0.0574400704 0.012
      vertex -0.0207594441 -0.0544690322 0
    endloop
  endfacet
  facet normal 0.0245872713 0.969761036 0.242814741
    outer loop
      vertex -0.0207594441 -0.0544690322 0
      vertex -0.0220845151 -0.0574400704 0.012
      vertex -6.77674368e-10 -0.058 0.012
    endloop
  endfacet
  facet normal 0.0248058616 0.969843975 0.242460994
    outer loop
      vertex -0.0207594441 -0.0544690322 0
      vertex -6.77674368e-10 -0.058 0.012
      vertex -6.37013906e-10 -0.055 0
    endloop
  endfacet
  facet normal -0.024589504 0.969849161 0.24246229
    outer loop
      vertex -6.37013906e-10 -0.055 0
      vertex -6.77674368e-10 -0.058 0.012
      vertex 0.0220845151 -0.0574400704 0.012
    endloop
  endfacet
  facet normal -0.0248034622 0.969750224 0.242835936
    outer loop
      vertex -6.37013906e-10 -0.055 0
      vertex 0.0220845151 -0.0574400704 0.012
      vertex 0.0207594441 -0.0544690322 0
    endloop
  endfacet
  facet normal -0.181566298 0.949692977 0.255180188
    outer loop
      vertex 0.0207594441 -0.0544690322 0
      vertex 0.0220845151 -0.0574400704 0.012
      vertex 0.0309307061 -0.0557488183 0.012
    endloop
  endfacet
  facet normal -0.183048046 0.949087478 0.25637155
    outer loop
      vertex 0.0207594441 -0.0544690322 0
      vertex 0.0309307061 -0.0557488183 0.012
      vertex 0.0290748638 -0.0528652588 0
    endloop
  endfacet
  facet normal -0.396001578 0.87704186 0.271993246
    outer loop
      vertex 0.0290748638 -0.0528652588 0
      vertex 0.0309307061 -0.0557488183 0.012
      vertex 0.0372682919 -0.0528872742 0.012
    endloop
  endfacet
  facet normal -0.39867673 0.875260745 0.273816534
    outer loop
      vertex 0.0290748638 -0.0528652588 0
      vertex 0.0372682919 -0.0528872742 0.012
      vertex 0.0350321944 -0.0501517256 0
    endloop
  endfacet
  facet normal -0.626160397 0.726772331 0.282356399
    outer loop
      vertex 0.0350321944 -0.0501517256 0
      vertex 0.0372682919 -0.0528872742 0.012
      vertex 0.0420448208 -0.0487719921 0.012
    endloop
  endfacet
  facet normal -0.628923309 0.723608461 0.284334779
    outer loop
      vertex 0.0350321944 -0.0501517256 0
      vertex 0.0420448208 -0.0487719921 0.012
      vertex 0.0395221315 -0.0462493028 0
    endloop
  endfacet
  facet normal -0.808751735 0.517829107 0.278879269
    outer loop
      vertex 0.0395221315 -0.0462493028 0
      vertex 0.0420448208 -0.0487719921 0.012
      vertex 0.0455924778 -0.0432312186 0.012
    endloop
  endfacet
  facet normal -0.81038416 0.514345961 0.280581086
    outer loop
      vertex 0.0395221315 -0.0462493028 0
      vertex 0.0455924778 -0.0432312186 0.012
      vertex 0.0428569291 -0.0409951211 0
    endloop
  endfacet
  facet normal -0.914021856 0.306702415 0.265513982
    outer loop
      vertex 0.0428569291 -0.0409951211 0
      vertex 0.0455924778 -0.0432312186 0.012
      vertex 0.0480593262 -0.0358796191 0.012
    endloop
  endfacet
  facet normal -0.914491794 0.304182052 0.266792125
    outer loop
      vertex 0.0428569291 -0.0409951211 0
      vertex 0.0480593262 -0.0358796191 0.012
      vertex 0.0451757666 -0.0340237767 0
    endloop
  endfacet
  facet normal -0.958278037 0.13615311 0.251327543
    outer loop
      vertex 0.0451757666 -0.0340237767 0
      vertex 0.0480593262 -0.0358796191 0.012
      vertex 0.049517302 -0.0256180375 0.012
    endloop
  endfacet
  facet normal -0.958231603 0.134958325 0.252147664
    outer loop
      vertex 0.0451757666 -0.0340237767 0
      vertex 0.049517302 -0.0256180375 0.012
      vertex 0.0465462639 -0.0242929666 0
    endloop
  endfacet
  facet normal -0.970056368 0.018277912 0.242191165
    outer loop
      vertex 0.0465462639 -0.0242929666 0
      vertex 0.049517302 -0.0256180375 0.012
      vertex 0.05 0 0.012
    endloop
  endfacet
  facet normal -0.969983274 0.0181170304 0.242495818
    outer loop
      vertex 0.0465462639 -0.0242929666 0
      vertex 0.05 0 0.012
      vertex 0.047 0 0
    endloop
  endfacet
  facet normal -0.994335008 -0.018513324 -0.104666843
    outer loop
      vertex 0.05 0 0.012
      vertex 0.046 0 0.05
      vertex 0.0455559179 0.0238512763 0.05
    endloop
  endfacet
  facet normal -0.994345392 -0.0187355685 -0.104528562
    outer loop
      vertex 0.05 0 0.012
      vertex 0.0455559179 0.0238512763 0.05
      vertex 0.049517302 0.0256180375 0.012
    endloop
  endfacet
  facet normal -0.984382462 -0.138204429 -0.109044508
    outer loop
      vertex 0.049517302 0.0256180375 0.012
      vertex 0.0455559179 0.0238512763 0.05
      vertex 0.0442145801 0.0334051626 0.05
    endloop
  endfacet
  facet normal -0.984192057 -0.139835001 -0.108683795
    outer loop
      vertex 0.049517302 0.0256180375 0.012
      vertex 0.0442145801 0.0334051626 0.05
      vertex 0.0480593262 0.0358796191 0.012
    endloop
  endfacet
  facet normal -0.942802915 -0.312610523 -0.115746815
    outer loop
      vertex 0.0480593262 0.0358796191 0.012
      vertex 0.0442145801 0.0334051626 0.05
      vertex 0.0419450796 0.0402497553 0.05
    endloop
  endfacet
  facet normal -0.941739979 -0.316003304 -0.115185605
    outer loop
      vertex 0.0480593262 0.0358796191 0.012
      vertex 0.0419450796 0.0402497553 0.05
      vertex 0.0455924778 0.0432312186 0.012
    endloop
  endfacet
  facet normal -0.838736248 -0.530662876 -0.122140974
    outer loop
      vertex 0.0455924778 0.0432312186 0.012
      vertex 0.0419450796 0.0402497553 0.05
      vertex 0.0386812351 0.0454084064 0.05
    endloop
  endfacet
  facet normal -0.835937758 -0.535235826 -0.121369995
    outer loop
      vertex 0.0455924778 0.0432312186 0.012
      vertex 0.0386812351 0.0454084064 0.05
      vertex 0.0420448208 0.0487719921 0.012
    endloop
  endfacet
  facet normal -0.652113109 -0.747924535 -0.123924909
    outer loop
      vertex 0.0420448208 0.0487719921 0.012
      vertex 0.0386812351 0.0454084064 0.05
      vertex 0.0342868286 0.049239876 0.05
    endloop
  endfacet
  facet normal -0.647764434 -0.751847721 -0.122988789
    outer loop
      vertex 0.0420448208 0.0487719921 0.012
      vertex 0.0342868286 0.049239876 0.05
      vertex 0.0372682919 0.0528872742 0.012
    endloop
  endfacet
  facet normal -0.412647441 -0.903076671 -0.119057197
    outer loop
      vertex 0.0372682919 0.0528872742 0.012
      vertex 0.0342868286 0.049239876 0.05
      vertex 0.0284562496 0.0519040723 0.05
    endloop
  endfacet
  facet normal -0.408632433 -0.905015964 -0.11817631
    outer loop
      vertex 0.0372682919 0.0528872742 0.012
      vertex 0.0284562496 0.0519040723 0.05
      vertex 0.0309307061 0.0557488183 0.012
    endloop
  endfacet
  facet normal -0.18878046 -0.975724232 -0.111014236
    outer loop
      vertex 0.0309307061 0.0557488183 0.012
      vertex 0.0284562496 0.0519040723 0.05
      vertex 0.0203177538 0.0534786862 0.05
    endloop
  endfacet
  facet normal -0.186634358 -0.97620176 -0.110443382
    outer loop
      vertex 0.0309307061 0.0557488183 0.012
      vertex 0.0203177538 0.0534786862 0.05
      vertex 0.0220845151 0.0574400704 0.012
    endloop
  endfacet
  facet normal -0.0255082913 -0.994163544 -0.104824494
    outer loop
      vertex 0.0220845151 0.0574400704 0.012
      vertex 0.0203177538 0.0534786862 0.05
      vertex 3.59955041e-10 0.054 0.05
    endloop
  endfacet
  facet normal -0.0252066279 -0.994189461 -0.104651522
    outer loop
      vertex 0.0220845151 0.0574400704 0.012
      vertex 3.59955041e-10 0.054 0.05
      vertex 3.91255479e-10 0.058 0.012
    endloop
  endfacet
  facet normal 0.0255087599 -0.994181839 -0.10465072
    outer loop
      vertex 3.91255479e-10 0.058 0.012
      vertex 3.59955041e-10 0.054 0.05
      vertex -0.0203177538 0.0534786862 0.05
    endloop
  endfacet
  facet normal 0.0252062003 -0.99417263 -0.104811396
    outer loop
      vertex 3.91255479e-10 0.058 0.012
      vertex -0.0203177538 0.0534786862 0.05
      vertex -0.0220845151 0.0574400704 0.012
    endloop
  endfacet
  facet normal 0.188791351 -0.975780523 -0.110499756
    outer loop
      vertex -0.0220845151 0.0574400704 0.012
      vertex -0.0203177538 0.0534786862 0.05
      vertex -0.0284562496 0.0519040723 0.05
    endloop
  endfacet
  facet normal 0.186624455 -0.976149963 -0.110916917
    outer loop
      vertex -0.0220845151 0.0574400704 0.012
      vertex -0.0284562496 0.0519040723 0.05
      vertex -0.0309307061 0.0557488183 0.012
    endloop
  endfacet
  facet normal 0.412687381 -0.90316408 -0.118252988
    outer loop
      vertex -0.0309307061 0.0557488183 0.012
      vertex -0.0284562496 0.0519040723 0.05
      vertex -0.0342868286 0.049239876 0.05
    endloop
  endfacet
  facet normal 0.408596007 -0.90493529 -0.118917721
    outer loop
      vertex -0.0309307061 0.0557488183 0.012
      vertex -0.0342868286 0.049239876 0.05
      vertex -0.0372682919 0.0528872742 0.012
    endloop
  endfacet
  facet normal 0.652191324 -0.748014242 -0.122968167
    outer loop
      vertex -0.0372682919 0.0528872742 0.012
      vertex -0.0342868286 0.049239876 0.05
      vertex -0.0386812351 0.0454084064 0.05
    endloop
  endfacet
  facet normal 0.647692607 -0.751764352 -0.123873509
    outer loop
      vertex -0.0372682919 0.0528872742 0.012
      vertex -0.0386812351 0.0454084064 0.05
      vertex -0.0420448208 0.0487719921 0.012
    endloop
  endfacet
  facet normal 0.838830976 -0.53072281 -0.121226618
    outer loop
      vertex -0.0420448208 0.0487719921 0.012
      vertex -0.0386812351 0.0454084064 0.05
      vertex -0.0419450796 0.0402497553 0.05
    endloop
  endfacet
  facet normal 0.83585009 -0.535179694 -0.122218336
    outer loop
      vertex -0.0420448208 0.0487719921 0.012
      vertex -0.0419450796 0.0402497553 0.05
      vertex -0.0455924778 0.0432312186 0.012
    endloop
  endfacet
  facet normal 0.942881835 -0.312636691 -0.115031062
    outer loop
      vertex -0.0455924778 0.0432312186 0.012
      vertex -0.0419450796 0.0402497553 0.05
      vertex -0.0442145801 0.0334051626 0.05
    endloop
  endfacet
  facet normal 0.941666597 -0.31597868 -0.11585117
    outer loop
      vertex -0.0455924778 0.0432312186 0.012
      vertex -0.0442145801 0.0334051626 0.05
      vertex -0.0480593262 0.0358796191 0.012
    endloop
  endfacet
  facet normal 0.984430416 -0.138211162 -0.108602171
    outer loop
      vertex -0.0480593262 0.0358796191 0.012
      vertex -0.0442145801 0.0334051626 0.05
      vertex -0.0455559179 0.0238512763 0.05
    endloop
  endfacet
  facet normal 0.984147405 -0.139828656 -0.109095521
    outer loop
      vertex -0.0480593262 0.0358796191 0.012
      vertex -0.0455559179 0.0238512763 0.05
      vertex -0.049517302 0.0256180375 0.012
    endloop
  endfacet
  facet normal 0.994350577 -0.0185136143 -0.104518783
    outer loop
      vertex -0.049517302 0.0256180375 0.012
      vertex -0.0455559179 0.0238512763 0.05
      vertex -0.046 5.97584309e-10 0.05
    endloop
  endfacet
  facet normal 0.994330896 -0.0187352958 -0.10466641
    outer loop
      vertex -0.049517302 0.0256180375 0.012
      vertex -0.046 5.97584309e-10 0.05
      vertex -0.05 6.41849814e-10 0.012
    endloop
  endfacet
  facet normal 0.994335008 0.0185133235 -0.104666843
    outer loop
      vertex -0.05 6.41849814e-10 0.012
      vertex -0.046 5.97584309e-10 0.05
      vertex -0.0455559179 -0.0238512763 0.05
    endloop
  endfacet
  facet normal 0.994345392 0.018735568 -0.104528562
    outer loop
      vertex -0.05 6.41849814e-10 0.012
      vertex -0.0455559179 -0.0238512763 0.05
      vertex -0.049517302 -0.0256180375 0.012
    endloop
  endfacet
  facet normal 0.984382462 0.138204429 -0.109044508
    outer loop
      vertex -0.049517302 -0.0256180375 0.012
      vertex -0.0455559179 -0.0238512763 0.05
      vertex -0.0442145801 -0.0334051626 0.05
    endloop
  endfacet
  facet normal 0.984192057 0.139835001 -0.108683795
    outer loop
      vertex -0.049517302 -0.0256180375 0.012
      vertex -0.0442145801 -0.0334051626 0.05
      vertex -0.0480593262 -0.0358796191 0.012
    endloop
  endfacet
  facet normal 0.942802915 0.312610523 -0.115746815
    outer loop
      vertex -0.0480593262 -0.0358796191 0.012
      vertex -0.0442145801 -0.0334051626 0.05
      vertex -0.0419450796 -0.0402497553 0.05
    endloop
  endfacet
  facet normal 0.941739979 0.316003304 -0.115185605
    outer loop
      vertex -0.0480593262 -0.0358796191 0.012
      vertex -0.0419450796 -0.0402497553 0.05
      vertex -0.0455924778 -0.0432312186 0.012
    endloop
  endfacet
  facet normal 0.838736248 0.530662876 -0.122140974
    outer loop
      vertex -0.0455924778 -0.0432312186 0.012
      vertex -0.0419450796 -0.0402497553 0.05
      vertex -0.0386812351 -0.0454084064 0.05
    endloop
  endfacet
  facet normal 0.835937758 0.535235826 -0.121369995
    outer loop
      vertex -0.0455924778 -0.0432312186 0.012
      vertex -0.0386812351 -0.0454084064 0.05
      vertex -0.0420448208 -0.0487719921 0.012
    endloop
  endfacet
  facet normal 0.652113109 0.747924535 -0.123924909
    outer loop
      vertex -0.0420448208 -0.0487719921 0.012
      vertex -0.0386812351 -0.0454084064 0.05
      vertex -0.0342868286 -0.049239876 0.05
    endloop
  endfacet
  facet normal 0.647764434 0.751847721 -0.122988789
    outer loop
      vertex -0.0420448208 -0.0487719921 0.012
      vertex -0.0342868286 -0.049239876 0.05
      vertex -0.0372682919 -0.0528872742 0.012
    endloop
  endfacet
  facet normal 0.412647441 0.903076671 -0.119057197
    outer loop
      vertex -0.0372682919 -0.0528872742 0.012
      vertex -0.0342868286 -0.049239876 0.05
      vertex -0.0284562496 -0.0519040723 0.05
    endloop
  endfacet
  facet normal 0.408632433 0.905015964 -0.11817631
    outer loop
      vertex -0.0372682919 -0.0528872742 0.012
      vertex -0.0284562496 -0.0519040723 0.05
      vertex -0.0309307061 -0.0557488183 0.012
    endloop
  endfacet
  facet normal 0.18878046 0.975724232 -0.111014236
    outer loop
      vertex -0.0309307061 -0.0557488183 0.012
      vertex -0.0284562496 -0.0519040723 0.05
      vertex -0.0203177538 -0.0534786862 0.05
    endloop
  endfacet
  facet normal 0.186634358 0.97620176 -0.110443382
    outer loop
      vertex -0.0309307061 -0.0557488183 0.012
      vertex -0.0203177538 -0.0534786862 0.05
      vertex -0.0220845151 -0.0574400704 0.012
    endloop
  endfacet
  facet normal 0.0255082917 0.994163544 -0.104824494
    outer loop
      vertex -0.0220845151 -0.0574400704 0.012
      vertex -0.0203177538 -0.0534786862 0.05
      vertex -6.23460419e-10 -0.054 0.05
    endloop
  endfacet
  facet normal 0.0252066283 0.994189461 -0.104651522
    outer loop
      vertex -0.0220845151 -0.0574400704 0.012
      vertex -6.23460419e-10 -0.054 0.05
      vertex -6.77674368e-10 -0.058 0.012
    endloop
  endfacet
  facet normal -0.0255087595 0.99418184 -0.10465072
    outer loop
      vertex -6.77674368e-10 -0.058 0.012
      vertex -6.23460419e-10 -0.054 0.05
      vertex 0.0203177538 -0.0534786862 0.05
    endloop
  endfacet
  facet normal -0.0252062 0.99417263 -0.104811396
    outer loop
      vertex -6.77674368e-10 -0.058 0.012
      vertex 0.0203177538 -0.0534786862 0.05
      vertex 0.0220845151 -0.0574400704 0.012
    endloop
  endfacet
  facet normal -0.188791351 0.975780523 -0.110499756
    outer loop
      vertex 0.0220845151 -0.0574400704 0.012
      vertex 0.0203177538 -0.0534786862 0.05
      vertex 0.0284562496 -0.0519040723 0.05
    endloop
  endfacet
  facet normal -0.186624455 0.976149963 -0.110916917
    outer loop
      vertex 0.0220845151 -0.0574400704 0.012
      vertex 0.0284562496 -0.0519040723 0.05
      vertex 0.0309307061 -0.0557488183 0.012
    endloop
  endfacet
  facet normal -0.412687381 0.90316408 -0.118252988
    outer loop
      vertex 0.0309307061 -0.0557488183 0.012
      vertex 0.0284562496 -0.0519040723 0.05
      vertex 0.0342868286 -0.049239876 0.05
    endloop
  endfacet
  facet normal -0.408596007 0.90493529 -0.118917721
    outer loop
      vertex 0.0309307061 -0.0557488183 0.012
      vertex 0.0342868286 -0.049239876 0.05
      vertex 0.0372682919 -0.0528872742 0.012
    endloop
  endfacet
  facet normal -0.652191324 0.748014242 -0.122968167
    outer loop
      vertex 0.0372682919 -0.0528872742 0.012
      vertex 0.0342868286 -0.049239876 0.05
      vertex 0.0386812351 -0.0454084064 0.05
    endloop
  endfacet
  facet normal -0.647692607 0.751764352 -0.123873509
    outer loop
      vertex 0.0372682919 -0.0528872742 0.012
      vertex 0.0386812351 -0.0454084064 0.05
      vertex 0.0420448208 -0.0487719921 0.012
    endloop
  endfacet
  facet normal -0.838830976 0.53072281 -0.121226618
    outer loop
      vertex 0.0420448208 -0.0487719921 0.012
      vertex 0.0386812351 -0.0454084064 0.05
      vertex 0.0419450796 -0.0402497553 0.05
    endloop
  endfacet
  facet normal -0.83585009 0.535179694 -0.122218336
    outer loop
      vertex 0.0420448208 -0.0487719921 0.012
      vertex 0.0419450796 -0.0402497553 0.05
      vertex 0.0455924778 -0.0432312186 0.012
    endloop
  endfacet
  facet normal -0.942881835 0.312636691 -0.115031062
    outer loop
      vertex 0.0455924778 -0.0432312186 0.012
      vertex 0.0419450796 -0.0402497553 0.05
      vertex 0.0442145801 -0.0334051626 0.05
    endloop
  endfacet
  facet normal -0.941666597 0.31597868 -0.11585117
    outer loop
      vertex 0.0455924778 -0.0432312186 0.012
      vertex 0.0442145801 -0.0334051626 0.05
      vertex 0.0480593262 -0.0358796191 0.012
    endloop
  endfacet
  facet normal -0.984430416 0.138211162 -0.108602171
    outer loop
      vertex 0.0480593262 -0.0358796191 0.012
      vertex 0.0442145801 -0.0334051626 0.05
      vertex 0.0455559179 -0.0238512763 0.05
    endloop
  endfacet
  facet normal -0.984147405 0.139828656 -0.109095521
    outer loop
      vertex 0.0480593262 -0.0358796191 0.012
      vertex 0.0455559179 -0.0238512763 0.05
      vertex 0.049517302 -0.0256180375 0.012
    endloop
  endfacet
  facet normal -0.994350577 0.0185136138 -0.104518783
    outer loop
      vertex 0.049517302 -0.0256180375 0.012
      vertex 0.0455559179 -0.0238512763 0.05
      vertex 0.046 0 0.05
    endloop
  endfacet
  facet normal -0.994330896 0.0187352954 -0.10466641
    outer loop
      vertex 0.049517302 -0.0256180375 0.012
      vertex 0.046 0 0.05
      vertex 0.05 0 0.012
    endloop
  endfacet
  facet normal -0.942851272 -0.0171731334 -0.332771037
    outer loop
      vertex 0.046 0 0.05
      vertex 0.04 0 0.067
      vertex 0.0396138416 0.0212011344 0.067
    endloop
  endfacet
  facet normal -0.942994276 -0.0175574212 -0.332345502
    outer loop
      vertex 0.046 0 0.05
      vertex 0.0396138416 0.0212011344 0.067
      vertex 0.0455559179 0.0238512763 0.05
    endloop
  endfacet
  facet normal -0.929895217 -0.127716436 -0.344939702
    outer loop
      vertex 0.0455559179 0.0238512763 0.05
      vertex 0.0396138416 0.0212011344 0.067
      vertex 0.0384474609 0.0296934779 0.067
    endloop
  endfacet
  facet normal -0.929866816 -0.130550591 -0.343953844
    outer loop
      vertex 0.0455559179 0.0238512763 0.05
      vertex 0.0384474609 0.0296934779 0.067
      vertex 0.0442145801 0.0334051626 0.05
    endloop
  endfacet
  facet normal -0.886182969 -0.287448971 -0.363390748
    outer loop
      vertex 0.0442145801 0.0334051626 0.05
      vertex 0.0384474609 0.0296934779 0.067
      vertex 0.0364739822 0.0357775602 0.067
    endloop
  endfacet
  facet normal -0.884827552 -0.293387302 -0.361944876
    outer loop
      vertex 0.0442145801 0.0334051626 0.05
      vertex 0.0364739822 0.0357775602 0.067
      vertex 0.0419450796 0.0402497553 0.05
    endloop
  endfacet
  facet normal -0.786165712 -0.486588762 -0.381018175
    outer loop
      vertex 0.0419450796 0.0402497553 0.05
      vertex 0.0364739822 0.0357775602 0.067
      vertex 0.0336358566 0.0403630279 0.067
    endloop
  endfacet
  facet normal -0.782037644 -0.494790045 -0.378945821
    outer loop
      vertex 0.0419450796 0.0402497553 0.05
      vertex 0.0336358566 0.0403630279 0.067
      vertex 0.0386812351 0.0454084064 0.05
    endloop
  endfacet
  facet normal -0.613660155 -0.688521422 -0.386470525
    outer loop
      vertex 0.0386812351 0.0454084064 0.05
      vertex 0.0336358566 0.0403630279 0.067
      vertex 0.0298146335 0.0437687787 0.067
    endloop
  endfacet
  facet normal -0.606886763 -0.696053328 -0.383664204
    outer loop
      vertex 0.0386812351 0.0454084064 0.05
      vertex 0.0298146335 0.0437687787 0.067
      vertex 0.0342868286 0.049239876 0.05
    endloop
  endfacet
  facet normal -0.392534649 -0.84038472 -0.373724594
    outer loop
      vertex 0.0342868286 0.049239876 0.05
      vertex 0.0298146335 0.0437687787 0.067
      vertex 0.0247445649 0.0461369531 0.067
    endloop
  endfacet
  facet normal -0.385971625 -0.844696793 -0.370827767
    outer loop
      vertex 0.0342868286 0.049239876 0.05
      vertex 0.0247445649 0.0461369531 0.067
      vertex 0.0284562496 0.0519040723 0.05
    endloop
  endfacet
  facet normal -0.181655887 -0.918489526 -0.35125223
    outer loop
      vertex 0.0284562496 0.0519040723 0.05
      vertex 0.0247445649 0.0461369531 0.067
      vertex 0.017667612 0.04753661 0.067
    endloop
  endfacet
  facet normal -0.17798949 -0.919950394 -0.349300751
    outer loop
      vertex 0.0284562496 0.0519040723 0.05
      vertex 0.017667612 0.04753661 0.067
      vertex 0.0203177538 0.0534786862 0.05
    endloop
  endfacet
  facet normal -0.0247201103 -0.942500419 -0.333289479
    outer loop
      vertex 0.0203177538 0.0534786862 0.05
      vertex 0.017667612 0.04753661 0.067
      vertex 3.13004383e-10 0.048 0.067
    endloop
  endfacet
  facet normal -0.0241882079 -0.942714436 -0.332722742
    outer loop
      vertex 0.0203177538 0.0534786862 0.05
      vertex 3.13004383e-10 0.048 0.067
      vertex 3.59955041e-10 0.054 0.05
    endloop
  endfacet
  facet normal 0.0247253977 -0.942702043 -0.332718368
    outer loop
      vertex 3.59955041e-10 0.054 0.05
      vertex 3.13004383e-10 0.048 0.067
      vertex -0.017667612 0.04753661 0.067
    endloop
  endfacet
  facet normal 0.0241837087 -0.942539118 -0.333219386
    outer loop
      vertex 3.59955041e-10 0.054 0.05
      vertex -0.017667612 0.04753661 0.067
      vertex -0.0203177538 0.0534786862 0.05
    endloop
  endfacet
  facet normal 0.181776312 -0.91909842 -0.349593288
    outer loop
      vertex -0.0203177538 0.0534786862 0.05
      vertex -0.017667612 0.04753661 0.067
      vertex -0.0247445649 0.0461369531 0.067
    endloop
  endfacet
  facet normal 0.177886968 -0.919420498 -0.35074517
    outer loop
      vertex -0.0203177538 0.0534786862 0.05
      vertex -0.0247445649 0.0461369531 0.067
      vertex -0.0284562496 0.0519040723 0.05
    endloop
  endfacet
  facet normal 0.392963019 -0.841301825 -0.371202512
    outer loop
      vertex -0.0284562496 0.0519040723 0.05
      vertex -0.0247445649 0.0461369531 0.067
      vertex -0.0298146335 0.0437687787 0.067
    endloop
  endfacet
  facet normal 0.385604756 -0.843893902 -0.373030903
    outer loop
      vertex -0.0284562496 0.0519040723 0.05
      vertex -0.0298146335 0.0437687787 0.067
      vertex -0.0342868286 0.049239876 0.05
    endloop
  endfacet
  facet normal 0.614475965 -0.689436754 -0.383531291
    outer loop
      vertex -0.0342868286 0.049239876 0.05
      vertex -0.0298146335 0.0437687787 0.067
      vertex -0.0336358566 0.0403630279 0.067
    endloop
  endfacet
  facet normal 0.606179371 -0.695242003 -0.386244906
    outer loop
      vertex -0.0342868286 0.049239876 0.05
      vertex -0.0336358566 0.0403630279 0.067
      vertex -0.0386812351 0.0454084064 0.05
    endloop
  endfacet
  facet normal 0.787146182 -0.487195614 -0.37820804
    outer loop
      vertex -0.0386812351 0.0454084064 0.05
      vertex -0.0336358566 0.0403630279 0.067
      vertex -0.0364739822 0.0357775602 0.067
    endloop
  endfacet
  facet normal 0.781175968 -0.494244868 -0.381426424
    outer loop
      vertex -0.0386812351 0.0454084064 0.05
      vertex -0.0364739822 0.0357775602 0.067
      vertex -0.0419450796 0.0402497553 0.05
    endloop
  endfacet
  facet normal 0.887009409 -0.287717041 -0.361155385
    outer loop
      vertex -0.0419450796 0.0402497553 0.05
      vertex -0.0364739822 0.0357775602 0.067
      vertex -0.0384474609 0.0296934779 0.067
    endloop
  endfacet
  facet normal 0.884095135 -0.293144451 -0.363925986
    outer loop
      vertex -0.0419450796 0.0402497553 0.05
      vertex -0.0384474609 0.0296934779 0.067
      vertex -0.0442145801 0.0334051626 0.05
    endloop
  endfacet
  facet normal 0.930406069 -0.127786599 -0.343533307
    outer loop
      vertex -0.0442145801 0.0334051626 0.05
      vertex -0.0384474609 0.0296934779 0.067
      vertex -0.0396138416 0.0212011344 0.067
    endloop
  endfacet
  facet normal 0.929412774 -0.130486845 -0.345202953
    outer loop
      vertex -0.0442145801 0.0334051626 0.05
      vertex -0.0396138416 0.0212011344 0.067
      vertex -0.0455559179 0.0238512763 0.05
    endloop
  endfacet
  facet normal 0.943019173 -0.017176192 -0.332294775
    outer loop
      vertex -0.0455559179 0.0238512763 0.05
      vertex -0.0396138416 0.0212011344 0.067
      vertex -0.04 5.31186053e-10 0.067
    endloop
  endfacet
  facet normal 0.942845024 -0.0175546427 -0.332768832
    outer loop
      vertex -0.0455559179 0.0238512763 0.05
      vertex -0.04 5.31186053e-10 0.067
      vertex -0.046 5.97584309e-10 0.05
    endloop
  endfacet
  facet normal 0.942851272 0.017173133 -0.332771037
    outer loop
      vertex -0.046 5.97584309e-10 0.05
      vertex -0.04 5.31186053e-10 0.067
      vertex -0.0396138416 -0.0212011344 0.067
    endloop
  endfacet
  facet normal 0.942994276 0.0175574207 -0.332345502
    outer loop
      vertex -0.046 5.97584309e-10 0.05
      vertex -0.0396138416 -0.0212011344 0.067
      vertex -0.0455559179 -0.0238512763 0.05
    endloop
  endfacet
  facet normal 0.929895217 0.127716436 -0.344939702
    outer loop
      vertex -0.0455559179 -0.0238512763 0.05
      vertex -0.0396138416 -0.0212011344 0.067
      vertex -0.0384474609 -0.0296934779 0.067
    endloop
  endfacet
  facet normal 0.929866816 0.130550591 -0.343953844
    outer loop
      vertex -0.0455559179 -0.0238512763 0.05
      vertex -0.0384474609 -0.0296934779 0.067
      vertex -0.0442145801 -0.0334051626 0.05
    endloop
  endfacet
  facet normal 0.886182969 0.287448971 -0.363390748
    outer loop
      vertex -0.0442145801 -0.0334051626 0.05
      vertex -0.0384474609 -0.0296934779 0.067
      vertex -0.0364739822 -0.0357775602 0.067
    endloop
  endfacet
  facet normal 0.884827552 0.293387302 -0.361944876
    outer loop
      vertex -0.0442145801 -0.0334051626 0.05
      vertex -0.0364739822 -0.0357775602 0.067
      vertex -0.0419450796 -0.0402497553 0.05
    endloop
  endfacet
  facet normal 0.786165712 0.486588762 -0.381018175
    outer loop
      vertex -0.0419450796 -0.0402497553 0.05
      vertex -0.0364739822 -0.0357775602 0.067
      vertex -0.0336358566 -0.0403630279 0.067
    endloop
  endfacet
  facet normal 0.782037644 0.494790045 -0.378945821
    outer loop
      vertex -0.0419450796 -0.0402497553 0.05
      vertex -0.0336358566 -0.0403630279 0.067
      vertex -0.0386812351 -0.0454084064 0.05
    endloop
  endfacet
  facet normal 0.613660155 0.688521422 -0.386470525
    outer loop
      vertex -0.0386812351 -0.0454084064 0.05
      vertex -0.0336358566 -0.0403630279 0.067
      vertex -0.0298146335 -0.0437687787 0.067
    endloop
  endfacet
  facet normal 0.606886763 0.696053328 -0.383664204
    outer loop
      vertex -0.0386812351 -0.0454084064 0.05
      vertex -0.0298146335 -0.0437687787 0.067
      vertex -0.0342868286 -0.049239876 0.05
    endloop
  endfacet
  facet normal 0.392534649 0.84038472 -0.373724594
    outer loop
      vertex -0.0342868286 -0.049239876 0.05
      vertex -0.0298146335 -0.0437687787 0.067
      vertex -0.0247445649 -0.0461369531 0.067
    endloop
  endfacet
  facet normal 0.385971625 0.844696793 -0.370827767
    outer loop
      vertex -0.0342868286 -0.049239876 0.05
      vertex -0.0247445649 -0.0461369531 0.067
      vertex -0.0284562496 -0.0519040723 0.05
    endloop
  endfacet
  facet normal 0.181655887 0.918489526 -0.35125223
    outer loop
      vertex -0.0284562496 -0.0519040723 0.05
      vertex -0.0247445649 -0.0461369531 0.067
      vertex -0.017667612 -0.04753661 0.067
    endloop
  endfacet
  facet normal 0.17798949 0.919950394 -0.349300751
    outer loop
      vertex -0.0284562496 -0.0519040723 0.05
      vertex -0.017667612 -0.04753661 0.067
      vertex -0.0203177538 -0.0534786862 0.05
    endloop
  endfacet
  facet normal 0.0247201106 0.942500419 -0.333289479
    outer loop
      vertex -0.0203177538 -0.0534786862 0.05
      vertex -0.017667612 -0.04753661 0.067
      vertex -5.42139495e-10 -0.048 0.067
    endloop
  endfacet
  facet normal 0.0241882082 0.942714436 -0.332722742
    outer loop
      vertex -0.0203177538 -0.0534786862 0.05
      vertex -5.42139495e-10 -0.048 0.067
      vertex -6.23460419e-10 -0.054 0.05
    endloop
  endfacet
  facet normal -0.0247253974 0.942702043 -0.332718368
    outer loop
      vertex -6.23460419e-10 -0.054 0.05
      vertex -5.42139495e-10 -0.048 0.067
      vertex 0.017667612 -0.04753661 0.067
    endloop
  endfacet
  facet normal -0.0241837084 0.942539118 -0.333219386
    outer loop
      vertex -6.23460419e-10 -0.054 0.05
      vertex 0.017667612 -0.04753661 0.067
      vertex 0.0203177538 -0.0534786862 0.05
    endloop
  endfacet
  facet normal -0.181776312 0.91909842 -0.349593288
    outer loop
      vertex 0.0203177538 -0.0534786862 0.05
      vertex 0.017667612 -0.04753661 0.067
      vertex 0.0247445649 -0.0461369531 0.067
    endloop
  endfacet
  facet normal -0.177886968 0.919420498 -0.35074517
    outer loop
      vertex 0.0203177538 -0.0534786862 0.05
      vertex 0.0247445649 -0.0461369531 0.067
      vertex 0.0284562496 -0.0519040723 0.05
    endloop
  endfacet
  facet normal -0.392963019 0.841301825 -0.371202512
    outer loop
      vertex 0.0284562496 -0.0519040723 0.05
      vertex 0.0247445649 -0.0461369531 0.067
      vertex 0.0298146335 -0.0437687787 0.067
    endloop
  endfacet
  facet normal -0.385604756 0.843893902 -0.373030903
    outer loop
      vertex 0.0284562496 -0.0519040723 0.05
      vertex 0.0298146335 -0.0437687787 0.067
      vertex 0.0342868286 -0.049239876 0.05
    endloop
  endfacet
  facet normal -0.614475965 0.689436754 -0.383531291
    outer loop
      vertex 0.0342868286 -0.049239876 0.05
      vertex 0.0298146335 -0.0437687787 0.067
      vertex 0.0336358566 -0.0403630279 0.067
    endloop
  endfacet
  facet normal -0.606179371 0.695242003 -0.386244906
    outer loop
      vertex 0.0342868286 -0.049239876 0.05
      vertex 0.0336358566 -0.0403630279 0.067
      vertex 0.0386812351 -0.0454084064 0.05
    endloop
  endfacet
  facet normal -0.787146182 0.487195614 -0.37820804
    outer loop
      vertex 0.0386812351 -0.0454084064 0.05
      vertex 0.0336358566 -0.0403630279 0.067
      vertex 0.0364739822 -0.0357775602 0.067
    endloop
  endfacet
  facet normal -0.781175968 0.494244868 -0.381426424
    outer loop
      vertex 0.0386812351 -0.0454084064 0.05
      vertex 0.0364739822 -0.0357775602 0.067
      vertex 0.0419450796 -0.0402497553 0.05
    endloop
  endfacet
  facet normal -0.887009409 0.287717041 -0.361155385
    outer loop
      vertex 0.0419450796 -0.0402497553 0.05
      vertex 0.0364739822 -0.0357775602 0.067
      vertex 0.0384474609 -0.0296934779 0.067
    endloop
  endfacet
  facet normal -0.884095135 0.293144451 -0.363925986
    outer loop
      vertex 0.0419450796 -0.0402497553 0.05
      vertex 0.0384474609 -0.0296934779 0.067
      vertex 0.0442145801 -0.0334051626 0.05
    endloop
  endfacet
  facet normal -0.930406069 0.127786599 -0.343533307
    outer loop
      vertex 0.0442145801 -0.0334051626 0.05
      vertex 0.0384474609 -0.0296934779 0.067
      vertex 0.0396138416 -0.0212011344 0.067
    endloop
  endfacet
  facet normal -0.929412774 0.130486845 -0.345202953
    outer loop
      vertex 0.0442145801 -0.0334051626 0.05
      vertex 0.0396138416 -0.0212011344 0.067
      vertex 0.0455559179 -0.0238512763 0.05
    endloop
  endfacet
  facet normal -0.943019173 0.0171761916 -0.332294775
    outer loop
      vertex 0.0455559179 -0.0238512763 0.05
      vertex 0.0396138416 -0.0212011344 0.067
      vertex 0.04 0 0.067
    endloop
  endfacet
  facet normal -0.942845024 0.0175546423 -0.332768832
    outer loop
      vertex 0.0455559179 -0.0238512763 0.05
      vertex 0.04 0 0.067
      vertex 0.046 0 0.05
    endloop
  endfacet
  facet normal 0 0 -1
    outer loop
      vertex 0 0 0
      vertex 0.0465462639 0.0242929666 0
      vertex 0.047 0 0
    endloop
  endfacet
  facet normal 0 0 1
    outer loop
      vertex 0 0 0.067
      vertex 0.04 0 0.067
      vertex 0.0396138416 0.0212011344 0.067
    endloop
  endfacet
  facet normal 0 0 -1
    outer loop
      vertex 0 0 0
      vertex 0.0451757666 0.0340237767 0
      vertex 0.0465462639 0.0242929666 0
    endloop
  endfacet
  facet normal 0 0 1
    outer loop
      vertex 0 0 0.067
      vertex 0.0396138416 0.0212011344 0.067
      vertex 0.0384474609 0.0296934779 0.067
    endloop
  endfacet
  facet normal 0 0 -1
    outer loop
      vertex 0 0 0
      vertex 0.0428569291 0.0409951211 0
      vertex 0.0451757666 0.0340237767 0
    endloop
  endfacet
  facet normal 0 0 1
    outer loop
      vertex 0 0 0.067
      vertex 0.0384474609 0.0296934779 0.067
      vertex 0.0364739822 0.0357775602 0.067
    endloop
  endfacet
  facet normal 0 0 -1
    outer loop
      vertex 0 0 0
      vertex 0.0395221315 0.0462493028 0
      vertex 0.0428569291 0.0409951211 0
    endloop
  endfacet
  facet normal 0 0 1
    outer loop
      vertex 0 0 0.067
      vertex 0.0364739822 0.0357775602 0.067
      vertex 0.0336358566 0.0403630279 0.067
    endloop
  endfacet
  facet normal 0 0 -1
    outer loop
      vertex 0 0 0
      vertex 0.0350321944 0.0501517256 0
      vertex 0.0395221315 0.0462493028 0
    endloop
  endfacet
  facet normal 0 0 1
    outer loop
      vertex 0 0 0.067
      vertex 0.0336358566 0.0403630279 0.067
      vertex 0.0298146335 0.0437687787 0.067
    endloop
  endfacet
  facet normal 0 0 -1
    outer loop
      vertex 0 0 0
      vertex 0.0290748638 0.0528652588 0
      vertex 0.0350321944 0.0501517256 0
    endloop
  endfacet
  facet normal 0 0 1
    outer loop
      vertex 0 0 0.067
      vertex 0.0298146335 0.0437687787 0.067
      vertex 0.0247445649 0.0461369531 0.067
    endloop
  endfacet
  facet normal 0 0 -1
    outer loop
      vertex 0 0 0
      vertex 0.0207594441 0.0544690322 0
      vertex 0.0290748638 0.0528652588 0
    endloop
  endfacet
  facet normal 0 0 1
    outer loop
      vertex 0 0 0.067
      vertex 0.0247445649 0.0461369531 0.067
      vertex 0.017667612 0.04753661 0.067
    endloop
  endfacet
  facet normal 0 0 -1
    outer loop
      vertex 0 0 0
      vertex 3.6778015e-10 0.055 0
      vertex 0.0207594441 0.0544690322 0
    endloop
  endfacet
  facet normal 0 0 1
    outer loop
      vertex 0 0 0.067
      vertex 0.017667612 0.04753661 0.067
      vertex 3.13004383e-10 0.048 0.067
    endloop
  endfacet
  facet normal 0 0 -1
    outer loop
      vertex 0 0 0
      vertex -0.0207594441 0.0544690322 0
      vertex 3.6778015e-10 0.055 0
    endloop
  endfacet
  facet normal 0 -0 1
    outer loop
      vertex 0 0 0.067
      vertex 3.13004383e-10 0.048 0.067
      vertex -0.017667612 0.04753661 0.067
    endloop
  endfacet
  facet normal 0 0 -1
    outer loop
      vertex 0 0 0
      vertex -0.0290748638 0.0528652588 0
      vertex -0.0207594441 0.0544690322 0
    endloop
  endfacet
  facet normal 0 0 1
    outer loop
      vertex 0 0 0.067
      vertex -0.017667612 0.04753661 0.067
      vertex -0.0247445649 0.0461369531 0.067
    endloop
  endfacet
  facet normal 0 0 -1
    outer loop
      vertex 0 0 0
      vertex -0.0350321944 0.0501517256 0
      vertex -0.0290748638 0.0528652588 0
    endloop
  endfacet
  facet normal 0 0 1
    outer loop
      vertex 0 0 0.067
      vertex -0.0247445649 0.0461369531 0.067
      vertex -0.0298146335 0.0437687787 0.067
    endloop
  endfacet
  facet normal 0 0 -1
    outer loop
      vertex 0 0 0
      vertex -0.0395221315 0.0462493028 0
      vertex -0.0350321944 0.0501517256 0
    endloop
  endfacet
  facet normal 0 0 1
    outer loop
      vertex 0 0 0.067
      vertex -0.0298146335 0.0437687787 0.067
      vertex -0.0336358566 0.0403630279 0.067
    endloop
  endfacet
  facet normal 0 0 -1
    outer loop
      vertex 0 0 0
      vertex -0.0428569291 0.0409951211 0
      vertex -0.0395221315 0.0462493028 0
    endloop
  endfacet
  facet normal 0 0 1
    outer loop
      vertex 0 0 0.067
      vertex -0.0336358566 0.0403630279 0.067
      vertex -0.0364739822 0.0357775602 0.067
    endloop
  endfacet
  facet normal 0 0 -1
    outer loop
      vertex 0 0 0
      vertex -0.0451757666 0.0340237767 0
      vertex -0.0428569291 0.0409951211 0
    endloop
  endfacet
  facet normal 0 0 1
    outer loop
      vertex 0 0 0.067
      vertex -0.0364739822 0.0357775602 0.067
      vertex -0.0384474609 0.0296934779 0.067
    endloop
  endfacet
  facet normal 0 0 -1
    outer loop
      vertex 0 0 0
      vertex -0.0465462639 0.0242929666 0
      vertex -0.0451757666 0.0340237767 0
    endloop
  endfacet
  facet normal 0 0 1
    outer loop
      vertex 0 0 0.067
      vertex -0.0384474609 0.0296934779 0.067
      vertex -0.0396138416 0.0212011344 0.067
    endloop
  endfacet
  facet normal 0 0 -1
    outer loop
      vertex 0 0 0
      vertex -0.047 6.08650685e-10 0
      vertex -0.0465462639 0.0242929666 0
    endloop
  endfacet
  facet normal 0 0 1
    outer loop
      vertex 0 0 0.067
      vertex -0.0396138416 0.0212011344 0.067
      vertex -0.04 5.31186053e-10 0.067
    endloop
  endfacet
  facet normal -0 0 -1
    outer loop
      vertex 0 0 0
      vertex -0.0465462639 -0.0242929666 0
      vertex -0.047 6.08650685e-10 0
    endloop
  endfacet
  facet normal 0 0 1
    outer loop
      vertex 0 0 0.067
      vertex -0.04 5.31186053e-10 0.067
      vertex -0.0396138416 -0.0212011344 0.067
    endloop
  endfacet
  facet normal 0 0 -1
    outer loop
      vertex 0 0 0
      vertex -0.0451757666 -0.0340237767 0
      vertex -0.0465462639 -0.0242929666 0
    endloop
  endfacet
  facet normal 0 0 1
    outer loop
      vertex 0 0 0.067
      vertex -0.0396138416 -0.0212011344 0.067
      vertex -0.0384474609 -0.0296934779 0.067
    endloop
  endfacet
  facet normal 0 0 -1
    outer loop
      vertex 0 0 0
      vertex -0.0428569291 -0.0409951211 0
      vertex -0.0451757666 -0.0340237767 0
    endloop
  endfacet
  facet normal 0 0 1
    outer loop
      vertex 0 0 0.067
      vertex -0.0384474609 -0.0296934779 0.067
      vertex -0.0364739822 -0.0357775602 0.067
    endloop
  endfacet
  facet normal 0 0 -1
    outer loop
      vertex 0 0 0
      vertex -0.0395221315 -0.0462493028 0
      vertex -0.0428569291 -0.0409951211 0
    endloop
  endfacet
  facet normal 0 0 1
    outer loop
      vertex 0 0 0.067
      vertex -0.0364739822 -0.0357775602 0.067
      vertex -0.0336358566 -0.0403630279 0.067
    endloop
  endfacet
  facet normal 0 0 -1
    outer loop
      vertex 0 0 0
      vertex -0.0350321944 -0.0501517256 0
      vertex -0.0395221315 -0.0462493028 0
    endloop
  endfacet
  facet normal 0 0 1
    outer loop
      vertex 0 0 0.067
      vertex -0.0336358566 -0.0403630279 0.067
      vertex -0.0298146335 -0.0437687787 0.067
    endloop
  endfacet
  facet normal 0 0 -1
    outer loop
      vertex 0 0 0
      vertex -0.0290748638 -0.0528652588 0
      vertex -0.0350321944 -0.0501517256 0
    endloop
  endfacet
  facet normal 0 0 1
    outer loop
      vertex 0 0 0.067
      vertex -0.0298146335 -0.0437687787 0.067
      vertex -0.0247445649 -0.0461369531 0.067
    endloop
  endfacet
  facet normal 0 0 -1
    outer loop
      vertex 0 0 0
      vertex -0.0207594441 -0.0544690322 0
      vertex -0.0290748638 -0.0528652588 0
    endloop
  endfacet
  facet normal 0 0 1
    outer loop
      vertex 0 0 0.067
      vertex -0.0247445649 -0.0461369531 0.067
      vertex -0.017667612 -0.04753661 0.067
    endloop
  endfacet
  facet normal 0 0 -1
    outer loop
      vertex 0 0 0
      vertex -6.37013906e-10 -0.055 0
      vertex -0.0207594441 -0.0544690322 0
    endloop
  endfacet
  facet normal 0 0 1
    outer loop
      vertex 0 0 0.067
      vertex -0.017667612 -0.04753661 0.067
      vertex -5.42139495e-10 -0.048 0.067
    endloop
  endfacet
  facet normal 0 -0 -1
    outer loop
      vertex 0 0 0
      vertex 0.0207594441 -0.0544690322 0
      vertex -6.37013906e-10 -0.055 0
    endloop
  endfacet
  facet normal 0 0 1
    outer loop
      vertex 0 0 0.067
      vertex -5.42139495e-10 -0.048 0.067
      vertex 0.017667612 -0.04753661 0.067
    endloop
  endfacet
  facet normal 0 0 -1
    outer loop
      vertex 0 0 0
      vertex 0.0290748638 -0.0528652588 0
      vertex 0.0207594441 -0.0544690322 0
    endloop
  endfacet
  facet normal 0 0 1
    outer loop
      vertex 0 0 0.067
      vertex 0.017667612 -0.04753661 0.067
      vertex 0.0247445649 -0.0461369531 0.067
    endloop
  endfacet
  facet normal 0 0 -1
    outer loop
      vertex 0 0 0
      vertex 0.0350321944 -0.0501517256 0
      vertex 0.0290748638 -0.0528652588 0
    endloop
  endfacet
  facet normal 0 0 1
    outer loop
      vertex 0 0 0.067
      vertex 0.0247445649 -0.0461369531 0.067
      vertex 0.0298146335 -0.0437687787 0.067
    endloop
  endfacet
  facet normal 0 0 -1
    outer loop
      vertex 0 0 0
      vertex 0.0395221315 -0.0462493028 0
      vertex 0.0350321944 -0.0501517256 0
    endloop
  endfacet
  facet normal 0 0 1
    outer loop
      vertex 0 0 0.067
      vertex 0.0298146335 -0.0437687787 0.067
      vertex 0.0336358566 -0.0403630279 0.067
    endloop
  endfacet
  facet normal 0 0 -1
    outer loop
      vertex 0 0 0
      vertex 0.0428569291 -0.0409951211 0
      vertex 0.0395221315 -0.0462493028 0
    endloop
  endfacet
  facet normal 0 0 1
    outer loop
      vertex 0 0 0.067
      vertex 0.0336358566 -0.0403630279 0.067
      vertex 0.0364739822 -0.0357775602 0.067
    endloop
  endfacet
  facet normal 0 0 -1
    outer loop
      vertex 0 0 0
      vertex 0.0451757666 -0.0340237767 0
      vertex 0.0428569291 -0.0409951211 0
    endloop
  endfacet
  facet normal 0 0 1
    outer loop
      vertex 0 0 0.067
      vertex 0.0364739822 -0.0357775602 0.067
      vertex 0.0384474609 -0.0296934779 0.067
    endloop
  endfacet
  facet normal 0 0 -1
    outer loop
      vertex 0 0 0
      vertex 0.0465462639 -0.0242929666 0
      vertex 0.0451757666 -0.0340237767 0
    endloop
  endfacet
  facet normal 0 0 1
    outer loop
      vertex 0 0 0.067
      vertex 0.0384474609 -0.0296934779 0.067
      vertex 0.0396138416 -0.0212011344 0.067
    endloop
  endfacet
  facet normal 0 0 -1
    outer loop
      vertex 0 0 0
      vertex 0.047 0 0
      vertex 0.0465462639 -0.0242929666 0
    endloop
  endfacet
  facet normal -0 0 1
    outer loop
      vertex 0 0 0.067
      vertex 0.0396138416 -0.0212011344 0.067
      vertex 0.04 0 0.067
    endloop
  endfacet
endsolid gripper_palm_shell
