solid upper_arm_shell
  facet normal 0.168915115 -0.985338171 -0.024007779
    outer loop
      vertex 0 0.062 0
      vertex 0.035 0.068 0
      vertex 0.035 0.0673435308 0.0269431084
    endloop
  endfacet
  facet normal 0.168181415 -0.985487115 -0.0230251382
    outer loop
      vertex 0 0.062 0
      vertex 0.035 0.0673435308 0.0269431084
      vertex 0 0.0614014545 0.0256180375
    endloop
  endfacet
  facet normal 0.171252203 -0.969008218 -0.17803302
    outer loop
      vertex 0 0.0614014545 0.0256180375
      vertex 0.035 0.0673435308 0.0269431084
      vertex 0.035 0.0653606836 0.0377354615
    endloop
  endfacet
  facet normal 0.169008948 -0.970665131 -0.171012221
    outer loop
      vertex 0 0.0614014545 0.0256180375
      vertex 0.035 0.0653606836 0.0377354615
      vertex 0 0.0595935644 0.0358796191
    endloop
  endfacet
  facet normal 0.16976419 -0.904047391 -0.392273418
    outer loop
      vertex 0 0.0595935644 0.0358796191
      vertex 0.035 0.0653606836 0.0377354615
      vertex 0.035 0.0620057698 0.0454673161
    endloop
  endfacet
  facet normal 0.166508367 -0.910378623 -0.378795099
    outer loop
      vertex 0 0.0595935644 0.0358796191
      vertex 0.035 0.0620057698 0.0454673161
      vertex 0 0.0565346725 0.0432312186
    endloop
  endfacet
  facet normal 0.159095387 -0.760443092 -0.629614932
    outer loop
      vertex 0 0.0565346725 0.0432312186
      vertex 0.035 0.0620057698 0.0454673161
      vertex 0.035 0.0571809562 0.0512946813
    endloop
  endfacet
  facet normal 0.155789369 -0.773612616 -0.614209405
    outer loop
      vertex 0 0.0565346725 0.0432312186
      vertex 0.035 0.0571809562 0.0512946813
      vertex 0 0.0521355777 0.0487719921
    endloop
  endfacet
  facet normal 0.138562023 -0.549122972 -0.824175059
    outer loop
      vertex 0 0.0521355777 0.0487719921
      vertex 0.035 0.0571809562 0.0512946813
      vertex 0.035 0.050684877 0.0556228229
    endloop
  endfacet
  facet normal 0.135824903 -0.565310041 -0.81361917
    outer loop
      vertex 0 0.0521355777 0.0487719921
      vertex 0.035 0.050684877 0.0556228229
      vertex 0 0.046212682 0.0528872742
    endloop
  endfacet
  facet normal 0.115140904 -0.327461534 -0.937822753
    outer loop
      vertex 0 0.046212682 0.0528872742
      vertex 0.035 0.050684877 0.0556228229
      vertex 0.035 0.0420657603 0.0586323779
    endloop
  endfacet
  facet normal 0.112971566 -0.339961243 -0.933629358
    outer loop
      vertex 0 0.046212682 0.0528872742
      vertex 0.035 0.0420657603 0.0586323779
      vertex 0 0.0383540756 0.0557488183
    endloop
  endfacet
  facet normal 0.0965585378 -0.145574525 -0.984624043
    outer loop
      vertex 0 0.0383540756 0.0557488183
      vertex 0.035 0.0420657603 0.0586323779
      vertex 0.035 0.0300349405 0.0604111085
    endloop
  endfacet
  facet normal 0.095001835 -0.151691077 -0.983851853
    outer loop
      vertex 0 0.0383540756 0.0557488183
      vertex 0.035 0.0300349405 0.0604111085
      vertex 0 0.0273847987 0.0574400704
    endloop
  endfacet
  facet normal 0.0860346161 -0.0195304286 -0.996100701
    outer loop
      vertex 0 0.0273847987 0.0574400704
      vertex 0.035 0.0300349405 0.0604111085
      vertex 0.035 5.32107452e-10 0.061
    endloop
  endfacet
  facet normal 0.0853834253 -0.0203678071 -0.996139962
    outer loop
      vertex 0 0.0273847987 0.0574400704
      vertex 0.035 5.32107452e-10 0.061
      vertex 0 4.85156794e-10 0.058
    endloop
  endfacet
  facet normal 0.0853848503 0.0195315237 -0.996156588
    outer loop
      vertex 0 4.85156794e-10 0.058
      vertex 0.035 5.32107452e-10 0.061
      vertex 0.035 -0.0300349405 0.0604111085
    endloop
  endfacet
  facet normal 0.086096054 0.0203665527 -0.996078648
    outer loop
      vertex 0 4.85156794e-10 0.058
      vertex 0.035 -0.0300349405 0.0604111085
      vertex 0 -0.0273847987 0.0574400704
    endloop
  endfacet
  facet normal 0.0946219251 0.145601725 -0.984808016
    outer loop
      vertex 0 -0.0273847987 0.0574400704
      vertex 0.035 -0.0300349405 0.0604111085
      vertex 0.035 -0.0420657603 0.0586323779
    endloop
  endfacet
  facet normal 0.0971235857 0.151659874 -0.983649476
    outer loop
      vertex 0 -0.0273847987 0.0574400704
      vertex 0.035 -0.0420657603 0.0586323779
      vertex 0 -0.0383540756 0.0557488183
    endloop
  endfacet
  facet normal 0.112031556 0.327578719 -0.938158362
    outer loop
      vertex 0 -0.0383540756 0.0557488183
      vertex 0.035 -0.0420657603 0.0586323779
      vertex 0.035 -0.050684877 0.0556228229
    endloop
  endfacet
  facet normal 0.116364445 0.339827243 -0.933261357
    outer loop
      vertex 0 -0.0383540756 0.0557488183
      vertex 0.035 -0.050684877 0.0556228229
      vertex 0 -0.046212682 0.0528872742
    endloop
  endfacet
  facet normal 0.13465482 0.549421726 -0.824623457
    outer loop
      vertex 0 -0.046212682 0.0528872742
      vertex 0.035 -0.050684877 0.0556228229
      vertex 0.035 -0.0571809562 0.0512946813
    endloop
  endfacet
  facet normal 0.140051356 0.564974177 -0.81313578
    outer loop
      vertex 0 -0.046212682 0.0528872742
      vertex 0.035 -0.0571809562 0.0512946813
      vertex 0 -0.0521355777 0.0487719921
    endloop
  endfacet
  facet normal 0.155101072 0.760932504 -0.630020144
    outer loop
      vertex 0 -0.0521355777 0.0487719921
      vertex 0.035 -0.0571809562 0.0512946813
      vertex 0.035 -0.0620057698 0.0454673161
    endloop
  endfacet
  facet normal 0.160059048 0.77307782 -0.613784804
    outer loop
      vertex 0 -0.0521355777 0.0487719921
      vertex 0.035 -0.0620057698 0.0454673161
      vertex 0 -0.0565346725 0.0432312186
    endloop
  endfacet
  facet normal 0.166474518 0.904562072 -0.392496742
    outer loop
      vertex 0 -0.0565346725 0.0432312186
      vertex 0.035 -0.0620057698 0.0454673161
      vertex 0.035 -0.0653606836 0.0377354615
    endloop
  endfacet
  facet normal 0.169990226 0.909829931 -0.378566797
    outer loop
      vertex 0 -0.0565346725 0.0432312186
      vertex 0.035 -0.0653606836 0.0377354615
      vertex 0 -0.0595935644 0.0358796191
    endloop
  endfacet
  facet normal 0.169169938 0.96936197 -0.178098014
    outer loop
      vertex 0 -0.0595935644 0.0358796191
      vertex 0.035 -0.0653606836 0.0377354615
      vertex 0.035 -0.0673435308 0.0269431084
    endloop
  endfacet
  facet normal 0.171201921 0.970292319 -0.170946538
    outer loop
      vertex 0 -0.0595935644 0.0358796191
      vertex 0.035 -0.0673435308 0.0269431084
      vertex 0 -0.0614014545 0.0256180375
    endloop
  endfacet
  facet normal 0.168213796 0.985458069 -0.0240107009
    outer loop
      vertex 0 -0.0614014545 0.0256180375
      vertex 0.035 -0.0673435308 0.0269431084
      vertex 0.035 -0.068 6.75048942e-10
    endloop
  endfacet
  facet normal 0.168919032 0.98536102 -0.0230221927
    outer loop
      vertex 0 -0.0614014545 0.0256180375
      vertex 0.035 -0.068 6.75048942e-10
      vertex 0 -0.062 6.41849814e-10
    endloop
  endfacet
  facet normal 0.168915115 0.985338171 0.0240077784
    outer loop
      vertex 0 -0.062 6.41849814e-10
      vertex 0.035 -0.068 6.75048942e-10
      vertex 0.035 -0.0673435308 -0.0269431084
    endloop
  endfacet
  facet normal 0.168181415 0.985487115 0.0230251376
    outer loop
      vertex 0 -0.062 6.41849814e-10
      vertex 0.035 -0.0673435308 -0.0269431084
      vertex 0 -0.0614014545 -0.0256180375
    endloop
  endfacet
  facet normal 0.171252203 0.969008218 0.17803302
    outer loop
      vertex 0 -0.0614014545 -0.0256180375
      vertex 0.035 -0.0673435308 -0.0269431084
      vertex 0.035 -0.0653606836 -0.0377354615
    endloop
  endfacet
  facet normal 0.169008948 0.970665131 0.171012221
    outer loop
      vertex 0 -0.0614014545 -0.0256180375
      vertex 0.035 -0.0653606836 -0.0377354615
      vertex 0 -0.0595935644 -0.0358796191
    endloop
  endfacet
  facet normal 0.16976419 0.904047391 0.392273418
    outer loop
      vertex 0 -0.0595935644 -0.0358796191
      vertex 0.035 -0.0653606836 -0.0377354615
      vertex 0.035 -0.0620057698 -0.0454673161
    endloop
  endfacet
  facet normal 0.166508367 0.910378623 0.378795099
    outer loop
      vertex 0 -0.0595935644 -0.0358796191
      vertex 0.035 -0.0620057698 -0.0454673161
      vertex 0 -0.0565346725 -0.0432312186
    endloop
  endfacet
  facet normal 0.159095387 0.760443092 0.629614932
    outer loop
      vertex 0 -0.0565346725 -0.0432312186
      vertex 0.035 -0.0620057698 -0.0454673161
      vertex 0.035 -0.0571809562 -0.0512946813
    endloop
  endfacet
  facet normal 0.155789369 0.773612616 0.614209405
    outer loop
      vertex 0 -0.0565346725 -0.0432312186
      vertex 0.035 -0.0571809562 -0.0512946813
      vertex 0 -0.0521355777 -0.0487719921
    endloop
  endfacet
  facet normal 0.138562023 0.549122972 0.824175059
    outer loop
      vertex 0 -0.0521355777 -0.0487719921
      vertex 0.035 -0.0571809562 -0.0512946813
      vertex 0.035 -0.050684877 -0.0556228229
    endloop
  endfacet
  facet normal 0.135824903 0.565310041 0.81361917
    outer loop
      vertex 0 -0.0521355777 -0.0487719921
      vertex 0.035 -0.050684877 -0.0556228229
      vertex 0 -0.046212682 -0.0528872742
    endloop
  endfacet
  facet normal 0.115140904 0.327461534 0.937822753
    outer loop
      vertex 0 -0.046212682 -0.0528872742
      vertex 0.035 -0.050684877 -0.0556228229
      vertex 0.035 -0.0420657603 -0.0586323779
    endloop
  endfacet
  facet normal 0.112971566 0.339961243 0.933629358
    outer loop
      vertex 0 -0.046212682 -0.0528872742
      vertex 0.035 -0.0420657603 -0.0586323779
      vertex 0 -0.0383540756 -0.0557488183
    endloop
  endfacet
  facet normal 0.0965585378 0.145574525 0.984624043
    outer loop
      vertex 0 -0.0383540756 -0.0557488183
      vertex 0.035 -0.0420657603 -0.0586323779
      vertex 0.035 -0.0300349405 -0.0604111085
    endloop
  endfacet
  facet normal 0.095001835 0.151691077 0.983851853
    outer loop
      vertex 0 -0.0383540756 -0.0557488183
      vertex 0.035 -0.0300349405 -0.0604111085
      vertex 0 -0.0273847987 -0.0574400704
    endloop
  endfacet
  facet normal 0.0860346161 0.0195304289 0.996100701
    outer loop
      vertex 0 -0.0273847987 -0.0574400704
      vertex 0.035 -0.0300349405 -0.0604111085
      vertex 0.035 -9.21637141e-10 -0.061
    endloop
  endfacet
  facet normal 0.0853834253 0.0203678074 0.996139962
    outer loop
      vertex 0 -0.0273847987 -0.0574400704
      vertex 0.035 -9.21637141e-10 -0.061
      vertex 0 -8.40316217e-10 -0.058
    endloop
  endfacet
  facet normal 0.0853848503 -0.0195315234 0.996156588
    outer loop
      vertex 0 -8.40316217e-10 -0.058
      vertex 0.035 -9.21637141e-10 -0.061
      vertex 0.035 0.0300349405 -0.0604111085
    endloop
  endfacet
  facet normal 0.0860960539 -0.0203665525 0.996078648
    outer loop
      vertex 0 -8.40316217e-10 -0.058
      vertex 0.035 0.0300349405 -0.0604111085
      vertex 0 0.0273847987 -0.0574400704
    endloop
  endfacet
  facet normal 0.0946219251 -0.145601725 0.984808016
    outer loop
      vertex 0 0.0273847987 -0.0574400704
      vertex 0.035 0.0300349405 -0.0604111085
      vertex 0.035 0.0420657603 -0.0586323779
    endloop
  endfacet
  facet normal 0.0971235857 -0.151659874 0.983649476
    outer loop
      vertex 0 0.0273847987 -0.0574400704
      vertex 0.035 0.0420657603 -0.0586323779
      vertex 0 0.0383540756 -0.0557488183
    endloop
  endfacet
  facet normal 0.112031556 -0.327578719 0.938158362
    outer loop
      vertex 0 0.0383540756 -0.0557488183
      vertex 0.035 0.0420657603 -0.0586323779
      vertex 0.035 0.050684877 -0.0556228229
    endloop
  endfacet
  facet normal 0.116364445 -0.339827243 0.933261357
    outer loop
      vertex 0 0.0383540756 -0.0557488183
      vertex 0.035 0.050684877 -0.0556228229
      vertex 0 0.046212682 -0.0528872742
    endloop
  endfacet
  facet normal 0.13465482 -0.549421726 0.824623457
    outer loop
      vertex 0 0.046212682 -0.0528872742
      vertex 0.035 0.050684877 -0.0556228229
      vertex 0.035 0.0571809562 -0.0512946813
    endloop
  endfacet
  facet normal 0.140051356 -0.564974177 0.81313578
    outer loop
      vertex 0 0.046212682 -0.0528872742
      vertex 0.035 0.0571809562 -0.0512946813
      vertex 0 0.0521355777 -0.0487719921
    endloop
  endfacet
  facet normal 0.155101072 -0.760932504 0.630020144
    outer loop
      vertex 0 0.0521355777 -0.0487719921
      vertex 0.035 0.0571809562 -0.0512946813
      vertex 0.035 0.0620057698 -0.0454673161
    endloop
  endfacet
  facet normal 0.160059048 -0.77307782 0.613784804
    outer loop
      vertex 0 0.0521355777 -0.0487719921
      vertex 0.035 0.0620057698 -0.0454673161
      vertex 0 0.0565346725 -0.0432312186
    endloop
  endfacet
  facet normal 0.166474518 -0.904562072 0.392496742
    outer loop
      vertex 0 0.0565346725 -0.0432312186
      vertex 0.035 0.0620057698 -0.0454673161
      vertex 0.035 0.0653606836 -0.0377354615
    endloop
  endfacet
  facet normal 0.169990226 -0.909829931 0.378566797
    outer loop
      vertex 0 0.0565346725 -0.0432312186
      vertex 0.035 0.0653606836 -0.0377354615
      vertex 0 0.0595935644 -0.0358796191
    endloop
  endfacet
  facet normal 0.169169938 -0.96936197 0.178098014
    outer loop
      vertex 0 0.0595935644 -0.0358796191
      vertex 0.035 0.0653606836 -0.0377354615
      vertex 0.035 0.0673435308 -0.0269431084
    endloop
  endfacet
  facet normal 0.171201921 -0.970292319 0.170946538
    outer loop
      vertex 0 0.0595935644 -0.0358796191
      vertex 0.035 0.0673435308 -0.0269431084
      vertex 0 0.0614014545 -0.0256180375
    endloop
  endfacet
  facet normal 0.168213796 -0.985458069 0.0240107003
    outer loop
      vertex 0 0.0614014545 -0.0256180375
      vertex 0.035 0.0673435308 -0.0269431084
      vertex 0.035 0.068 0
    endloop
  endfacet
  facet normal 0.168919032 -0.98536102 0.0230221921
    outer loop
      vertex 0 0.0614014545 -0.0256180375
      vertex 0.035 0.068 0
      vertex 0 0.062 0
    endloop
  endfacet
  facet normal -0.0747670896 -0.996894528 -0.0247221069
    outer loop
      vertex 0.035 0.068 0
      vertex 0.155 0.059 0
      vertex 0.155 0.0584304164 0.0229678957
    endloop
  endfacet
  facet normal -0.0748502489 -0.996898923 -0.0242894569
    outer loop
      vertex 0.035 0.068 0
      vertex 0.155 0.0584304164 0.0229678957
      vertex 0.035 0.0673435308 0.0269431084
    endloop
  endfacet
  facet normal -0.0788532388 -0.979900303 -0.183241814
    outer loop
      vertex 0.035 0.0673435308 0.0269431084
      vertex 0.155 0.0584304164 0.0229678957
      vertex 0.155 0.0567100049 0.0321679344
    endloop
  endfacet
  facet normal -0.0790380908 -0.980460899 -0.180137188
    outer loop
      vertex 0.035 0.0673435308 0.0269431084
      vertex 0.155 0.0567100049 0.0321679344
      vertex 0.035 0.0653606836 0.0377354615
    endloop
  endfacet
  facet normal -0.0843859051 -0.911498713 -0.402553245
    outer loop
      vertex 0.035 0.0653606836 0.0377354615
      vertex 0.155 0.0567100049 0.0321679344
      vertex 0.155 0.0537991238 0.0387590236
    endloop
  endfacet
  facet normal -0.0846840318 -0.91406788 -0.396621388
    outer loop
      vertex 0.035 0.0653606836 0.0377354615
      vertex 0.155 0.0537991238 0.0387590236
      vertex 0.035 0.0620057698 0.0454673161
    endloop
  endfacet
  facet normal -0.0879771322 -0.76171843 -0.641907359
    outer loop
      vertex 0.035 0.0620057698 0.0454673161
      vertex 0.155 0.0537991238 0.0387590236
      vertex 0.155 0.0496128885 0.0437266136
    endloop
  endfacet
  facet normal -0.0884500787 -0.767234722 -0.635238116
    outer loop
      vertex 0.035 0.0620057698 0.0454673161
      vertex 0.155 0.0496128885 0.0437266136
      vertex 0.035 0.0571809562 0.0512946813
    endloop
  endfacet
  facet normal -0.0869777024 -0.54561952 -0.83350718
    outer loop
      vertex 0.035 0.0571809562 0.0512946813
      vertex 0.155 0.0496128885 0.0437266136
      vertex 0.155 0.0439765845 0.0474161769
    endloop
  endfacet
  facet normal -0.087571854 -0.552341373 -0.829005536
    outer loop
      vertex 0.035 0.0571809562 0.0512946813
      vertex 0.155 0.0439765845 0.0474161769
      vertex 0.035 0.050684877 0.0556228229
    endloop
  endfacet
  facet normal -0.0825454501 -0.323388511 -0.942659069
    outer loop
      vertex 0.035 0.050684877 0.0556228229
      vertex 0.155 0.0439765845 0.0474161769
      vertex 0.155 0.0364982332 0.0499816992
    endloop
  endfacet
  facet normal -0.0830659255 -0.328514741 -0.94083905
    outer loop
      vertex 0.035 0.050684877 0.0556228229
      vertex 0.155 0.0364982332 0.0499816992
      vertex 0.035 0.0420657603 0.0586323779
    endloop
  endfacet
  facet normal -0.0777734609 -0.143315671 -0.986616393
    outer loop
      vertex 0.035 0.0420657603 0.0586323779
      vertex 0.155 0.0364982332 0.0499816992
      vertex 0.155 0.0260597278 0.0514979941
    endloop
  endfacet
  facet normal -0.0780831497 -0.145811396 -0.98622617
    outer loop
      vertex 0.035 0.0420657603 0.0586323779
      vertex 0.155 0.0260597278 0.0514979941
      vertex 0.035 0.0300349405 0.0604111085
    endloop
  endfacet
  facet normal -0.0746909834 -0.019206294 -0.997021753
    outer loop
      vertex 0.035 0.0300349405 0.0604111085
      vertex 0.155 0.0260597278 0.0514979941
      vertex 0.155 4.61681465e-10 0.052
    endloop
  endfacet
  facet normal -0.074775657 -0.0195482328 -0.99700876
    outer loop
      vertex 0.035 0.0300349405 0.0604111085
      vertex 0.155 4.61681465e-10 0.052
      vertex 0.035 5.32107452e-10 0.061
    endloop
  endfacet
  facet normal -0.0747761528 0.0192061704 -0.997015371
    outer loop
      vertex 0.035 5.32107452e-10 0.061
      vertex 0.155 4.61681465e-10 0.052
      vertex 0.155 -0.0260597278 0.0514979941
    endloop
  endfacet
  facet normal -0.0747017606 0.0195483407 -0.997014297
    outer loop
      vertex 0.035 5.32107452e-10 0.061
      vertex 0.155 -0.0260597278 0.0514979941
      vertex 0.035 -0.0300349405 0.0604111085
    endloop
  endfacet
  facet normal -0.0780279025 0.143312813 -0.986596718
    outer loop
      vertex 0.035 -0.0300349405 0.0604111085
      vertex 0.155 -0.0260597278 0.0514979941
      vertex 0.155 -0.0364982332 0.0499816992
    endloop
  endfacet
  facet normal -0.0778624699 0.14581392 -0.986243244
    outer loop
      vertex 0.035 -0.0300349405 0.0604111085
      vertex 0.155 -0.0364982332 0.0499816992
      vertex 0.035 -0.0420657603 0.0586323779
    endloop
  endfacet
  facet normal -0.082956451 0.323377436 -0.942626788
    outer loop
      vertex 0.035 -0.0420657603 0.0586323779
      vertex 0.155 -0.0364982332 0.0499816992
      vertex 0.155 -0.0439765845 0.0474161769
    endloop
  endfacet
  facet normal -0.082710007 0.328524499 -0.940866998
    outer loop
      vertex 0.035 -0.0420657603 0.0586323779
      vertex 0.155 -0.0439765845 0.0474161769
      vertex 0.035 -0.050684877 0.0556228229
    endloop
  endfacet
  facet normal -0.0874999307 0.545594473 -0.833468916
    outer loop
      vertex 0.035 -0.050684877 0.0556228229
      vertex 0.155 -0.0439765845 0.0474161769
      vertex 0.155 -0.0496128885 0.0437266136
    endloop
  endfacet
  facet normal -0.0871211806 0.552363283 -0.829038421
    outer loop
      vertex 0.035 -0.050684877 0.0556228229
      vertex 0.155 -0.0496128885 0.0437266136
      vertex 0.035 -0.0571809562 0.0512946813
    endloop
  endfacet
  facet normal -0.0885185296 0.761681753 -0.64187645
    outer loop
      vertex 0.035 -0.0571809562 0.0512946813
      vertex 0.155 -0.0496128885 0.0437266136
      vertex 0.155 -0.0537991238 0.0387590236
    endloop
  endfacet
  facet normal -0.087985194 0.767266435 -0.635264373
    outer loop
      vertex 0.035 -0.0571809562 0.0512946813
      vertex 0.155 -0.0537991238 0.0387590236
      vertex 0.035 -0.0620057698 0.0454673161
    endloop
  endfacet
  facet normal -0.0848366759 0.911463698 -0.402537781
    outer loop
      vertex 0.035 -0.0620057698 0.0454673161
      vertex 0.155 -0.0537991238 0.0387590236
      vertex 0.155 -0.0567100049 0.0321679344
    endloop
  endfacet
  facet normal -0.0842986634 0.914097857 -0.396634396
    outer loop
      vertex 0.035 -0.0620057698 0.0454673161
      vertex 0.155 -0.0567100049 0.0321679344
      vertex 0.035 -0.0653606836 0.0377354615
    endloop
  endfacet
  facet normal -0.0791399169 0.979877973 -0.183237638
    outer loop
      vertex 0.035 -0.0653606836 0.0377354615
      vertex 0.155 -0.0567100049 0.0321679344
      vertex 0.155 -0.0584304164 0.0229678957
    endloop
  endfacet
  facet normal -0.0787935613 0.980479938 -0.180140686
    outer loop
      vertex 0.035 -0.0653606836 0.0377354615
      vertex 0.155 -0.0584304164 0.0229678957
      vertex 0.035 -0.0673435308 0.0269431084
    endloop
  endfacet
  facet normal -0.0748637106 0.996887281 -0.0247219278
    outer loop
      vertex 0.035 -0.0673435308 0.0269431084
      vertex 0.155 -0.0584304164 0.0229678957
      vertex 0.155 -0.059 5.75451557e-10
    endloop
  endfacet
  facet normal -0.0747678825 0.9969051 -0.024289608
    outer loop
      vertex 0.035 -0.0673435308 0.0269431084
      vertex 0.155 -0.059 5.75451557e-10
      vertex 0.035 -0.068 6.75048942e-10
    endloop
  endfacet
  facet normal -0.0747670896 0.996894528 0.0247221062
    outer loop
      vertex 0.035 -0.068 6.75048942e-10
      vertex 0.155 -0.059 5.75451557e-10
      vertex 0.155 -0.0584304164 -0.0229678957
    endloop
  endfacet
  facet normal -0.0748502489 0.996898923 0.0242894563
    outer loop
      vertex 0.035 -0.068 6.75048942e-10
      vertex 0.155 -0.0584304164 -0.0229678957
      vertex 0.035 -0.0673435308 -0.0269431084
    endloop
  endfacet
  facet normal -0.0788532388 0.979900303 0.183241814
    outer loop
      vertex 0.035 -0.0673435308 -0.0269431084
      vertex 0.155 -0.0584304164 -0.0229678957
      vertex 0.155 -0.0567100049 -0.0321679344
    endloop
  endfacet
  facet normal -0.0790380908 0.980460899 0.180137188
    outer loop
      vertex 0.035 -0.0673435308 -0.0269431084
      vertex 0.155 -0.0567100049 -0.0321679344
      vertex 0.035 -0.0653606836 -0.0377354615
    endloop
  endfacet
  facet normal -0.0843859051 0.911498713 0.402553245
    outer loop
      vertex 0.035 -0.0653606836 -0.0377354615
      vertex 0.155 -0.0567100049 -0.0321679344
      vertex 0.155 -0.0537991238 -0.0387590236
    endloop
  endfacet
  facet normal -0.0846840318 0.91406788 0.396621388
    outer loop
      vertex 0.035 -0.0653606836 -0.0377354615
      vertex 0.155 -0.0537991238 -0.0387590236
      vertex 0.035 -0.0620057698 -0.0454673161
    endloop
  endfacet
  facet normal -0.0879771322 0.76171843 0.641907359
    outer loop
      vertex 0.035 -0.0620057698 -0.0454673161
      vertex 0.155 -0.0537991238 -0.0387590236
      vertex 0.155 -0.0496128885 -0.0437266136
    endloop
  endfacet
  facet normal -0.0884500787 0.767234722 0.635238116
    outer loop
      vertex 0.035 -0.0620057698 -0.0454673161
      vertex 0.155 -0.0496128885 -0.0437266136
      vertex 0.035 -0.0571809562 -0.0512946813
    endloop
  endfacet
  facet normal -0.0869777024 0.54561952 0.83350718
    outer loop
      vertex 0.035 -0.0571809562 -0.0512946813
      vertex 0.155 -0.0496128885 -0.0437266136
      vertex 0.155 -0.0439765845 -0.0474161769
    endloop
  endfacet
  facet normal -0.087571854 0.552341373 0.829005536
    outer loop
      vertex 0.035 -0.0571809562 -0.0512946813
      vertex 0.155 -0.0439765845 -0.0474161769
      vertex 0.035 -0.050684877 -0.0556228229
    endloop
  endfacet
  facet normal -0.0825454501 0.323388511 0.942659069
    outer loop
      vertex 0.035 -0.050684877 -0.0556228229
      vertex 0.155 -0.0439765845 -0.0474161769
      vertex 0.155 -0.0364982332 -0.0499816992
    endloop
  endfacet
  facet normal -0.0830659255 0.328514741 0.94083905
    outer loop
      vertex 0.035 -0.050684877 -0.0556228229
      vertex 0.155 -0.0364982332 -0.0499816992
      vertex 0.035 -0.0420657603 -0.0586323779
    endloop
  endfacet
  facet normal -0.0777734609 0.143315671 0.986616393
    outer loop
      vertex 0.035 -0.0420657603 -0.0586323779
      vertex 0.155 -0.0364982332 -0.0499816992
      vertex 0.155 -0.0260597278 -0.0514979941
    endloop
  endfacet
  facet normal -0.0780831497 0.145811396 0.98622617
    outer loop
      vertex 0.035 -0.0420657603 -0.0586323779
      vertex 0.155 -0.0260597278 -0.0514979941
      vertex 0.035 -0.0300349405 -0.0604111085
    endloop
  endfacet
  facet normal -0.0746909834 0.0192062942 0.997021753
    outer loop
      vertex 0.035 -0.0300349405 -0.0604111085
      vertex 0.155 -0.0260597278 -0.0514979941
      vertex 0.155 -7.99655755e-10 -0.052
    endloop
  endfacet
  facet normal -0.074775657 0.0195482331 0.99700876
    outer loop
      vertex 0.035 -0.0300349405 -0.0604111085
      vertex 0.155 -7.99655755e-10 -0.052
      vertex 0.035 -9.21637141e-10 -0.061
    endloop
  endfacet
  facet normal -0.0747761528 -0.0192061701 0.997015371
    outer loop
      vertex 0.035 -9.21637141e-10 -0.061
      vertex 0.155 -7.99655755e-10 -0.052
      vertex 0.155 0.0260597278 -0.0514979941
    endloop
  endfacet
  facet normal -0.0747017606 -0.0195483405 0.997014297
    outer loop
      vertex 0.035 -9.21637141e-10 -0.061
      vertex 0.155 0.0260597278 -0.0514979941
      vertex 0.035 0.0300349405 -0.0604111085
    endloop
  endfacet
  facet normal -0.0780279025 -0.143312813 0.986596718
    outer loop
      vertex 0.035 0.0300349405 -0.0604111085
      vertex 0.155 0.0260597278 -0.0514979941
      vertex 0.155 0.0364982332 -0.0499816992
    endloop
  endfacet
  facet normal -0.0778624699 -0.14581392 0.986243244
    outer loop
      vertex 0.035 0.0300349405 -0.0604111085
      vertex 0.155 0.0364982332 -0.0499816992
      vertex 0.035 0.0420657603 -0.0586323779
    endloop
  endfacet
  facet normal -0.082956451 -0.323377436 0.942626788
    outer loop
      vertex 0.035 0.0420657603 -0.0586323779
      vertex 0.155 0.0364982332 -0.0499816992
      vertex 0.155 0.0439765845 -0.0474161769
    endloop
  endfacet
  facet normal -0.082710007 -0.328524499 0.940866998
    outer loop
      vertex 0.035 0.0420657603 -0.0586323779
      vertex 0.155 0.0439765845 -0.0474161769
      vertex 0.035 0.050684877 -0.0556228229
    endloop
  endfacet
  facet normal -0.0874999307 -0.545594473 0.833468916
    outer loop
      vertex 0.035 0.050684877 -0.0556228229
      vertex 0.155 0.0439765845 -0.0474161769
      vertex 0.155 0.0496128885 -0.0437266136
    endloop
  endfacet
  facet normal -0.0871211806 -0.552363283 0.829038421
    outer loop
      vertex 0.035 0.050684877 -0.0556228229
      vertex 0.155 0.0496128885 -0.0437266136
      vertex 0.035 0.0571809562 -0.0512946813
    endloop
  endfacet
  facet normal -0.0885185296 -0.761681753 0.64187645
    outer loop
      vertex 0.035 0.0571809562 -0.0512946813
      vertex 0.155 0.0496128885 -0.0437266136
      vertex 0.155 0.0537991238 -0.0387590236
    endloop
  endfacet
  facet normal -0.087985194 -0.767266435 0.635264373
    outer loop
      vertex 0.035 0.0571809562 -0.0512946813
      vertex 0.155 0.0537991238 -0.0387590236
      vertex 0.035 0.0620057698 -0.0454673161
    endloop
  endfacet
  facet normal -0.0848366759 -0.911463698 0.402537781
    outer loop
      vertex 0.035 0.0620057698 -0.0454673161
      vertex 0.155 0.0537991238 -0.0387590236
      vertex 0.155 0.0567100049 -0.0321679344
    endloop
  endfacet
  facet normal -0.0842986634 -0.914097857 0.396634396
    outer loop
      vertex 0.035 0.0620057698 -0.0454673161
      vertex 0.155 0.0567100049 -0.0321679344
      vertex 0.035 0.0653606836 -0.0377354615
    endloop
  endfacet
  facet normal -0.0791399169 -0.979877973 0.183237638
    outer loop
      vertex 0.035 0.0653606836 -0.0377354615
      vertex 0.155 0.0567100049 -0.0321679344
      vertex 0.155 0.0584304164 -0.0229678957
    endloop
  endfacet
  facet normal -0.0787935613 -0.980479938 0.180140686
    outer loop
      vertex 0.035 0.0653606836 -0.0377354615
      vertex 0.155 0.0584304164 -0.0229678957
      vertex 0.035 0.0673435308 -0.0269431084
    endloop
  endfacet
  facet normal -0.0748637105 -0.996887281 0.0247219271
    outer loop
      vertex 0.035 0.0673435308 -0.0269431084
      vertex 0.155 0.0584304164 -0.0229678957
      vertex 0.155 0.059 0
    endloop
  endfacet
  facet normal -0.0747678825 -0.9969051 0.0242896074
    outer loop
      vertex 0.035 0.0673435308 -0.0269431084
      vertex 0.155 0.059 0
      vertex 0.035 0.068 0
    endloop
  endfacet
  facet normal -0.0830210596 -0.996252715 -0.0242493734
    outer loop
      vertex 0.155 0.059 0
      vertex 0.275 0.049 0
      vertex 0.275 0.048526956 0.0194343732
    endloop
  endfacet
  facet normal -0.0829466584 -0.996247691 -0.0247060659
    outer loop
      vertex 0.155 0.059 0
      vertex 0.275 0.048526956 0.0194343732
      vertex 0.155 0.0584304164 0.0229678957
    endloop
  endfacet
  facet normal -0.0861670183 -0.979911803 -0.179855786
    outer loop
      vertex 0.155 0.0584304164 0.0229678957
      vertex 0.275 0.048526956 0.0194343732
      vertex 0.275 0.0470981396 0.0272190214
    endloop
  endfacet
  facet normal -0.0859949955 -0.979319701 -0.183133241
    outer loop
      vertex 0.155 0.0584304164 0.0229678957
      vertex 0.275 0.0470981396 0.0272190214
      vertex 0.155 0.0567100049 0.0321679344
    endloop
  endfacet
  facet normal -0.089532562 -0.913824071 -0.396118022
    outer loop
      vertex 0.155 0.0567100049 0.0321679344
      vertex 0.275 0.0470981396 0.0272190214
      vertex 0.275 0.0446806282 0.0327960969
    endloop
  endfacet
  facet normal -0.0892279728 -0.911112758 -0.402382793
    outer loop
      vertex 0.155 0.0567100049 0.0321679344
      vertex 0.275 0.0446806282 0.0327960969
      vertex 0.155 0.0537991238 0.0387590236
    endloop
  endfacet
  facet normal -0.0898594784 -0.76745042 -0.634779589
    outer loop
      vertex 0.155 0.0537991238 0.0387590236
      vertex 0.275 0.0446806282 0.0327960969
      vertex 0.275 0.0412039243 0.0369994423
    endloop
  endfacet
  facet normal -0.0893513904 -0.761624887 -0.641828529
    outer loop
      vertex 0.155 0.0537991238 0.0387590236
      vertex 0.275 0.0412039243 0.0369994423
      vertex 0.155 0.0496128885 0.0437266136
    endloop
  endfacet
  facet normal -0.0852090818 -0.552838816 -0.828920174
    outer loop
      vertex 0.155 0.0496128885 0.0437266136
      vertex 0.275 0.0412039243 0.0369994423
      vertex 0.275 0.0365229261 0.0401213805
    endloop
  endfacet
  facet normal -0.0845769337 -0.545732725 -0.833680115
    outer loop
      vertex 0.155 0.0496128885 0.0437266136
      vertex 0.275 0.0365229261 0.0401213805
      vertex 0.155 0.0439765845 0.0474161769
    endloop
  endfacet
  facet normal -0.0776449301 -0.328952779 -0.941148943
    outer loop
      vertex 0.155 0.0439765845 0.0474161769
      vertex 0.275 0.0365229261 0.0401213805
      vertex 0.275 0.030312092 0.042292207
    endloop
  endfacet
  facet normal -0.0771094729 -0.323529774 -0.943070843
    outer loop
      vertex 0.155 0.0439765845 0.0474161769
      vertex 0.275 0.030312092 0.042292207
      vertex 0.155 0.0364982332 0.0499816992
    endloop
  endfacet
  facet normal -0.070758039 -0.14603464 -0.986745754
    outer loop
      vertex 0.155 0.0364982332 0.0499816992
      vertex 0.275 0.030312092 0.042292207
      vertex 0.275 0.0216428248 0.0435752258
    endloop
  endfacet
  facet normal -0.0704529628 -0.143393878 -0.987154788
    outer loop
      vertex 0.155 0.0364982332 0.0499816992
      vertex 0.275 0.0216428248 0.0435752258
      vertex 0.155 0.0260597278 0.0514979941
    endloop
  endfacet
  facet normal -0.0665845291 -0.0195792346 -0.99758867
    outer loop
      vertex 0.155 0.0260597278 0.0514979941
      vertex 0.275 0.0216428248 0.0435752258
      vertex 0.275 3.83430369e-10 0.044
    endloop
  endfacet
  facet normal -0.0665067263 -0.0192174504 -0.997600895
    outer loop
      vertex 0.155 0.0260597278 0.0514979941
      vertex 0.275 3.83430369e-10 0.044
      vertex 0.155 4.61681465e-10 0.052
    endloop
  endfacet
  facet normal -0.0665062592 0.0195793364 -0.997593889
    outer loop
      vertex 0.155 4.61681465e-10 0.052
      vertex 0.275 3.83430369e-10 0.044
      vertex 0.275 -0.0216428248 0.0435752258
    endloop
  endfacet
  facet normal -0.0665717306 0.0192173662 -0.99759656
    outer loop
      vertex 0.155 4.61681465e-10 0.052
      vertex 0.275 -0.0216428248 0.0435752258
      vertex 0.155 -0.0260597278 0.0514979941
    endloop
  endfacet
  facet normal -0.0705243272 0.146037063 -0.986762127
    outer loop
      vertex 0.155 -0.0260597278 0.0514979941
      vertex 0.275 -0.0216428248 0.0435752258
      vertex 0.275 -0.030312092 0.042292207
    endloop
  endfacet
  facet normal -0.0706471424 0.143391904 -0.987141197
    outer loop
      vertex 0.155 -0.0260597278 0.0514979941
      vertex 0.275 -0.030312092 0.042292207
      vertex 0.155 -0.0364982332 0.0499816992
    endloop
  endfacet
  facet normal -0.0772681502 0.328962438 -0.941176576
    outer loop
      vertex 0.155 -0.0364982332 0.0499816992
      vertex 0.275 -0.030312092 0.042292207
      vertex 0.275 -0.0365229261 0.0401213805
    endloop
  endfacet
  facet normal -0.0774230316 0.323521889 -0.943047858
    outer loop
      vertex 0.155 -0.0364982332 0.0499816992
      vertex 0.275 -0.0365229261 0.0401213805
      vertex 0.155 -0.0439765845 0.0474161769
    endloop
  endfacet
  facet normal -0.0847324203 0.552861371 -0.828953992
    outer loop
      vertex 0.155 -0.0439765845 0.0474161769
      vertex 0.275 -0.0365229261 0.0401213805
      vertex 0.275 -0.0412039243 0.0369994423
    endloop
  endfacet
  facet normal -0.0849750768 0.545714172 -0.833651773
    outer loop
      vertex 0.155 -0.0439765845 0.0474161769
      vertex 0.275 -0.0412039243 0.0369994423
      vertex 0.155 -0.0496128885 0.0437266136
    endloop
  endfacet
  facet normal -0.0893684155 0.767484467 -0.63480775
    outer loop
      vertex 0.155 -0.0496128885 0.0437266136
      vertex 0.275 -0.0412039243 0.0369994423
      vertex 0.275 -0.0446806282 0.0327960969
    endloop
  endfacet
  facet normal -0.0897637385 0.761596534 -0.641804636
    outer loop
      vertex 0.155 -0.0496128885 0.0437266136
      vertex 0.275 -0.0446806282 0.0327960969
      vertex 0.155 -0.0537991238 0.0387590236
    endloop
  endfacet
  facet normal -0.0891259587 0.91385753 -0.396132526
    outer loop
      vertex 0.155 -0.0537991238 0.0387590236
      vertex 0.275 -0.0446806282 0.0327960969
      vertex 0.275 -0.0470981396 0.0272190214
    endloop
  endfacet
  facet normal -0.089570985 0.911084594 -0.402370354
    outer loop
      vertex 0.155 -0.0537991238 0.0387590236
      vertex 0.275 -0.0470981396 0.0272190214
      vertex 0.155 -0.0567100049 0.0321679344
    endloop
  endfacet
  facet normal -0.0859091769 0.979933704 -0.179859806
    outer loop
      vertex 0.155 -0.0567100049 0.0321679344
      vertex 0.275 -0.0470981396 0.0272190214
      vertex 0.275 -0.048526956 0.0194343732
    endloop
  endfacet
  facet normal -0.0862130302 0.979301178 -0.183129777
    outer loop
      vertex 0.155 -0.0567100049 0.0321679344
      vertex 0.275 -0.048526956 0.0194343732
      vertex 0.155 -0.0584304164 0.0229678957
    endloop
  endfacet
  facet normal -0.0829342269 0.996259943 -0.0242495499
    outer loop
      vertex 0.155 -0.0584304164 0.0229678957
      vertex 0.275 -0.048526956 0.0194343732
      vertex 0.275 -0.049 4.86920548e-10
    endloop
  endfacet
  facet normal -0.0830201313 0.996241575 -0.0247059148
    outer loop
      vertex 0.155 -0.0584304164 0.0229678957
      vertex 0.275 -0.049 4.86920548e-10
      vertex 0.155 -0.059 5.75451557e-10
    endloop
  endfacet
  facet normal -0.0830210595 0.996252715 0.0242493728
    outer loop
      vertex 0.155 -0.059 5.75451557e-10
      vertex 0.275 -0.049 4.86920548e-10
      vertex 0.275 -0.048526956 -0.0194343732
    endloop
  endfacet
  facet normal -0.0829466583 0.996247691 0.0247060653
    outer loop
      vertex 0.155 -0.059 5.75451557e-10
      vertex 0.275 -0.048526956 -0.0194343732
      vertex 0.155 -0.0584304164 -0.0229678957
    endloop
  endfacet
  facet normal -0.0861670183 0.979911803 0.179855786
    outer loop
      vertex 0.155 -0.0584304164 -0.0229678957
      vertex 0.275 -0.048526956 -0.0194343732
      vertex 0.275 -0.0470981396 -0.0272190214
    endloop
  endfacet
  facet normal -0.0859949955 0.979319701 0.183133241
    outer loop
      vertex 0.155 -0.0584304164 -0.0229678957
      vertex 0.275 -0.0470981396 -0.0272190214
      vertex 0.155 -0.0567100049 -0.0321679344
    endloop
  endfacet
  facet normal -0.089532562 0.913824071 0.396118022
    outer loop
      vertex 0.155 -0.0567100049 -0.0321679344
      vertex 0.275 -0.0470981396 -0.0272190214
      vertex 0.275 -0.0446806282 -0.0327960969
    endloop
  endfacet
  facet normal -0.0892279728 0.911112758 0.402382793
    outer loop
      vertex 0.155 -0.0567100049 -0.0321679344
      vertex 0.275 -0.0446806282 -0.0327960969
      vertex 0.155 -0.0537991238 -0.0387590236
    endloop
  endfacet
  facet normal -0.0898594784 0.76745042 0.634779589
    outer loop
      vertex 0.155 -0.0537991238 -0.0387590236
      vertex 0.275 -0.0446806282 -0.0327960969
      vertex 0.275 -0.0412039243 -0.0369994423
    endloop
  endfacet
  facet normal -0.0893513904 0.761624887 0.641828529
    outer loop
      vertex 0.155 -0.0537991238 -0.0387590236
      vertex 0.275 -0.0412039243 -0.0369994423
      vertex 0.155 -0.0496128885 -0.0437266136
    endloop
  endfacet
  facet normal -0.0852090818 0.552838816 0.828920174
    outer loop
      vertex 0.155 -0.0496128885 -0.0437266136
      vertex 0.275 -0.0412039243 -0.0369994423
      vertex 0.275 -0.0365229261 -0.0401213805
    endloop
  endfacet
  facet normal -0.0845769337 0.545732725 0.833680115
    outer loop
      vertex 0.155 -0.0496128885 -0.0437266136
      vertex 0.275 -0.0365229261 -0.0401213805
      vertex 0.155 -0.0439765845 -0.0474161769
    endloop
  endfacet
  facet normal -0.0776449301 0.328952779 0.941148943
    outer loop
      vertex 0.155 -0.0439765845 -0.0474161769
      vertex 0.275 -0.0365229261 -0.0401213805
      vertex 0.275 -0.030312092 -0.042292207
    endloop
  endfacet
  facet normal -0.0771094729 0.323529774 0.943070843
    outer loop
      vertex 0.155 -0.0439765845 -0.0474161769
      vertex 0.275 -0.030312092 -0.042292207
      vertex 0.155 -0.0364982332 -0.0499816992
    endloop
  endfacet
  facet normal -0.070758039 0.14603464 0.986745754
    outer loop
      vertex 0.155 -0.0364982332 -0.0499816992
      vertex 0.275 -0.030312092 -0.042292207
      vertex 0.275 -0.0216428248 -0.0435752258
    endloop
  endfacet
  facet normal -0.0704529628 0.143393878 0.987154788
    outer loop
      vertex 0.155 -0.0364982332 -0.0499816992
      vertex 0.275 -0.0216428248 -0.0435752258
      vertex 0.155 -0.0260597278 -0.0514979941
    endloop
  endfacet
  facet normal -0.0665845291 0.0195792349 0.99758867
    outer loop
      vertex 0.155 -0.0260597278 -0.0514979941
      vertex 0.275 -0.0216428248 -0.0435752258
      vertex 0.275 -6.64120881e-10 -0.044
    endloop
  endfacet
  facet normal -0.0665067263 0.0192174506 0.997600895
    outer loop
      vertex 0.155 -0.0260597278 -0.0514979941
      vertex 0.275 -6.64120881e-10 -0.044
      vertex 0.155 -7.99655755e-10 -0.052
    endloop
  endfacet
  facet normal -0.0665062592 -0.0195793361 0.997593889
    outer loop
      vertex 0.155 -7.99655755e-10 -0.052
      vertex 0.275 -6.64120881e-10 -0.044
      vertex 0.275 0.0216428248 -0.0435752258
    endloop
  endfacet
  facet normal -0.0665717306 -0.019217366 0.997596561
    outer loop
      vertex 0.155 -7.99655755e-10 -0.052
      vertex 0.275 0.0216428248 -0.0435752258
      vertex 0.155 0.0260597278 -0.0514979941
    endloop
  endfacet
  facet normal -0.0705243272 -0.146037063 0.986762127
    outer loop
      vertex 0.155 0.0260597278 -0.0514979941
      vertex 0.275 0.0216428248 -0.0435752258
      vertex 0.275 0.030312092 -0.042292207
    endloop
  endfacet
  facet normal -0.0706471424 -0.143391904 0.987141197
    outer loop
      vertex 0.155 0.0260597278 -0.0514979941
      vertex 0.275 0.030312092 -0.042292207
      vertex 0.155 0.0364982332 -0.0499816992
    endloop
  endfacet
  facet normal -0.0772681502 -0.328962438 0.941176576
    outer loop
      vertex 0.155 0.0364982332 -0.0499816992
      vertex 0.275 0.030312092 -0.042292207
      vertex 0.275 0.0365229261 -0.0401213805
    endloop
  endfacet
  facet normal -0.0774230316 -0.323521889 0.943047858
    outer loop
      vertex 0.155 0.0364982332 -0.0499816992
      vertex 0.275 0.0365229261 -0.0401213805
      vertex 0.155 0.0439765845 -0.0474161769
    endloop
  endfacet
  facet normal -0.0847324203 -0.552861371 0.828953992
    outer loop
      vertex 0.155 0.0439765845 -0.0474161769
      vertex 0.275 0.0365229261 -0.0401213805
      vertex 0.275 0.0412039243 -0.0369994423
    endloop
  endfacet
  facet normal -0.0849750768 -0.545714172 0.833651773
    outer loop
      vertex 0.155 0.0439765845 -0.0474161769
      vertex 0.275 0.0412039243 -0.0369994423
      vertex 0.155 0.0496128885 -0.0437266136
    endloop
  endfacet
  facet normal -0.0893684155 -0.767484467 0.63480775
    outer loop
      vertex 0.155 0.0496128885 -0.0437266136
      vertex 0.275 0.0412039243 -0.0369994423
      vertex 0.275 0.0446806282 -0.0327960969
    endloop
  endfacet
  facet normal -0.0897637385 -0.761596534 0.641804636
    outer loop
      vertex 0.155 0.0496128885 -0.0437266136
      vertex 0.275 0.0446806282 -0.0327960969
      vertex 0.155 0.0537991238 -0.0387590236
    endloop
  endfacet
  facet normal -0.0891259587 -0.91385753 0.396132526
    outer loop
      vertex 0.155 0.0537991238 -0.0387590236
      vertex 0.275 0.0446806282 -0.0327960969
      vertex 0.275 0.0470981396 -0.0272190214
    endloop
  endfacet
  facet normal -0.089570985 -0.911084594 0.402370354
    outer loop
      vertex 0.155 0.0537991238 -0.0387590236
      vertex 0.275 0.0470981396 -0.0272190214
      vertex 0.155 0.0567100049 -0.0321679344
    endloop
  endfacet
  facet normal -0.0859091769 -0.979933704 0.179859806
    outer loop
      vertex 0.155 0.0567100049 -0.0321679344
      vertex 0.275 0.0470981396 -0.0272190214
      vertex 0.275 0.048526956 -0.0194343732
    endloop
  endfacet
  facet normal -0.0862130302 -0.979301178 0.183129777
    outer loop
      vertex 0.155 0.0567100049 -0.0321679344
      vertex 0.275 0.048526956 -0.0194343732
      vertex 0.155 0.0584304164 -0.0229678957
    endloop
  endfacet
  facet normal -0.0829342269 -0.996259943 0.0242495493
    outer loop
      vertex 0.155 0.0584304164 -0.0229678957
      vertex 0.275 0.048526956 -0.0194343732
      vertex 0.275 0.049 0
    endloop
  endfacet
  facet normal -0.0830201312 -0.996241575 0.0247059142
    outer loop
      vertex 0.155 0.0584304164 -0.0229678957
      vertex 0.275 0.049 0
      vertex 0.155 0.059 0
    endloop
  endfacet
  facet normal 0.0664996558 -0.997494837 -0.0241214684
    outer loop
      vertex 0.275 0.049 0
      vertex 0.32 0.052 0
      vertex 0.32 0.0514979941 0.0207594441
    endloop
  endfacet
  facet normal 0.0665720307 -0.997486178 -0.0242793966
    outer loop
      vertex 0.275 0.049 0
      vertex 0.32 0.0514979941 0.0207594441
      vertex 0.275 0.048526956 0.0194343732
    endloop
  endfacet
  facet normal 0.070061766 -0.981360672 -0.178948539
    outer loop
      vertex 0.275 0.048526956 0.0194343732
      vertex 0.32 0.0514979941 0.0207594441
      vertex 0.32 0.0499816992 0.0290748638
    endloop
  endfacet
  facet normal 0.0702970547 -0.981136737 -0.180080614
    outer loop
      vertex 0.275 0.048526956 0.0194343732
      vertex 0.32 0.0499816992 0.0290748638
      vertex 0.275 0.0470981396 0.0272190214
    endloop
  endfacet
  facet normal 0.0749542503 -0.915868889 -0.394418609
    outer loop
      vertex 0.275 0.0470981396 0.0272190214
      vertex 0.32 0.0499816992 0.0290748638
      vertex 0.32 0.0474161769 0.0350321944
    endloop
  endfacet
  facet normal 0.0753236368 -0.914902368 -0.396585434
    outer loop
      vertex 0.275 0.0470981396 0.0272190214
      vertex 0.32 0.0474161769 0.0350321944
      vertex 0.275 0.0446806282 0.0327960969
    endloop
  endfacet
  facet normal 0.0782739495 -0.770237577 -0.632935435
    outer loop
      vertex 0.275 0.0446806282 0.0327960969
      vertex 0.32 0.0474161769 0.0350321944
      vertex 0.32 0.0437266136 0.0395221315
    endloop
  endfacet
  facet normal 0.0786832828 -0.768178769 -0.635382027
    outer loop
      vertex 0.275 0.0446806282 0.0327960969
      vertex 0.32 0.0437266136 0.0395221315
      vertex 0.275 0.0412039243 0.0369994423
    endloop
  endfacet
  facet normal 0.0775560802 -0.555688085 -0.82776555
    outer loop
      vertex 0.275 0.0412039243 0.0369994423
      vertex 0.32 0.0437266136 0.0395221315
      vertex 0.32 0.0387590236 0.0428569291
    endloop
  endfacet
  facet normal 0.0779078669 -0.553170327 -0.829417237
    outer loop
      vertex 0.275 0.0412039243 0.0369994423
      vertex 0.32 0.0387590236 0.0428569291
      vertex 0.275 0.0365229261 0.0401213805
    endloop
  endfacet
  facet normal 0.0736353561 -0.330973477 -0.940762665
    outer loop
      vertex 0.275 0.0365229261 0.0401213805
      vertex 0.32 0.0387590236 0.0428569291
      vertex 0.32 0.0321679344 0.0451757666
    endloop
  endfacet
  facet normal 0.0738954131 -0.329046789 -0.941417909
    outer loop
      vertex 0.275 0.0365229261 0.0401213805
      vertex 0.32 0.0321679344 0.0451757666
      vertex 0.275 0.030312092 0.042292207
    endloop
  endfacet
  facet normal 0.0692892659 -0.146986508 -0.986708652
    outer loop
      vertex 0.275 0.030312092 0.042292207
      vertex 0.32 0.0321679344 0.0451757666
      vertex 0.32 0.0229678957 0.0465462639
    endloop
  endfacet
  facet normal 0.0694545006 -0.146048052 -0.986836379
    outer loop
      vertex 0.275 0.030312092 0.042292207
      vertex 0.32 0.0229678957 0.0465462639
      vertex 0.275 0.0216428248 0.0435752258
    endloop
  endfacet
  facet normal 0.066444629 -0.0197077293 -0.997595467
    outer loop
      vertex 0.275 0.0216428248 0.0435752258
      vertex 0.32 0.0229678957 0.0465462639
      vertex 0.32 4.06905698e-10 0.047
    endloop
  endfacet
  facet normal 0.0665062593 -0.0195793371 -0.997593889
    outer loop
      vertex 0.275 0.0216428248 0.0435752258
      vertex 0.32 4.06905698e-10 0.047
      vertex 0.275 3.83430369e-10 0.044
    endloop
  endfacet
  facet normal 0.0665060916 0.0197076477 -0.997591373
    outer loop
      vertex 0.275 3.83430369e-10 0.044
      vertex 0.32 4.06905698e-10 0.047
      vertex 0.32 -0.0229678957 0.0465462639
    endloop
  endfacet
  facet normal 0.0664410334 0.0195794217 -0.997598233
    outer loop
      vertex 0.275 3.83430369e-10 0.044
      vertex 0.32 -0.0229678957 0.0465462639
      vertex 0.275 -0.0216428248 0.0435752258
    endloop
  endfacet
  facet normal 0.0694728125 0.146984627 -0.986696026
    outer loop
      vertex 0.275 -0.0216428248 0.0435752258
      vertex 0.32 -0.0229678957 0.0465462639
      vertex 0.32 -0.0321679344 0.0451757666
    endloop
  endfacet
  facet normal 0.069259688 0.146050035 -0.986849777
    outer loop
      vertex 0.275 -0.0216428248 0.0435752258
      vertex 0.32 -0.0321679344 0.0451757666
      vertex 0.275 -0.030312092 0.042292207
    endloop
  endfacet
  facet normal 0.0739312612 0.330966212 -0.940742013
    outer loop
      vertex 0.275 -0.030312092 0.042292207
      vertex 0.32 -0.0321679344 0.0451757666
      vertex 0.32 -0.0387590236 0.0428569291
    endloop
  endfacet
  facet normal 0.0735811635 0.329054455 -0.941439843
    outer loop
      vertex 0.275 -0.030312092 0.042292207
      vertex 0.32 -0.0387590236 0.0428569291
      vertex 0.275 -0.0365229261 0.0401213805
    endloop
  endfacet
  facet normal 0.07793029 0.555671821 -0.827741323
    outer loop
      vertex 0.275 -0.0365229261 0.0401213805
      vertex 0.32 -0.0387590236 0.0428569291
      vertex 0.32 -0.0437266136 0.0395221315
    endloop
  endfacet
  facet normal 0.0775099398 0.553187537 -0.829443041
    outer loop
      vertex 0.275 -0.0365229261 0.0401213805
      vertex 0.32 -0.0437266136 0.0395221315
      vertex 0.275 -0.0412039243 0.0369994423
    endloop
  endfacet
  facet normal 0.0786591514 0.770214152 -0.632916186
    outer loop
      vertex 0.275 -0.0412039243 0.0369994423
      vertex 0.32 -0.0437266136 0.0395221315
      vertex 0.32 -0.0474161769 0.0350321944
    endloop
  endfacet
  facet normal 0.0782729048 0.768203662 -0.635402617
    outer loop
      vertex 0.275 -0.0412039243 0.0369994423
      vertex 0.32 -0.0474161769 0.0350321944
      vertex 0.275 -0.0446806282 0.0327960969
    endloop
  endfacet
  facet normal 0.0752729078 0.915846843 -0.394409115
    outer loop
      vertex 0.275 -0.0446806282 0.0327960969
      vertex 0.32 -0.0474161769 0.0350321944
      vertex 0.32 -0.0499816992 0.0290748638
    endloop
  endfacet
  facet normal 0.0749836055 0.914925881 -0.396595627
    outer loop
      vertex 0.275 -0.0446806282 0.0327960969
      vertex 0.32 -0.0499816992 0.0290748638
      vertex 0.275 -0.0470981396 0.0272190214
    endloop
  endfacet
  facet normal 0.0702637159 0.981346698 -0.178945991
    outer loop
      vertex 0.275 -0.0470981396 0.0272190214
      vertex 0.32 -0.0499816992 0.0290748638
      vertex 0.32 -0.0514979941 0.0207594441
    endloop
  endfacet
  facet normal 0.0700813824 0.981151663 -0.180083354
    outer loop
      vertex 0.275 -0.0470981396 0.0272190214
      vertex 0.32 -0.0514979941 0.0207594441
      vertex 0.275 -0.048526956 0.0194343732
    endloop
  endfacet
  facet normal 0.0665676496 0.997490305 -0.0241213594
    outer loop
      vertex 0.275 -0.048526956 0.0194343732
      vertex 0.32 -0.0514979941 0.0207594441
      vertex 0.32 -0.052 5.20119677e-10
    endloop
  endfacet
  facet normal 0.0664994013 0.99749102 -0.0242795151
    outer loop
      vertex 0.275 -0.048526956 0.0194343732
      vertex 0.32 -0.052 5.20119677e-10
      vertex 0.275 -0.049 4.86920548e-10
    endloop
  endfacet
  facet normal 0.0664996558 0.997494837 0.0241214678
    outer loop
      vertex 0.275 -0.049 4.86920548e-10
      vertex 0.32 -0.052 5.20119677e-10
      vertex 0.32 -0.0514979941 -0.0207594441
    endloop
  endfacet
  facet normal 0.0665720307 0.997486178 0.024279396
    outer loop
      vertex 0.275 -0.049 4.86920548e-10
      vertex 0.32 -0.0514979941 -0.0207594441
      vertex 0.275 -0.048526956 -0.0194343732
    endloop
  endfacet
  facet normal 0.070061766 0.981360672 0.178948539
    outer loop
      vertex 0.275 -0.048526956 -0.0194343732
      vertex 0.32 -0.0514979941 -0.0207594441
      vertex 0.32 -0.0499816992 -0.0290748638
    endloop
  endfacet
  facet normal 0.0702970547 0.981136737 0.180080614
    outer loop
      vertex 0.275 -0.048526956 -0.0194343732
      vertex 0.32 -0.0499816992 -0.0290748638
      vertex 0.275 -0.0470981396 -0.0272190214
    endloop
  endfacet
  facet normal 0.0749542503 0.915868889 0.394418609
    outer loop
      vertex 0.275 -0.0470981396 -0.0272190214
      vertex 0.32 -0.0499816992 -0.0290748638
      vertex 0.32 -0.0474161769 -0.0350321944
    endloop
  endfacet
  facet normal 0.0753236368 0.914902368 0.396585434
    outer loop
      vertex 0.275 -0.0470981396 -0.0272190214
      vertex 0.32 -0.0474161769 -0.0350321944
      vertex 0.275 -0.0446806282 -0.0327960969
    endloop
  endfacet
  facet normal 0.0782739495 0.770237577 0.632935435
    outer loop
      vertex 0.275 -0.0446806282 -0.0327960969
      vertex 0.32 -0.0474161769 -0.0350321944
      vertex 0.32 -0.0437266136 -0.0395221315
    endloop
  endfacet
  facet normal 0.0786832828 0.768178769 0.635382027
    outer loop
      vertex 0.275 -0.0446806282 -0.0327960969
      vertex 0.32 -0.0437266136 -0.0395221315
      vertex 0.275 -0.0412039243 -0.0369994423
    endloop
  endfacet
  facet normal 0.0775560802 0.555688085 0.82776555
    outer loop
      vertex 0.275 -0.0412039243 -0.0369994423
      vertex 0.32 -0.0437266136 -0.0395221315
      vertex 0.32 -0.0387590236 -0.0428569291
    endloop
  endfacet
  facet normal 0.0779078669 0.553170327 0.829417237
    outer loop
      vertex 0.275 -0.0412039243 -0.0369994423
      vertex 0.32 -0.0387590236 -0.0428569291
      vertex 0.275 -0.0365229261 -0.0401213805
    endloop
  endfacet
  facet normal 0.0736353561 0.330973477 0.940762665
    outer loop
      vertex 0.275 -0.0365229261 -0.0401213805
      vertex 0.32 -0.0387590236 -0.0428569291
      vertex 0.32 -0.0321679344 -0.0451757666
    endloop
  endfacet
  facet normal 0.0738954131 0.329046789 0.941417909
    outer loop
      vertex 0.275 -0.0365229261 -0.0401213805
      vertex 0.32 -0.0321679344 -0.0451757666
      vertex 0.275 -0.030312092 -0.042292207
    endloop
  endfacet
  facet normal 0.0692892659 0.146986508 0.986708652
    outer loop
      vertex 0.275 -0.030312092 -0.042292207
      vertex 0.32 -0.0321679344 -0.0451757666
      vertex 0.32 -0.0229678957 -0.0465462639
    endloop
  endfacet
  facet normal 0.0694545006 0.146048052 0.986836379
    outer loop
      vertex 0.275 -0.030312092 -0.042292207
      vertex 0.32 -0.0229678957 -0.0465462639
      vertex 0.275 -0.0216428248 -0.0435752258
    endloop
  endfacet
  facet normal 0.066444629 0.0197077296 0.997595467
    outer loop
      vertex 0.275 -0.0216428248 -0.0435752258
      vertex 0.32 -0.0229678957 -0.0465462639
      vertex 0.32 -7.04781343e-10 -0.047
    endloop
  endfacet
  facet normal 0.0665062593 0.0195793373 0.997593889
    outer loop
      vertex 0.275 -0.0216428248 -0.0435752258
      vertex 0.32 -7.04781343e-10 -0.047
      vertex 0.275 -6.64120881e-10 -0.044
    endloop
  endfacet
  facet normal 0.0665060915 -0.0197076475 0.997591373
    outer loop
      vertex 0.275 -6.64120881e-10 -0.044
      vertex 0.32 -7.04781343e-10 -0.047
      vertex 0.32 0.0229678957 -0.0465462639
    endloop
  endfacet
  facet normal 0.0664410334 -0.0195794214 0.997598233
    outer loop
      vertex 0.275 -6.64120881e-10 -0.044
      vertex 0.32 0.0229678957 -0.0465462639
      vertex 0.275 0.0216428248 -0.0435752258
    endloop
  endfacet
  facet normal 0.0694728125 -0.146984627 0.986696026
    outer loop
      vertex 0.275 0.0216428248 -0.0435752258
      vertex 0.32 0.0229678957 -0.0465462639
      vertex 0.32 0.0321679344 -0.0451757666
    endloop
  endfacet
  facet normal 0.069259688 -0.146050035 0.986849777
    outer loop
      vertex 0.275 0.0216428248 -0.0435752258
      vertex 0.32 0.0321679344 -0.0451757666
      vertex 0.275 0.030312092 -0.042292207
    endloop
  endfacet
  facet normal 0.0739312612 -0.330966212 0.940742013
    outer loop
      vertex 0.275 0.030312092 -0.042292207
      vertex 0.32 0.0321679344 -0.0451757666
      vertex 0.32 0.0387590236 -0.0428569291
    endloop
  endfacet
  facet normal 0.0735811635 -0.329054455 0.941439843
    outer loop
      vertex 0.275 0.030312092 -0.042292207
      vertex 0.32 0.0387590236 -0.0428569291
      vertex 0.275 0.0365229261 -0.0401213805
    endloop
  endfacet
  facet normal 0.07793029 -0.555671821 0.827741323
    outer loop
      vertex 0.275 0.0365229261 -0.0401213805
      vertex 0.32 0.0387590236 -0.0428569291
      vertex 0.32 0.0437266136 -0.0395221315
    endloop
  endfacet
  facet normal 0.0775099398 -0.553187537 0.829443041
    outer loop
      vertex 0.275 0.0365229261 -0.0401213805
      vertex 0.32 0.0437266136 -0.0395221315
      vertex 0.275 0.0412039243 -0.0369994423
    endloop
  endfacet
  facet normal 0.0786591514 -0.770214152 0.632916186
    outer loop
      vertex 0.275 0.0412039243 -0.0369994423
      vertex 0.32 0.0437266136 -0.0395221315
      vertex 0.32 0.0474161769 -0.0350321944
    endloop
  endfacet
  facet normal 0.0782729048 -0.768203662 0.635402617
    outer loop
      vertex 0.275 0.0412039243 -0.0369994423
      vertex 0.32 0.0474161769 -0.0350321944
      vertex 0.275 0.0446806282 -0.0327960969
    endloop
  endfacet
  facet normal 0.0752729078 -0.915846843 0.394409115
    outer loop
      vertex 0.275 0.0446806282 -0.0327960969
      vertex 0.32 0.0474161769 -0.0350321944
      vertex 0.32 0.0499816992 -0.0290748638
    endloop
  endfacet
  facet normal 0.0749836055 -0.914925881 0.396595627
    outer loop
      vertex 0.275 0.0446806282 -0.0327960969
      vertex 0.32 0.0499816992 -0.0290748638
      vertex 0.275 0.0470981396 -0.0272190214
    endloop
  endfacet
  facet normal 0.0702637159 -0.981346698 0.178945991
    outer loop
      vertex 0.275 0.0470981396 -0.0272190214
      vertex 0.32 0.0499816992 -0.0290748638
      vertex 0.32 0.0514979941 -0.0207594441
    endloop
  endfacet
  facet normal 0.0700813824 -0.981151663 0.180083354
    outer loop
      vertex 0.275 0.0470981396 -0.0272190214
      vertex 0.32 0.0514979941 -0.0207594441
      vertex 0.275 0.048526956 -0.0194343732
    endloop
  endfacet
  facet normal 0.0665676496 -0.997490305 0.0241213588
    outer loop
      vertex 0.275 0.048526956 -0.0194343732
      vertex 0.32 0.0514979941 -0.0207594441
      vertex 0.32 0.052 0
    endloop
  endfacet
  facet normal 0.0664994013 -0.99749102 0.0242795144
    outer loop
      vertex 0.275 0.048526956 -0.0194343732
      vertex 0.32 0.052 0
      vertex 0.275 0.049 0
    endloop
  endfacet
  facet normal -1 0 0
    outer loop
      vertex 0 0 0
      vertex 0 0.0614014545 0.0256180375
      vertex 0 0.062 0
    endloop
  endfacet
  facet normal 1 0 0
    outer loop
      vertex 0.32 0 0
      vertex 0.32 0.052 0
      vertex 0.32 0.0514979941 0.0207594441
    endloop
  endfacet
  facet normal -1 0 0
    outer loop
      vertex 0 0 0
      vertex 0 0.0595935644 0.0358796191
      vertex 0 0.0614014545 0.0256180375
    endloop
  endfacet
  facet normal 1 0 0
    outer loop
      vertex 0.32 0 0
      vertex 0.32 0.0514979941 0.0207594441
      vertex 0.32 0.0499816992 0.0290748638
    endloop
  endfacet
  facet normal -1 0 0
    outer loop
      vertex 0 0 0
      vertex 0 0.0565346725 0.0432312186
      vertex 0 0.0595935644 0.0358796191
    endloop
  endfacet
  facet normal 1 0 0
    outer loop
      vertex 0.32 0 0
      vertex 0.32 0.0499816992 0.0290748638
      vertex 0.32 0.0474161769 0.0350321944
    endloop
  endfacet
  facet normal -1 0 0
    outer loop
      vertex 0 0 0
      vertex 0 0.0521355777 0.0487719921
      vertex 0 0.0565346725 0.0432312186
    endloop
  endfacet
  facet normal 1 0 0
    outer loop
      vertex 0.32 0 0
      vertex 0.32 0.0474161769 0.0350321944
      vertex 0.32 0.0437266136 0.0395221315
    endloop
  endfacet
  facet normal -1 0 0
    outer loop
      vertex 0 0 0
      vertex 0 0.046212682 0.0528872742
      vertex 0 0.0521355777 0.0487719921
    endloop
  endfacet
  facet normal 1 0 0
    outer loop
      vertex 0.32 0 0
      vertex 0.32 0.0437266136 0.0395221315
      vertex 0.32 0.0387590236 0.0428569291
    endloop
  endfacet
  facet normal -1 0 0
    outer loop
      vertex 0 0 0
      vertex 0 0.0383540756 0.0557488183
      vertex 0 0.046212682 0.0528872742
    endloop
  endfacet
  facet normal 1 0 0
    outer loop
      vertex 0.32 0 0
      vertex 0.32 0.0387590236 0.0428569291
      vertex 0.32 0.0321679344 0.0451757666
    endloop
  endfacet
  facet normal -1 0 0
    outer loop
      vertex 0 0 0
      vertex 0 0.0273847987 0.0574400704
      vertex 0 0.0383540756 0.0557488183
    endloop
  endfacet
  facet normal 1 0 0
    outer loop
      vertex 0.32 0 0
      vertex 0.32 0.0321679344 0.0451757666
      vertex 0.32 0.0229678957 0.0465462639
    endloop
  endfacet
  facet normal -1 0 0
    outer loop
      vertex 0 0 0
      vertex 0 4.85156794e-10 0.058
      vertex 0 0.0273847987 0.0574400704
    endloop
  endfacet
  facet normal 1 0 0
    outer loop
      vertex 0.32 0 0
      vertex 0.32 0.0229678957 0.0465462639
      vertex 0.32 4.06905698e-10 0.047
    endloop
  endfacet
  facet normal -1 0 0
    outer loop
      vertex 0 0 0
      vertex 0 -0.0273847987 0.0574400704
      vertex 0 4.85156794e-10 0.058
    endloop
  endfacet
  facet normal 1 0 -0
    outer loop
      vertex 0.32 0 0
      vertex 0.32 4.06905698e-10 0.047
      vertex 0.32 -0.0229678957 0.0465462639
    endloop
  endfacet
  facet normal -1 0 0
    outer loop
      vertex 0 0 0
      vertex 0 -0.0383540756 0.0557488183
      vertex 0 -0.0273847987 0.0574400704
    endloop
  endfacet
  facet normal 1 0 0
    outer loop
      vertex 0.32 0 0
      vertex 0.32 -0.0229678957 0.0465462639
      vertex 0.32 -0.0321679344 0.0451757666
    endloop
  endfacet
  facet normal -1 0 0
    outer loop
      vertex 0 0 0
      vertex 0 -0.046212682 0.0528872742
      vertex 0 -0.0383540756 0.0557488183
    endloop
  endfacet
  facet normal 1 0 0
    outer loop
      vertex 0.32 0 0
      vertex 0.32 -0.0321679344 0.0451757666
      vertex 0.32 -0.0387590236 0.0428569291
    endloop
  endfacet
  facet normal -1 0 0
    outer loop
      vertex 0 0 0
      vertex 0 -0.0521355777 0.0487719921
      vertex 0 -0.046212682 0.0528872742
    endloop
  endfacet
  facet normal 1 0 0
    outer loop
      vertex 0.32 0 0
      vertex 0.32 -0.0387590236 0.0428569291
      vertex 0.32 -0.0437266136 0.0395221315
    endloop
  endfacet
  facet normal -1 0 0
    outer loop
      vertex 0 0 0
      vertex 0 -0.0565346725 0.0432312186
      vertex 0 -0.0521355777 0.0487719921
    endloop
  endfacet
  facet normal 1 0 0
    outer loop
      vertex 0.32 0 0
      vertex 0.32 -0.0437266136 0.0395221315
      vertex 0.32 -0.0474161769 0.0350321944
    endloop
  endfacet
  facet normal -1 0 0
    outer loop
      vertex 0 0 0
      vertex 0 -0.0595935644 0.0358796191
      vertex 0 -0.0565346725 0.0432312186
    endloop
  endfacet
  facet normal 1 0 0
    outer loop
      vertex 0.32 0 0
      vertex 0.32 -0.0474161769 0.0350321944
      vertex 0.32 -0.0499816992 0.0290748638
    endloop
  endfacet
  facet normal -1 0 0
    outer loop
      vertex 0 0 0
      vertex 0 -0.0614014545 0.0256180375
      vertex 0 -0.0595935644 0.0358796191
    endloop
  endfacet
  facet normal 1 0 0
    outer loop
      vertex 0.32 0 0
      vertex 0.32 -0.0499816992 0.0290748638
      vertex 0.32 -0.0514979941 0.0207594441
    endloop
  endfacet
  facet normal -1 0 0
    outer loop
      vertex 0 0 0
      vertex 0 -0.062 6.41849814e-10
      vertex 0 -0.0614014545 0.0256180375
    endloop
  endfacet
  facet normal 1 0 0
    outer loop
      vertex 0.32 0 0
      vertex 0.32 -0.0514979941 0.0207594441
      vertex 0.32 -0.052 5.20119677e-10
    endloop
  endfacet
  facet normal -1 -0 0
    outer loop
      vertex 0 0 0
      vertex 0 -0.0614014545 -0.0256180375
      vertex 0 -0.062 6.41849814e-10
    endloop
  endfacet
  facet normal 1 0 0
    outer loop
      vertex 0.32 0 0
      vertex 0.32 -0.052 5.20119677e-10
      vertex 0.32 -0.0514979941 -0.0207594441
    endloop
  endfacet
  facet normal -1 0 0
    outer loop
      vertex 0 0 0
      vertex 0 -0.0595935644 -0.0358796191
      vertex 0 -0.0614014545 -0.0256180375
    endloop
  endfacet
  facet normal 1 0 0
    outer loop
      vertex 0.32 0 0
      vertex 0.32 -0.0514979941 -0.0207594441
      vertex 0.32 -0.0499816992 -0.0290748638
    endloop
  endfacet
  facet normal -1 0 0
    outer loop
      vertex 0 0 0
      vertex 0 -0.0565346725 -0.0432312186
      vertex 0 -0.0595935644 -0.0358796191
    endloop
  endfacet
  facet normal 1 0 0
    outer loop
      vertex 0.32 0 0
      vertex 0.32 -0.0499816992 -0.0290748638
      vertex 0.32 -0.0474161769 -0.0350321944
    endloop
  endfacet
  facet normal -1 0 0
    outer loop
      vertex 0 0 0
      vertex 0 -0.0521355777 -0.0487719921
      vertex 0 -0.0565346725 -0.0432312186
    endloop
  endfacet
  facet normal 1 0 0
    outer loop
      vertex 0.32 0 0
      vertex 0.32 -0.0474161769 -0.0350321944
      vertex 0.32 -0.0437266136 -0.0395221315
    endloop
  endfacet
  facet normal -1 0 0
    outer loop
      vertex 0 0 0
      vertex 0 -0.046212682 -0.0528872742
      vertex 0 -0.0521355777 -0.0487719921
    endloop
  endfacet
  facet normal 1 0 0
    outer loop
      vertex 0.32 0 0
      vertex 0.32 -0.0437266136 -0.0395221315
      vertex 0.32 -0.0387590236 -0.0428569291
    endloop
  endfacet
  facet normal -1 0 0
    outer loop
      vertex 0 0 0
      vertex 0 -0.0383540756 -0.0557488183
      vertex 0 -0.046212682 -0.0528872742
    endloop
  endfacet
  facet normal 1 0 0
    outer loop
      vertex 0.32 0 0
      vertex 0.32 -0.0387590236 -0.0428569291
      vertex 0.32 -0.0321679344 -0.0451757666
    endloop
  endfacet
  facet normal -1 0 0
    outer loop
      vertex 0 0 0
      vertex 0 -0.0273847987 -0.0574400704
      vertex 0 -0.0383540756 -0.0557488183
    endloop
  endfacet
  facet normal 1 0 0
    outer loop
      vertex 0.32 0 0
      vertex 0.32 -0.0321679344 -0.0451757666
      vertex 0.32 -0.0229678957 -0.0465462639
    endloop
  endfacet
  facet normal -1 0 0
    outer loop
      vertex 0 0 0
      vertex 0 -8.40316217e-10 -0.058
      vertex 0 -0.0273847987 -0.0574400704
    endloop
  endfacet
  facet normal 1 0 0
    outer loop
      vertex 0.32 0 0
      vertex 0.32 -0.0229678957 -0.0465462639
      vertex 0.32 -7.04781343e-10 -0.047
    endloop
  endfacet
  facet normal -1 0 -0
    outer loop
      vertex 0 0 0
      vertex 0 0.0273847987 -0.0574400704
      vertex 0 -8.40316217e-10 -0.058
    endloop
  endfacet
  facet normal 1 0 0
    outer loop
      vertex 0.32 0 0
      vertex 0.32 -7.04781343e-10 -0.047
      vertex 0.32 0.0229678957 -0.0465462639
    endloop
  endfacet
  facet normal -1 0 0
    outer loop
      vertex 0 0 0
      vertex 0 0.0383540756 -0.0557488183
      vertex 0 0.0273847987 -0.0574400704
    endloop
  endfacet
  facet normal 1 0 0
    outer loop
      vertex 0.32 0 0
      vertex 0.32 0.0229678957 -0.0465462639
      vertex 0.32 0.0321679344 -0.0451757666
    endloop
  endfacet
  facet normal -1 0 0
    outer loop
      vertex 0 0 0
      vertex 0 0.046212682 -0.0528872742
      vertex 0 0.0383540756 -0.0557488183
    endloop
  endfacet
  facet normal 1 0 0
    outer loop
      vertex 0.32 0 0
      vertex 0.32 0.0321679344 -0.0451757666
      vertex 0.32 0.0387590236 -0.0428569291
    endloop
  endfacet
  facet normal -1 0 0
    outer loop
      vertex 0 0 0
      vertex 0 0.0521355777 -0.0487719921
      vertex 0 0.046212682 -0.0528872742
    endloop
  endfacet
  facet normal 1 0 0
    outer loop
      vertex 0.32 0 0
      vertex 0.32 0.0387590236 -0.0428569291
      vertex 0.32 0.0437266136 -0.0395221315
    endloop
  endfacet
  facet normal -1 0 0
    outer loop
      vertex 0 0 0
      vertex 0 0.0565346725 -0.0432312186
      vertex 0 0.0521355777 -0.0487719921
    endloop
  endfacet
  facet normal 1 0 0
    outer loop
      vertex 0.32 0 0
      vertex 0.32 0.0437266136 -0.0395221315
      vertex 0.32 0.0474161769 -0.0350321944
    endloop
  endfacet
  facet normal -1 0 0
    outer loop
      vertex 0 0 0
      vertex 0 0.0595935644 -0.0358796191
      vertex 0 0.0565346725 -0.0432312186
    endloop
  endfacet
  facet normal 1 0 0
    outer loop
      vertex 0.32 0 0
      vertex 0.32 0.0474161769 -0.0350321944
      vertex 0.32 0.0499816992 -0.0290748638
    endloop
  endfacet
  facet normal -1 0 0
    outer loop
      vertex 0 0 0
      vertex 0 0.0614014545 -0.0256180375
      vertex 0 0.0595935644 -0.0358796191
    endloop
  endfacet
  facet normal 1 0 0
    outer loop
      vertex 0.32 0 0
      vertex 0.32 0.0499816992 -0.0290748638
      vertex 0.32 0.0514979941 -0.0207594441
    endloop
  endfacet
  facet normal -1 0 0
    outer loop
      vertex 0 0 0
      vertex 0 0.062 0
      vertex 0 0.0614014545 -0.0256180375
    endloop
  endfacet
  facet normal 1 -0 0
    outer loop
      vertex 0.32 0 0
      vertex 0.32 0.0514979941 -0.0207594441
      vertex 0.32 0.052 0
    endloop
  endfacet
endsolid upper_arm_shell
