solid wrist_column_shell
  facet normal -0.992578213 -0.0245243694 0.119109386
    outer loop
      vertex 0.049 0 0
      vertex 0.052 0 0.025
      vertex 0.0514979941 0.0203177538 0.025
    endloop
  endfacet
  facet normal -0.992621994 -0.0241609995 0.118818446
    outer loop
      vertex 0.049 0 0
      vertex 0.0514979941 0.0203177538 0.025
      vertex 0.048526956 0.0194343732 0
    endloop
  endfacet
  facet normal -0.975694105 -0.181782978 0.122376317
    outer loop
      vertex 0.048526956 0.0194343732 0
      vertex 0.0514979941 0.0203177538 0.025
      vertex 0.0499816992 0.0284562496 0.025
    endloop
  endfacet
  facet normal -0.976286136 -0.179190321 0.121475142
    outer loop
      vertex 0.048526956 0.0194343732 0
      vertex 0.0499816992 0.0284562496 0.025
      vertex 0.0470981396 0.0272190214 0
    endloop
  endfacet
  facet normal -0.908186328 -0.399612511 0.124528851
    outer loop
      vertex 0.0470981396 0.0272190214 0
      vertex 0.0499816992 0.0284562496 0.025
      vertex 0.0474161769 0.0342868286 0.025
    endloop
  endfacet
  facet normal -0.910523033 -0.394687111 0.123166106
    outer loop
      vertex 0.0470981396 0.0272190214 0
      vertex 0.0474161769 0.0342868286 0.025
      vertex 0.0446806282 0.0327960969 0
    endloop
  endfacet
  facet normal -0.760204253 -0.638270877 0.121242654
    outer loop
      vertex 0.0446806282 0.0327960969 0
      vertex 0.0474161769 0.0342868286 0.025
      vertex 0.0437266136 0.0386812351 0.025
    endloop
  endfacet
  facet normal -0.765021538 -0.632770594 0.119764026
    outer loop
      vertex 0.0446806282 0.0327960969 0
      vertex 0.0437266136 0.0386812351 0.025
      vertex 0.0412039243 0.0369994423 0
    endloop
  endfacet
  facet normal -0.545720934 -0.830590392 0.110942612
    outer loop
      vertex 0.0412039243 0.0369994423 0
      vertex 0.0437266136 0.0386812351 0.025
      vertex 0.0387590236 0.0419450796 0.025
    endloop
  endfacet
  facet normal -0.551511008 -0.826929274 0.109652103
    outer loop
      vertex 0.0412039243 0.0369994423 0
      vertex 0.0387590236 0.0419450796 0.025
      vertex 0.0365229261 0.0401213805 0
    endloop
  endfacet
  facet normal -0.324013824 -0.941001784 0.0976252249
    outer loop
      vertex 0.0365229261 0.0401213805 0
      vertex 0.0387590236 0.0419450796 0.025
      vertex 0.0321679344 0.0442145801 0.025
    endloop
  endfacet
  facet normal -0.328404904 -0.939581448 0.0966277514
    outer loop
      vertex 0.0365229261 0.0401213805 0
      vertex 0.0321679344 0.0442145801 0.025
      vertex 0.030312092 0.042292207 0
    endloop
  endfacet
  facet normal -0.143731223 -0.985831319 0.0864751219
    outer loop
      vertex 0.030312092 0.042292207 0
      vertex 0.0321679344 0.0442145801 0.025
      vertex 0.0229678957 0.0455559179 0.025
    endloop
  endfacet
  facet normal -0.14586152 -0.985575992 0.0858159767
    outer loop
      vertex 0.030312092 0.042292207 0
      vertex 0.0229678957 0.0455559179 0.025
      vertex 0.0216428248 0.0435752258 0
    endloop
  endfacet
  facet normal -0.0192693652 -0.996610164 0.0799804454
    outer loop
      vertex 0.0216428248 0.0435752258 0
      vertex 0.0229678957 0.0455559179 0.025
      vertex 4.06905698e-10 0.046 0.025
    endloop
  endfacet
  facet normal -0.0195603126 -0.996624567 0.0797299653
    outer loop
      vertex 0.0216428248 0.0435752258 0
      vertex 4.06905698e-10 0.046 0.025
      vertex 3.83430369e-10 0.044 0
    endloop
  endfacet
  facet normal 0.0192697517 -0.996630191 0.0797304153
    outer loop
      vertex 3.83430369e-10 0.044 0
      vertex 4.06905698e-10 0.046 0.025
      vertex -0.0229678957 0.0455559179 0.025
    endloop
  endfacet
  facet normal 0.0195598948 -0.996603312 0.0799953015
    outer loop
      vertex 3.83430369e-10 0.044 0
      vertex -0.0229678957 0.0455559179 0.025
      vertex -0.0216428248 0.0435752258 0
    endloop
  endfacet
  facet normal 0.143740528 -0.985895139 0.0857288435
    outer loop
      vertex -0.0216428248 0.0435752258 0
      vertex -0.0229678957 0.0455559179 0.025
      vertex -0.0321679344 0.0442145801 0.025
    endloop
  endfacet
  facet normal 0.14585149 -0.985508221 0.0866076726
    outer loop
      vertex -0.0216428248 0.0435752258 0
      vertex -0.0321679344 0.0442145801 0.025
      vertex -0.030312092 0.042292207 0
    endloop
  endfacet
  facet normal 0.324052 -0.941112655 0.0964223613
    outer loop
      vertex -0.030312092 0.042292207 0
      vertex -0.0321679344 0.0442145801 0.025
      vertex -0.0387590236 0.0419450796 0.025
    endloop
  endfacet
  facet normal 0.328363812 -0.93946388 0.0979021179
    outer loop
      vertex -0.030312092 0.042292207 0
      vertex -0.0387590236 0.0419450796 0.025
      vertex -0.0365229261 0.0401213805 0
    endloop
  endfacet
  facet normal 0.545813627 -0.830731471 0.10941987
    outer loop
      vertex -0.0365229261 0.0401213805 0
      vertex -0.0387590236 0.0419450796 0.025
      vertex -0.0437266136 0.0386812351 0.025
    endloop
  endfacet
  facet normal 0.551411822 -0.826780556 0.111260571
    outer loop
      vertex -0.0365229261 0.0401213805 0
      vertex -0.0437266136 0.0386812351 0.025
      vertex -0.0412039243 0.0369994423 0
    endloop
  endfacet
  facet normal 0.760350312 -0.638393509 0.119670927
    outer loop
      vertex -0.0412039243 0.0369994423 0
      vertex -0.0437266136 0.0386812351 0.025
      vertex -0.0474161769 0.0342868286 0.025
    endloop
  endfacet
  facet normal 0.764866788 -0.632642595 0.121417227
    outer loop
      vertex -0.0412039243 0.0369994423 0
      vertex -0.0474161769 0.0342868286 0.025
      vertex -0.0446806282 0.0327960969 0
    endloop
  endfacet
  facet normal 0.908335389 -0.399678099 0.123224339
    outer loop
      vertex -0.0446806282 0.0327960969 0
      vertex -0.0474161769 0.0342868286 0.025
      vertex -0.0499816992 0.0284562496 0.025
    endloop
  endfacet
  facet normal 0.910366481 -0.39461925 0.124533202
    outer loop
      vertex -0.0446806282 0.0327960969 0
      vertex -0.0499816992 0.0284562496 0.025
      vertex -0.0470981396 0.0272190214 0
    endloop
  endfacet
  facet normal 0.97579421 -0.181801629 0.121547634
    outer loop
      vertex -0.0470981396 0.0272190214 0
      vertex -0.0499816992 0.0284562496 0.025
      vertex -0.0514979941 0.0203177538 0.025
    endloop
  endfacet
  facet normal 0.976181421 -0.179171101 0.12234194
    outer loop
      vertex -0.0470981396 0.0272190214 0
      vertex -0.0514979941 0.0203177538 0.025
      vertex -0.048526956 0.0194343732 0
    endloop
  endfacet
  facet normal 0.992611669 -0.0245251966 0.118830088
    outer loop
      vertex -0.048526956 0.0194343732 0
      vertex -0.0514979941 0.0203177538 0.025
      vertex -0.052 5.090533e-10 0.025
    endloop
  endfacet
  facet normal 0.992587019 -0.0241601488 0.119110442
    outer loop
      vertex -0.048526956 0.0194343732 0
      vertex -0.052 5.090533e-10 0.025
      vertex -0.049 4.86920548e-10 0
    endloop
  endfacet
  facet normal 0.992578213 0.0245243688 0.119109386
    outer loop
      vertex -0.049 4.86920548e-10 0
      vertex -0.052 5.090533e-10 0.025
      vertex -0.0514979941 -0.0203177538 0.025
    endloop
  endfacet
  facet normal 0.992621994 0.0241609989 0.118818446
    outer loop
      vertex -0.049 4.86920548e-10 0
      vertex -0.0514979941 -0.0203177538 0.025
      vertex -0.048526956 -0.0194343732 0
    endloop
  endfacet
  facet normal 0.975694105 0.181782978 0.122376317
    outer loop
      vertex -0.048526956 -0.0194343732 0
      vertex -0.0514979941 -0.0203177538 0.025
      vertex -0.0499816992 -0.0284562496 0.025
    endloop
  endfacet
  facet normal 0.976286136 0.179190321 0.121475142
    outer loop
      vertex -0.048526956 -0.0194343732 0
      vertex -0.0499816992 -0.0284562496 0.025
      vertex -0.0470981396 -0.0272190214 0
    endloop
  endfacet
  facet normal 0.908186328 0.399612511 0.124528851
    outer loop
      vertex -0.0470981396 -0.0272190214 0
      vertex -0.0499816992 -0.0284562496 0.025
      vertex -0.0474161769 -0.0342868286 0.025
    endloop
  endfacet
  facet normal 0.910523033 0.394687111 0.123166106
    outer loop
      vertex -0.0470981396 -0.0272190214 0
      vertex -0.0474161769 -0.0342868286 0.025
      vertex -0.0446806282 -0.0327960969 0
    endloop
  endfacet
  facet normal 0.760204253 0.638270877 0.121242654
    outer loop
      vertex -0.0446806282 -0.0327960969 0
      vertex -0.0474161769 -0.0342868286 0.025
      vertex -0.0437266136 -0.0386812351 0.025
    endloop
  endfacet
  facet normal 0.765021538 0.632770594 0.119764026
    outer loop
      vertex -0.0446806282 -0.0327960969 0
      vertex -0.0437266136 -0.0386812351 0.025
      vertex -0.0412039243 -0.0369994423 0
    endloop
  endfacet
  facet normal 0.545720934 0.830590392 0.110942612
    outer loop
      vertex -0.0412039243 -0.0369994423 0
      vertex -0.0437266136 -0.0386812351 0.025
      vertex -0.0387590236 -0.0419450796 0.025
    endloop
  endfacet
  facet normal 0.551511008 0.826929274 0.109652103
    outer loop
      vertex -0.0412039243 -0.0369994423 0
      vertex -0.0387590236 -0.0419450796 0.025
      vertex -0.0365229261 -0.0401213805 0
    endloop
  endfacet
  facet normal 0.324013824 0.941001784 0.0976252249
    outer loop
      vertex -0.0365229261 -0.0401213805 0
      vertex -0.0387590236 -0.0419450796 0.025
      vertex -0.0321679344 -0.0442145801 0.025
    endloop
  endfacet
  facet normal 0.328404904 0.939581448 0.0966277514
    outer loop
      vertex -0.0365229261 -0.0401213805 0
      vertex -0.0321679344 -0.0442145801 0.025
      vertex -0.030312092 -0.042292207 0
    endloop
  endfacet
  facet normal 0.143731223 0.985831319 0.0864751219
    outer loop
      vertex -0.030312092 -0.042292207 0
      vertex -0.0321679344 -0.0442145801 0.025
      vertex -0.0229678957 -0.0455559179 0.025
    endloop
  endfacet
  facet normal 0.14586152 0.985575992 0.0858159767
    outer loop
      vertex -0.030312092 -0.042292207 0
      vertex -0.0229678957 -0.0455559179 0.025
      vertex -0.0216428248 -0.0435752258 0
    endloop
  endfacet
  facet normal 0.0192693654 0.996610164 0.0799804455
    outer loop
      vertex -0.0216428248 -0.0435752258 0
      vertex -0.0229678957 -0.0455559179 0.025
      vertex -7.04781343e-10 -0.046 0.025
    endloop
  endfacet
  facet normal 0.0195603129 0.996624567 0.0797299654
    outer loop
      vertex -0.0216428248 -0.0435752258 0
      vertex -7.04781343e-10 -0.046 0.025
      vertex -6.64120881e-10 -0.044 0
    endloop
  endfacet
  facet normal -0.0192697515 0.996630191 0.0797304152
    outer loop
      vertex -6.64120881e-10 -0.044 0
      vertex -7.04781343e-10 -0.046 0.025
      vertex 0.0229678957 -0.0455559179 0.025
    endloop
  endfacet
  facet normal -0.0195598945 0.996603312 0.0799953015
    outer loop
      vertex -6.64120881e-10 -0.044 0
      vertex 0.0229678957 -0.0455559179 0.025
      vertex 0.0216428248 -0.0435752258 0
    endloop
  endfacet
  facet normal -0.143740528 0.985895139 0.0857288435
    outer loop
      vertex 0.0216428248 -0.0435752258 0
      vertex 0.0229678957 -0.0455559179 0.025
      vertex 0.0321679344 -0.0442145801 0.025
    endloop
  endfacet
  facet normal -0.14585149 0.985508221 0.0866076726
    outer loop
      vertex 0.0216428248 -0.0435752258 0
      vertex 0.0321679344 -0.0442145801 0.025
      vertex 0.030312092 -0.042292207 0
    endloop
  endfacet
  facet normal -0.324052 0.941112655 0.0964223613
    outer loop
      vertex 0.030312092 -0.042292207 0
      vertex 0.0321679344 -0.0442145801 0.025
      vertex 0.0387590236 -0.0419450796 0.025
    endloop
  endfacet
  facet normal -0.328363812 0.93946388 0.0979021179
    outer loop
      vertex 0.030312092 -0.042292207 0
      vertex 0.0387590236 -0.0419450796 0.025
      vertex 0.0365229261 -0.0401213805 0
    endloop
  endfacet
  facet normal -0.545813627 0.830731471 0.10941987
    outer loop
      vertex 0.0365229261 -0.0401213805 0
      vertex 0.0387590236 -0.0419450796 0.025
      vertex 0.0437266136 -0.0386812351 0.025
    endloop
  endfacet
  facet normal -0.551411822 0.826780556 0.111260571
    outer loop
      vertex 0.0365229261 -0.0401213805 0
      vertex 0.0437266136 -0.0386812351 0.025
      vertex 0.0412039243 -0.0369994423 0
    endloop
  endfacet
  facet normal -0.760350312 0.638393509 0.119670927
    outer loop
      vertex 0.0412039243 -0.0369994423 0
      vertex 0.0437266136 -0.0386812351 0.025
      vertex 0.0474161769 -0.0342868286 0.025
    endloop
  endfacet
  facet normal -0.764866788 0.632642595 0.121417227
    outer loop
      vertex 0.0412039243 -0.0369994423 0
      vertex 0.0474161769 -0.0342868286 0.025
      vertex 0.0446806282 -0.0327960969 0
    endloop
  endfacet
  facet normal -0.908335389 0.399678099 0.123224339
    outer loop
      vertex 0.0446806282 -0.0327960969 0
      vertex 0.0474161769 -0.0342868286 0.025
      vertex 0.0499816992 -0.0284562496 0.025
    endloop
  endfacet
  facet normal -0.910366481 0.39461925 0.124533202
    outer loop
      vertex 0.0446806282 -0.0327960969 0
      vertex 0.0499816992 -0.0284562496 0.025
      vertex 0.0470981396 -0.0272190214 0
    endloop
  endfacet
  facet normal -0.97579421 0.181801629 0.121547634
    outer loop
      vertex 0.0470981396 -0.0272190214 0
      vertex 0.0499816992 -0.0284562496 0.025
      vertex 0.0514979941 -0.0203177538 0.025
    endloop
  endfacet
  facet normal -0.976181421 0.179171101 0.12234194
    outer loop
      vertex 0.0470981396 -0.0272190214 0
      vertex 0.0514979941 -0.0203177538 0.025
      vertex 0.048526956 -0.0194343732 0
    endloop
  endfacet
  facet normal -0.992611669 0.024525196 0.118830088
    outer loop
      vertex 0.048526956 -0.0194343732 0
      vertex 0.0514979941 -0.0203177538 0.025
      vertex 0.052 0 0.025
    endloop
  endfacet
  facet normal -0.992587019 0.0241601482 0.119110442
    outer loop
      vertex 0.048526956 -0.0194343732 0
      vertex 0.052 0 0.025
      vertex 0.049 0 0
    endloop
  endfacet
  facet normal -0.989878391 -0.0247264284 -0.139747538
    outer loop
      vertex 0.052 0 0.025
      vertex 0.04 0 0.11
      vertex 0.0396138416 0.0154591605 0.11
    endloop
  endfacet
  facet normal -0.989878171 -0.0244576575 -0.139796388
    outer loop
      vertex 0.052 0 0.025
      vertex 0.0396138416 0.0154591605 0.11
      vertex 0.0514979941 0.0203177538 0.025
    endloop
  endfacet
  facet normal -0.972132985 -0.183109825 -0.146383915
    outer loop
      vertex 0.0514979941 0.0203177538 0.025
      vertex 0.0396138416 0.0154591605 0.11
      vertex 0.0384474609 0.0216514943 0.11
    endloop
  endfacet
  facet normal -0.972481094 -0.181184358 -0.146467575
    outer loop
      vertex 0.0514979941 0.0203177538 0.025
      vertex 0.0384474609 0.0216514943 0.11
      vertex 0.0499816992 0.0284562496 0.025
    endloop
  endfacet
  facet normal -0.902684546 -0.401556406 -0.154638491
    outer loop
      vertex 0.0499816992 0.0284562496 0.025
      vertex 0.0384474609 0.0216514943 0.11
      vertex 0.0364739822 0.0260878043 0.11
    endloop
  endfacet
  facet normal -0.90427926 -0.397893356 -0.154789847
    outer loop
      vertex 0.0499816992 0.0284562496 0.025
      vertex 0.0364739822 0.0260878043 0.11
      vertex 0.0474161769 0.0342868286 0.025
    endloop
  endfacet
  facet normal -0.752737634 -0.638946946 -0.15853345
    outer loop
      vertex 0.0474161769 0.0342868286 0.025
      vertex 0.0364739822 0.0260878043 0.11
      vertex 0.0336358566 0.0294313745 0.11
    endloop
  endfacet
  facet normal -0.756129856 -0.634849996 -0.158849371
    outer loop
      vertex 0.0474161769 0.0342868286 0.025
      vertex 0.0336358566 0.0294313745 0.11
      vertex 0.0437266136 0.0386812351 0.025
    endloop
  endfacet
  facet normal -0.538414501 -0.828475124 -0.154073991
    outer loop
      vertex 0.0437266136 0.0386812351 0.025
      vertex 0.0336358566 0.0294313745 0.11
      vertex 0.0298146335 0.0319147345 0.11
    endloop
  endfacet
  facet normal -0.542515248 -0.82571132 -0.154525147
    outer loop
      vertex 0.0437266136 0.0386812351 0.025
      vertex 0.0298146335 0.0319147345 0.11
      vertex 0.0387590236 0.0419450796 0.025
    endloop
  endfacet
  facet normal -0.319034585 -0.936722836 -0.144108507
    outer loop
      vertex 0.0387590236 0.0419450796 0.025
      vertex 0.0298146335 0.0319147345 0.11
      vertex 0.0247445649 0.0336415283 0.11
    endloop
  endfacet
  facet normal -0.322151501 -0.935593221 -0.144512061
    outer loop
      vertex 0.0387590236 0.0419450796 0.025
      vertex 0.0247445649 0.0336415283 0.11
      vertex 0.0321679344 0.0442145801 0.025
    endloop
  endfacet
  facet normal -0.141441533 -0.980787404 -0.134351632
    outer loop
      vertex 0.0321679344 0.0442145801 0.025
      vertex 0.0247445649 0.0336415283 0.11
      vertex 0.017667612 0.0346621114 0.11
    endloop
  endfacet
  facet normal -0.142959141 -0.980535723 -0.13458224
    outer loop
      vertex 0.0321679344 0.0442145801 0.025
      vertex 0.017667612 0.0346621114 0.11
      vertex 0.0229678957 0.0455559179 0.025
    endloop
  endfacet
  facet normal -0.0189633107 -0.991558862 -0.128263074
    outer loop
      vertex 0.0229678957 0.0455559179 0.025
      vertex 0.017667612 0.0346621114 0.11
      vertex 3.13004383e-10 0.035 0.11
    endloop
  endfacet
  facet normal -0.019171484 -0.991547759 -0.128317945
    outer loop
      vertex 0.0229678957 0.0455559179 0.025
      vertex 3.13004383e-10 0.035 0.11
      vertex 4.06905698e-10 0.046 0.025
    endloop
  endfacet
  facet normal 0.018963173 -0.991551699 -0.128318455
    outer loop
      vertex 4.06905698e-10 0.046 0.025
      vertex 3.13004383e-10 0.035 0.11
      vertex -0.017667612 0.0346621114 0.11
    endloop
  endfacet
  facet normal 0.0191715899 -0.991553269 -0.128275344
    outer loop
      vertex 4.06905698e-10 0.046 0.025
      vertex -0.017667612 0.0346621114 0.11
      vertex -0.0229678957 0.0455559179 0.025
    endloop
  endfacet
  facet normal 0.141438334 -0.980765223 -0.134516821
    outer loop
      vertex -0.0229678957 0.0455559179 0.025
      vertex -0.017667612 0.0346621114 0.11
      vertex -0.0247445649 0.0336415283 0.11
    endloop
  endfacet
  facet normal 0.142961629 -0.980552788 -0.134455204
    outer loop
      vertex -0.0229678957 0.0455559179 0.025
      vertex -0.0247445649 0.0336415283 0.11
      vertex -0.0321679344 0.0442145801 0.025
    endloop
  endfacet
  facet normal 0.319022075 -0.936686106 -0.144374699
    outer loop
      vertex -0.0321679344 0.0442145801 0.025
      vertex -0.0247445649 0.0336415283 0.11
      vertex -0.0298146335 0.0319147345 0.11
    endloop
  endfacet
  facet normal 0.322161218 -0.935621441 -0.144307548
    outer loop
      vertex -0.0321679344 0.0442145801 0.025
      vertex -0.0298146335 0.0319147345 0.11
      vertex -0.0387590236 0.0419450796 0.025
    endloop
  endfacet
  facet normal 0.538385786 -0.82843094 -0.154411538
    outer loop
      vertex -0.0387590236 0.0419450796 0.025
      vertex -0.0298146335 0.0319147345 0.11
      vertex -0.0336358566 0.0294313745 0.11
    endloop
  endfacet
  facet normal 0.542537454 -0.825745118 -0.154266362
    outer loop
      vertex -0.0387590236 0.0419450796 0.025
      vertex -0.0336358566 0.0294313745 0.11
      vertex -0.0437266136 0.0386812351 0.025
    endloop
  endfacet
  facet normal 0.752694742 -0.638910538 -0.158883448
    outer loop
      vertex -0.0437266136 0.0386812351 0.025
      vertex -0.0336358566 0.0294313745 0.11
      vertex -0.0364739822 0.0260878043 0.11
    endloop
  endfacet
  facet normal 0.756162791 -0.634877648 -0.158581855
    outer loop
      vertex -0.0437266136 0.0386812351 0.025
      vertex -0.0364739822 0.0260878043 0.11
      vertex -0.0474161769 0.0342868286 0.025
    endloop
  endfacet
  facet normal 0.902642715 -0.401537798 -0.154930711
    outer loop
      vertex -0.0474161769 0.0342868286 0.025
      vertex -0.0364739822 0.0260878043 0.11
      vertex -0.0384474609 0.0216514943 0.11
    endloop
  endfacet
  facet normal 0.904311181 -0.397907401 -0.154567096
    outer loop
      vertex -0.0474161769 0.0342868286 0.025
      vertex -0.0384474609 0.0216514943 0.11
      vertex -0.0499816992 0.0284562496 0.025
    endloop
  endfacet
  facet normal 0.97210585 -0.183104714 -0.146570392
    outer loop
      vertex -0.0499816992 0.0284562496 0.025
      vertex -0.0384474609 0.0216514943 0.11
      vertex -0.0396138416 0.0154591605 0.11
    endloop
  endfacet
  facet normal 0.972501745 -0.181188205 -0.146325633
    outer loop
      vertex -0.0499816992 0.0284562496 0.025
      vertex -0.0396138416 0.0154591605 0.11
      vertex -0.0514979941 0.0203177538 0.025
    endloop
  endfacet
  facet normal 0.989869502 -0.024726207 -0.139810526
    outer loop
      vertex -0.0514979941 0.0203177538 0.025
      vertex -0.0396138416 0.0154591605 0.11
      vertex -0.04 3.87323163e-10 0.11
    endloop
  endfacet
  facet normal 0.989884934 -0.0244578252 -0.139748461
    outer loop
      vertex -0.0514979941 0.0203177538 0.025
      vertex -0.04 3.87323163e-10 0.11
      vertex -0.052 5.090533e-10 0.025
    endloop
  endfacet
  facet normal 0.989878391 0.0247264278 -0.139747538
    outer loop
      vertex -0.052 5.090533e-10 0.025
      vertex -0.04 3.87323163e-10 0.11
      vertex -0.0396138416 -0.0154591605 0.11
    endloop
  endfacet
  facet normal 0.989878171 0.0244576568 -0.139796387
    outer loop
      vertex -0.052 5.090533e-10 0.025
      vertex -0.0396138416 -0.0154591605 0.11
      vertex -0.0514979941 -0.0203177538 0.025
    endloop
  endfacet
  facet normal 0.972132985 0.183109825 -0.146383915
    outer loop
      vertex -0.0514979941 -0.0203177538 0.025
      vertex -0.0396138416 -0.0154591605 0.11
      vertex -0.0384474609 -0.0216514943 0.11
    endloop
  endfacet
  facet normal 0.972481094 0.181184358 -0.146467575
    outer loop
      vertex -0.0514979941 -0.0203177538 0.025
      vertex -0.0384474609 -0.0216514943 0.11
      vertex -0.0499816992 -0.0284562496 0.025
    endloop
  endfacet
  facet normal 0.902684546 0.401556406 -0.154638491
    outer loop
      vertex -0.0499816992 -0.0284562496 0.025
      vertex -0.0384474609 -0.0216514943 0.11
      vertex -0.0364739822 -0.0260878043 0.11
    endloop
  endfacet
  facet normal 0.90427926 0.397893356 -0.154789847
    outer loop
      vertex -0.0499816992 -0.0284562496 0.025
      vertex -0.0364739822 -0.0260878043 0.11
      vertex -0.0474161769 -0.0342868286 0.025
    endloop
  endfacet
  facet normal 0.752737634 0.638946946 -0.15853345
    outer loop
      vertex -0.0474161769 -0.0342868286 0.025
      vertex -0.0364739822 -0.0260878043 0.11
      vertex -0.0336358566 -0.0294313745 0.11
    endloop
  endfacet
  facet normal 0.756129856 0.634849996 -0.158849371
    outer loop
      vertex -0.0474161769 -0.0342868286 0.025
      vertex -0.0336358566 -0.0294313745 0.11
      vertex -0.0437266136 -0.0386812351 0.025
    endloop
  endfacet
  facet normal 0.538414501 0.828475124 -0.154073991
    outer loop
      vertex -0.0437266136 -0.0386812351 0.025
      vertex -0.0336358566 -0.0294313745 0.11
      vertex -0.0298146335 -0.0319147345 0.11
    endloop
  endfacet
  facet normal 0.542515248 0.82571132 -0.154525147
    outer loop
      vertex -0.0437266136 -0.0386812351 0.025
      vertex -0.0298146335 -0.0319147345 0.11
      vertex -0.0387590236 -0.0419450796 0.025
    endloop
  endfacet
  facet normal 0.319034585 0.936722836 -0.144108507
    outer loop
      vertex -0.0387590236 -0.0419450796 0.025
      vertex -0.0298146335 -0.0319147345 0.11
      vertex -0.0247445649 -0.0336415283 0.11
    endloop
  endfacet
  facet normal 0.322151501 0.935593221 -0.144512061
    outer loop
      vertex -0.0387590236 -0.0419450796 0.025
      vertex -0.0247445649 -0.0336415283 0.11
      vertex -0.0321679344 -0.0442145801 0.025
    endloop
  endfacet
  facet normal 0.141441533 0.980787404 -0.134351632
    outer loop
      vertex -0.0321679344 -0.0442145801 0.025
      vertex -0.0247445649 -0.0336415283 0.11
      vertex -0.017667612 -0.0346621114 0.11
    endloop
  endfacet
  facet normal 0.142959141 0.980535723 -0.13458224
    outer loop
      vertex -0.0321679344 -0.0442145801 0.025
      vertex -0.017667612 -0.0346621114 0.11
      vertex -0.0229678957 -0.0455559179 0.025
    endloop
  endfacet
  facet normal 0.0189633109 0.991558862 -0.128263074
    outer loop
      vertex -0.0229678957 -0.0455559179 0.025
      vertex -0.017667612 -0.0346621114 0.11
      vertex -5.42139495e-10 -0.035 0.11
    endloop
  endfacet
  facet normal 0.0191714843 0.991547759 -0.128317945
    outer loop
      vertex -0.0229678957 -0.0455559179 0.025
      vertex -5.42139495e-10 -0.035 0.11
      vertex -7.04781343e-10 -0.046 0.025
    endloop
  endfacet
  facet normal -0.0189631728 0.991551699 -0.128318455
    outer loop
      vertex -7.04781343e-10 -0.046 0.025
      vertex -5.42139495e-10 -0.035 0.11
      vertex 0.017667612 -0.0346621114 0.11
    endloop
  endfacet
  facet normal -0.0191715896 0.991553269 -0.128275344
    outer loop
      vertex -7.04781343e-10 -0.046 0.025
      vertex 0.017667612 -0.0346621114 0.11
      vertex 0.0229678957 -0.0455559179 0.025
    endloop
  endfacet
  facet normal -0.141438334 0.980765223 -0.134516821
    outer loop
      vertex 0.0229678957 -0.0455559179 0.025
      vertex 0.017667612 -0.0346621114 0.11
      vertex 0.0247445649 -0.0336415283 0.11
    endloop
  endfacet
  facet normal -0.142961629 0.980552788 -0.134455204
    outer loop
      vertex 0.0229678957 -0.0455559179 0.025
      vertex 0.0247445649 -0.0336415283 0.11
      vertex 0.0321679344 -0.0442145801 0.025
    endloop
  endfacet
  facet normal -0.319022075 0.936686106 -0.144374699
    outer loop
      vertex 0.0321679344 -0.0442145801 0.025
      vertex 0.0247445649 -0.0336415283 0.11
      vertex 0.0298146335 -0.0319147345 0.11
    endloop
  endfacet
  facet normal -0.322161218 0.935621441 -0.144307548
    outer loop
      vertex 0.0321679344 -0.0442145801 0.025
      vertex 0.0298146335 -0.0319147345 0.11
      vertex 0.0387590236 -0.0419450796 0.025
    endloop
  endfacet
  facet normal -0.538385786 0.82843094 -0.154411538
    outer loop
      vertex 0.0387590236 -0.0419450796 0.025
      vertex 0.0298146335 -0.0319147345 0.11
      vertex 0.0336358566 -0.0294313745 0.11
    endloop
  endfacet
  facet normal -0.542537454 0.825745118 -0.154266362
    outer loop
      vertex 0.0387590236 -0.0419450796 0.025
      vertex 0.0336358566 -0.0294313745 0.11
      vertex 0.0437266136 -0.0386812351 0.025
    endloop
  endfacet
  facet normal -0.752694742 0.638910538 -0.158883448
    outer loop
      vertex 0.0437266136 -0.0386812351 0.025
      vertex 0.0336358566 -0.0294313745 0.11
      vertex 0.0364739822 -0.0260878043 0.11
    endloop
  endfacet
  facet normal -0.756162791 0.634877648 -0.158581855
    outer loop
      vertex 0.0437266136 -0.0386812351 0.025
      vertex 0.0364739822 -0.0260878043 0.11
      vertex 0.0474161769 -0.0342868286 0.025
    endloop
  endfacet
  facet normal -0.902642715 0.401537798 -0.154930711
    outer loop
      vertex 0.0474161769 -0.0342868286 0.025
      vertex 0.0364739822 -0.0260878043 0.11
      vertex 0.0384474609 -0.0216514943 0.11
    endloop
  endfacet
  facet normal -0.904311181 0.397907401 -0.154567096
    outer loop
      vertex 0.0474161769 -0.0342868286 0.025
      vertex 0.0384474609 -0.0216514943 0.11
      vertex 0.0499816992 -0.0284562496 0.025
    endloop
  endfacet
  facet normal -0.97210585 0.183104714 -0.146570392
    outer loop
      vertex 0.0499816992 -0.0284562496 0.025
      vertex 0.0384474609 -0.0216514943 0.11
      vertex 0.0396138416 -0.0154591605 0.11
    endloop
  endfacet
  facet normal -0.972501745 0.181188205 -0.146325633
    outer loop
      vertex 0.0499816992 -0.0284562496 0.025
      vertex 0.0396138416 -0.0154591605 0.11
      vertex 0.0514979941 -0.0203177538 0.025
    endloop
  endfacet
  facet normal -0.989869502 0.0247262064 -0.139810526
    outer loop
      vertex 0.0514979941 -0.0203177538 0.025
      vertex 0.0396138416 -0.0154591605 0.11
      vertex 0.04 0 0.11
    endloop
  endfacet
  facet normal -0.989884934 0.0244578246 -0.139748461
    outer loop
      vertex 0.0514979941 -0.0203177538 0.025
      vertex 0.04 0 0.11
      vertex 0.052 0 0.025
    endloop
  endfacet
  facet normal -0.999415916 -0.0247959885 0.0235156686
    outer loop
      vertex 0.04 0 0.11
      vertex 0.042 0 0.195
      vertex 0.0415945337 0.0163425411 0.195
    endloop
  endfacet
  facet normal -0.999410959 -0.0249645449 0.0235479831
    outer loop
      vertex 0.04 0 0.11
      vertex 0.0415945337 0.0163425411 0.195
      vertex 0.0396138416 0.0154591605 0.11
    endloop
  endfacet
  facet normal -0.982643269 -0.183838925 0.0248083939
    outer loop
      vertex 0.0396138416 0.0154591605 0.11
      vertex 0.0415945337 0.0163425411 0.195
      vertex 0.040369834 0.0228887225 0.195
    endloop
  endfacet
  facet normal -0.98241399 -0.185046343 0.024911891
    outer loop
      vertex 0.0396138416 0.0154591605 0.11
      vertex 0.040369834 0.0228887225 0.195
      vertex 0.0384474609 0.0216514943 0.11
    endloop
  endfacet
  facet normal -0.914370445 -0.404006498 0.02656011
    outer loop
      vertex 0.0384474609 0.0216514943 0.11
      vertex 0.040369834 0.0228887225 0.195
      vertex 0.0382976813 0.027578536 0.195
    endloop
  endfacet
  facet normal -0.913348765 -0.406300351 0.0267218604
    outer loop
      vertex 0.0384474609 0.0216514943 0.11
      vertex 0.0382976813 0.027578536 0.195
      vertex 0.0364739822 0.0260878043 0.11
    endloop
  endfacet
  facet normal -0.76424473 -0.644331318 0.0276973828
    outer loop
      vertex 0.0364739822 0.0260878043 0.11
      vertex 0.0382976813 0.027578536 0.195
      vertex 0.0353176494 0.0311131674 0.195
    endloop
  endfacet
  facet normal -0.762082678 -0.646879309 0.0278774373
    outer loop
      vertex 0.0364739822 0.0260878043 0.11
      vertex 0.0353176494 0.0311131674 0.195
      vertex 0.0336358566 0.0294313745 0.11
    endloop
  endfacet
  facet normal -0.547314298 -0.836479184 0.0273794583
    outer loop
      vertex 0.0336358566 0.0294313745 0.11
      vertex 0.0353176494 0.0311131674 0.195
      vertex 0.0313053652 0.0337384336 0.195
    endloop
  endfacet
  facet normal -0.544714602 -0.838169285 0.0275363752
    outer loop
      vertex 0.0336358566 0.0294313745 0.11
      vertex 0.0313053652 0.0337384336 0.195
      vertex 0.0298146335 0.0319147345 0.11
    endloop
  endfacet
  facet normal -0.32425353 -0.945613525 0.0259751712
    outer loop
      vertex 0.0298146335 0.0319147345 0.11
      vertex 0.0313053652 0.0337384336 0.195
      vertex 0.0259817931 0.0355639014 0.195
    endloop
  endfacet
  facet normal -0.322290064 -0.946281302 0.0260923769
    outer loop
      vertex 0.0298146335 0.0319147345 0.11
      vertex 0.0259817931 0.0355639014 0.195
      vertex 0.0247445649 0.0336415283 0.11
    endloop
  endfacet
  facet normal -0.143643615 -0.989327017 0.0244655945
    outer loop
      vertex 0.0247445649 0.0336415283 0.11
      vertex 0.0259817931 0.0355639014 0.195
      vertex 0.0185509926 0.0366428035 0.195
    endloop
  endfacet
  facet normal -0.14269263 -0.989462792 0.0245396826
    outer loop
      vertex 0.0247445649 0.0336415283 0.11
      vertex 0.0185509926 0.0366428035 0.195
      vertex 0.017667612 0.0346621114 0.11
    endloop
  endfacet
  facet normal -0.0192459646 -0.999538764 0.0234915297
    outer loop
      vertex 0.017667612 0.0346621114 0.11
      vertex 0.0185509926 0.0366428035 0.195
      vertex 3.28654602e-10 0.037 0.195
    endloop
  endfacet
  facet normal -0.0191159598 -0.999540622 0.0235186029
    outer loop
      vertex 0.017667612 0.0346621114 0.11
      vertex 3.28654602e-10 0.037 0.195
      vertex 3.13004383e-10 0.035 0.11
    endloop
  endfacet
  facet normal 0.0192459517 -0.999538129 0.0235185442
    outer loop
      vertex 3.13004383e-10 0.035 0.11
      vertex 3.28654602e-10 0.037 0.195
      vertex -0.0185509926 0.0366428035 0.195
    endloop
  endfacet
  facet normal 0.0191159719 -0.999541289 0.0234902376
    outer loop
      vertex 3.13004383e-10 0.035 0.11
      vertex -0.0185509926 0.0366428035 0.195
      vertex -0.017667612 0.0346621114 0.11
    endloop
  endfacet
  facet normal 0.14364333 -0.989325058 0.0245463534
    outer loop
      vertex -0.017667612 0.0346621114 0.11
      vertex -0.0185509926 0.0366428035 0.195
      vertex -0.0259817931 0.0355639014 0.195
    endloop
  endfacet
  facet normal 0.142692927 -0.989464849 0.0244548738
    outer loop
      vertex -0.017667612 0.0346621114 0.11
      vertex -0.0259817931 0.0355639014 0.195
      vertex -0.0247445649 0.0336415283 0.11
    endloop
  endfacet
  facet normal 0.324252427 -0.945610307 0.026105765
    outer loop
      vertex -0.0247445649 0.0336415283 0.11
      vertex -0.0259817931 0.0355639014 0.195
      vertex -0.0313053652 0.0337384336 0.195
    endloop
  endfacet
  facet normal 0.322291215 -0.946284684 0.025955156
    outer loop
      vertex -0.0247445649 0.0336415283 0.11
      vertex -0.0313053652 0.0337384336 0.195
      vertex -0.0298146335 0.0319147345 0.11
    endloop
  endfacet
  facet normal 0.547311799 -0.836475365 0.0275455814
    outer loop
      vertex -0.0298146335 0.0319147345 0.11
      vertex -0.0313053652 0.0337384336 0.195
      vertex -0.0353176494 0.0311131674 0.195
    endloop
  endfacet
  facet normal 0.544717217 -0.838173309 0.0273615926
    outer loop
      vertex -0.0298146335 0.0319147345 0.11
      vertex -0.0353176494 0.0311131674 0.195
      vertex -0.0336358566 0.0294313745 0.11
    endloop
  endfacet
  facet normal 0.764241069 -0.644328232 0.0278696677
    outer loop
      vertex -0.0336358566 0.0294313745 0.11
      vertex -0.0353176494 0.0311131674 0.195
      vertex -0.0382976813 0.027578536 0.195
    endloop
  endfacet
  facet normal 0.762086527 -0.646882576 0.027695822
    outer loop
      vertex -0.0336358566 0.0294313745 0.11
      vertex -0.0382976813 0.027578536 0.195
      vertex -0.0364739822 0.0260878043 0.11
    endloop
  endfacet
  facet normal 0.914366952 -0.404004955 0.0267034492
    outer loop
      vertex -0.0364739822 0.0260878043 0.11
      vertex -0.0382976813 0.027578536 0.195
      vertex -0.040369834 0.0228887225 0.195
    endloop
  endfacet
  facet normal 0.913352452 -0.406301991 0.0265704992
    outer loop
      vertex -0.0364739822 0.0260878043 0.11
      vertex -0.040369834 0.0228887225 0.195
      vertex -0.0384474609 0.0216514943 0.11
    endloop
  endfacet
  facet normal 0.982641043 -0.183838509 0.0248994453
    outer loop
      vertex -0.0384474609 0.0216514943 0.11
      vertex -0.040369834 0.0228887225 0.195
      vertex -0.0415945337 0.0163425411 0.195
    endloop
  endfacet
  facet normal 0.982416342 -0.185046786 0.024815659
    outer loop
      vertex -0.0384474609 0.0216514943 0.11
      vertex -0.0415945337 0.0163425411 0.195
      vertex -0.0396138416 0.0154591605 0.11
    endloop
  endfacet
  facet normal 0.999415194 -0.0247959712 0.0235463299
    outer loop
      vertex -0.0396138416 0.0154591605 0.11
      vertex -0.0415945337 0.0163425411 0.195
      vertex -0.042 4.09455916e-10 0.195
    endloop
  endfacet
  facet normal 0.999411721 -0.0249645646 0.0235155699
    outer loop
      vertex -0.0396138416 0.0154591605 0.11
      vertex -0.042 4.09455916e-10 0.195
      vertex -0.04 3.87323163e-10 0.11
    endloop
  endfacet
  facet normal 0.999415916 0.0247959879 0.0235156686
    outer loop
      vertex -0.04 3.87323163e-10 0.11
      vertex -0.042 4.09455916e-10 0.195
      vertex -0.0415945337 -0.0163425411 0.195
    endloop
  endfacet
  facet normal 0.999410959 0.0249645443 0.0235479831
    outer loop
      vertex -0.04 3.87323163e-10 0.11
      vertex -0.0415945337 -0.0163425411 0.195
      vertex -0.0396138416 -0.0154591605 0.11
    endloop
  endfacet
  facet normal 0.982643269 0.183838925 0.0248083939
    outer loop
      vertex -0.0396138416 -0.0154591605 0.11
      vertex -0.0415945337 -0.0163425411 0.195
      vertex -0.040369834 -0.0228887225 0.195
    endloop
  endfacet
  facet normal 0.98241399 0.185046343 0.024911891
    outer loop
      vertex -0.0396138416 -0.0154591605 0.11
      vertex -0.040369834 -0.0228887225 0.195
      vertex -0.0384474609 -0.0216514943 0.11
    endloop
  endfacet
  facet normal 0.914370445 0.404006498 0.02656011
    outer loop
      vertex -0.0384474609 -0.0216514943 0.11
      vertex -0.040369834 -0.0228887225 0.195
      vertex -0.0382976813 -0.027578536 0.195
    endloop
  endfacet
  facet normal 0.913348765 0.406300351 0.0267218604
    outer loop
      vertex -0.0384474609 -0.0216514943 0.11
      vertex -0.0382976813 -0.027578536 0.195
      vertex -0.0364739822 -0.0260878043 0.11
    endloop
  endfacet
  facet normal 0.76424473 0.644331318 0.0276973828
    outer loop
      vertex -0.0364739822 -0.0260878043 0.11
      vertex -0.0382976813 -0.027578536 0.195
      vertex -0.0353176494 -0.0311131674 0.195
    endloop
  endfacet
  facet normal 0.762082678 0.646879309 0.0278774373
    outer loop
      vertex -0.0364739822 -0.0260878043 0.11
      vertex -0.0353176494 -0.0311131674 0.195
      vertex -0.0336358566 -0.0294313745 0.11
    endloop
  endfacet
  facet normal 0.547314298 0.836479184 0.0273794583
    outer loop
      vertex -0.0336358566 -0.0294313745 0.11
      vertex -0.0353176494 -0.0311131674 0.195
      vertex -0.0313053652 -0.0337384336 0.195
    endloop
  endfacet
  facet normal 0.544714602 0.838169285 0.0275363752
    outer loop
      vertex -0.0336358566 -0.0294313745 0.11
      vertex -0.0313053652 -0.0337384336 0.195
      vertex -0.0298146335 -0.0319147345 0.11
    endloop
  endfacet
  facet normal 0.32425353 0.945613525 0.0259751712
    outer loop
      vertex -0.0298146335 -0.0319147345 0.11
      vertex -0.0313053652 -0.0337384336 0.195
      vertex -0.0259817931 -0.0355639014 0.195
    endloop
  endfacet
  facet normal 0.322290064 0.946281302 0.0260923769
    outer loop
      vertex -0.0298146335 -0.0319147345 0.11
      vertex -0.0259817931 -0.0355639014 0.195
      vertex -0.0247445649 -0.0336415283 0.11
    endloop
  endfacet
  facet normal 0.143643615 0.989327017 0.0244655945
    outer loop
      vertex -0.0247445649 -0.0336415283 0.11
      vertex -0.0259817931 -0.0355639014 0.195
      vertex -0.0185509926 -0.0366428035 0.195
    endloop
  endfacet
  facet normal 0.14269263 0.989462792 0.0245396826
    outer loop
      vertex -0.0247445649 -0.0336415283 0.11
      vertex -0.0185509926 -0.0366428035 0.195
      vertex -0.017667612 -0.0346621114 0.11
    endloop
  endfacet
  facet normal 0.0192459648 0.999538764 0.0234915297
    outer loop
      vertex -0.017667612 -0.0346621114 0.11
      vertex -0.0185509926 -0.0366428035 0.195
      vertex -5.6924647e-10 -0.037 0.195
    endloop
  endfacet
  facet normal 0.0191159601 0.999540622 0.0235186029
    outer loop
      vertex -0.017667612 -0.0346621114 0.11
      vertex -5.6924647e-10 -0.037 0.195
      vertex -5.42139495e-10 -0.035 0.11
    endloop
  endfacet
  facet normal -0.0192459514 0.999538129 0.0235185442
    outer loop
      vertex -5.42139495e-10 -0.035 0.11
      vertex -5.6924647e-10 -0.037 0.195
      vertex 0.0185509926 -0.0366428035 0.195
    endloop
  endfacet
  facet normal -0.0191159716 0.999541289 0.0234902376
    outer loop
      vertex -5.42139495e-10 -0.035 0.11
      vertex 0.0185509926 -0.0366428035 0.195
      vertex 0.017667612 -0.0346621114 0.11
    endloop
  endfacet
  facet normal -0.14364333 0.989325058 0.0245463534
    outer loop
      vertex 0.017667612 -0.0346621114 0.11
      vertex 0.0185509926 -0.0366428035 0.195
      vertex 0.0259817931 -0.0355639014 0.195
    endloop
  endfacet
  facet normal -0.142692927 0.989464849 0.0244548738
    outer loop
      vertex 0.017667612 -0.0346621114 0.11
      vertex 0.0259817931 -0.0355639014 0.195
      vertex 0.0247445649 -0.0336415283 0.11
    endloop
  endfacet
  facet normal -0.324252427 0.945610307 0.026105765
    outer loop
      vertex 0.0247445649 -0.0336415283 0.11
      vertex 0.0259817931 -0.0355639014 0.195
      vertex 0.0313053652 -0.0337384336 0.195
    endloop
  endfacet
  facet normal -0.322291215 0.946284684 0.025955156
    outer loop
      vertex 0.0247445649 -0.0336415283 0.11
      vertex 0.0313053652 -0.0337384336 0.195
      vertex 0.0298146335 -0.0319147345 0.11
    endloop
  endfacet
  facet normal -0.547311799 0.836475365 0.0275455814
    outer loop
      vertex 0.0298146335 -0.0319147345 0.11
      vertex 0.0313053652 -0.0337384336 0.195
      vertex 0.0353176494 -0.0311131674 0.195
    endloop
  endfacet
  facet normal -0.544717217 0.838173309 0.0273615926
    outer loop
      vertex 0.0298146335 -0.0319147345 0.11
      vertex 0.0353176494 -0.0311131674 0.195
      vertex 0.0336358566 -0.0294313745 0.11
    endloop
  endfacet
  facet normal -0.764241069 0.644328232 0.0278696677
    outer loop
      vertex 0.0336358566 -0.0294313745 0.11
      vertex 0.0353176494 -0.0311131674 0.195
      vertex 0.0382976813 -0.027578536 0.195
    endloop
  endfacet
  facet normal -0.762086527 0.646882576 0.027695822
    outer loop
      vertex 0.0336358566 -0.0294313745 0.11
      vertex 0.0382976813 -0.027578536 0.195
      vertex 0.0364739822 -0.0260878043 0.11
    endloop
  endfacet
  facet normal -0.914366952 0.404004955 0.0267034492
    outer loop
      vertex 0.0364739822 -0.0260878043 0.11
      vertex 0.0382976813 -0.027578536 0.195
      vertex 0.040369834 -0.0228887225 0.195
    endloop
  endfacet
  facet normal -0.913352452 0.406301991 0.0265704992
    outer loop
      vertex 0.0364739822 -0.0260878043 0.11
      vertex 0.040369834 -0.0228887225 0.195
      vertex 0.0384474609 -0.0216514943 0.11
    endloop
  endfacet
  facet normal -0.982641043 0.183838509 0.0248994453
    outer loop
      vertex 0.0384474609 -0.0216514943 0.11
      vertex 0.040369834 -0.0228887225 0.195
      vertex 0.0415945337 -0.0163425411 0.195
    endloop
  endfacet
  facet normal -0.982416342 0.185046786 0.024815659
    outer loop
      vertex 0.0384474609 -0.0216514943 0.11
      vertex 0.0415945337 -0.0163425411 0.195
      vertex 0.0396138416 -0.0154591605 0.11
    endloop
  endfacet
  facet normal -0.999415194 0.0247959706 0.0235463299
    outer loop
      vertex 0.0396138416 -0.0154591605 0.11
      vertex 0.0415945337 -0.0163425411 0.195
      vertex 0.042 0 0.195
    endloop
  endfacet
  facet normal -0.999411721 0.0249645639 0.0235155699
    outer loop
      vertex 0.0396138416 -0.0154591605 0.11
      vertex 0.042 0 0.195
      vertex 0.04 0 0.11
    endloop
  endfacet
  facet normal -0.980298769 -0.0239769879 0.196059754
    outer loop
      vertex 0.042 0 0.195
      vertex 0.047 0 0.22
      vertex 0.0465462639 0.0185509926 0.22
    endloop
  endfacet
  facet normal -0.980241422 -0.0243202601 0.196304047
    outer loop
      vertex 0.042 0 0.195
      vertex 0.0465462639 0.0185509926 0.22
      vertex 0.0415945337 0.0163425411 0.195
    endloop
  endfacet
  facet normal -0.962265089 -0.177475055 0.206272886
    outer loop
      vertex 0.0415945337 0.0163425411 0.195
      vertex 0.0465462639 0.0185509926 0.22
      vertex 0.0451757666 0.0259817931 0.22
    endloop
  endfacet
  facet normal -0.961631134 -0.179907846 0.207120084
    outer loop
      vertex 0.0415945337 0.0163425411 0.195
      vertex 0.0451757666 0.0259817931 0.22
      vertex 0.040369834 0.0228887225 0.195
    endloop
  endfacet
  facet normal -0.894316853 -0.389545854 0.220116775
    outer loop
      vertex 0.040369834 0.0228887225 0.195
      vertex 0.0451757666 0.0259817931 0.22
      vertex 0.0428569291 0.0313053652 0.22
    endloop
  endfacet
  facet normal -0.891988259 -0.394117127 0.221424108
    outer loop
      vertex 0.040369834 0.0228887225 0.195
      vertex 0.0428569291 0.0313053652 0.22
      vertex 0.0382976813 0.027578536 0.195
    endloop
  endfacet
  facet normal -0.748563499 -0.622166232 0.22926375
    outer loop
      vertex 0.0382976813 0.027578536 0.195
      vertex 0.0428569291 0.0313053652 0.22
      vertex 0.0395221315 0.0353176494 0.22
    endloop
  endfacet
  facet normal -0.74393318 -0.627206741 0.230597329
    outer loop
      vertex 0.0382976813 0.027578536 0.195
      vertex 0.0395221315 0.0353176494 0.22
      vertex 0.0353176494 0.0311131674 0.195
    endloop
  endfacet
  facet normal -0.538554509 -0.811426172 0.227038783
    outer loop
      vertex 0.0353176494 0.0311131674 0.195
      vertex 0.0395221315 0.0353176494 0.22
      vertex 0.0350321944 0.0382976813 0.22
    endloop
  endfacet
  facet normal -0.533091574 -0.814742108 0.228054096
    outer loop
      vertex 0.0353176494 0.0311131674 0.195
      vertex 0.0350321944 0.0382976813 0.22
      vertex 0.0313053652 0.0337384336 0.195
    endloop
  endfacet
  facet normal -0.320770584 -0.922198685 0.215999579
    outer loop
      vertex 0.0313053652 0.0337384336 0.195
      vertex 0.0350321944 0.0382976813 0.22
      vertex 0.0290748638 0.040369834 0.22
    endloop
  endfacet
  facet normal -0.316655531 -0.923455643 0.21670014
    outer loop
      vertex 0.0313053652 0.0337384336 0.195
      vertex 0.0290748638 0.040369834 0.22
      vertex 0.0259817931 0.0355639014 0.195
    endloop
  endfacet
  facet normal -0.142649408 -0.968555519 0.20384149
    outer loop
      vertex 0.0259817931 0.0355639014 0.195
      vertex 0.0290748638 0.040369834 0.22
      vertex 0.0207594441 0.0415945337 0.22
    endloop
  endfacet
  facet normal -0.140655891 -0.968749455 0.204304706
    outer loop
      vertex 0.0259817931 0.0355639014 0.195
      vertex 0.0207594441 0.0415945337 0.22
      vertex 0.0185509926 0.0366428035 0.195
    endloop
  endfacet
  facet normal -0.0191496073 -0.980439575 0.195886529
    outer loop
      vertex 0.0185509926 0.0366428035 0.195
      vertex 0.0207594441 0.0415945337 0.22
      vertex 3.6778015e-10 0.042 0.22
    endloop
  endfacet
  facet normal -0.018877565 -0.980405939 0.196081188
    outer loop
      vertex 0.0185509926 0.0366428035 0.195
      vertex 3.6778015e-10 0.042 0.22
      vertex 3.28654602e-10 0.037 0.195
    endloop
  endfacet
  facet normal 0.0191488508 -0.98040088 0.196080176
    outer loop
      vertex 3.28654602e-10 0.037 0.195
      vertex 3.6778015e-10 0.042 0.22
      vertex -0.0207594441 0.0415945337 0.22
    endloop
  endfacet
  facet normal 0.018878398 -0.980449239 0.195864485
    outer loop
      vertex 3.28654602e-10 0.037 0.195
      vertex -0.0207594441 0.0415945337 0.22
      vertex -0.0185509926 0.0366428035 0.195
    endloop
  endfacet
  facet normal 0.142631913 -0.968436728 0.204417322
    outer loop
      vertex -0.0185509926 0.0366428035 0.195
      vertex -0.0207594441 0.0415945337 0.22
      vertex -0.0290748638 0.040369834 0.22
    endloop
  endfacet
  facet normal 0.140675191 -0.96888238 0.203660069
    outer loop
      vertex -0.0185509926 0.0366428035 0.195
      vertex -0.0290748638 0.040369834 0.22
      vertex -0.0259817931 0.0355639014 0.195
    endloop
  endfacet
  facet normal 0.320703382 -0.922005482 0.216922177
    outer loop
      vertex -0.0259817931 0.0355639014 0.195
      vertex -0.0290748638 0.040369834 0.22
      vertex -0.0350321944 0.0382976813 0.22
    endloop
  endfacet
  facet normal 0.316729807 -0.923672253 0.215665942
    outer loop
      vertex -0.0259817931 0.0355639014 0.195
      vertex -0.0350321944 0.0382976813 0.22
      vertex -0.0313053652 0.0337384336 0.195
    endloop
  endfacet
  facet normal 0.538404388 -0.811199989 0.228200117
    outer loop
      vertex -0.0313053652 0.0337384336 0.195
      vertex -0.0350321944 0.0382976813 0.22
      vertex -0.0395221315 0.0353176494 0.22
    endloop
  endfacet
  facet normal 0.533258481 -0.814997197 0.226748673
    outer loop
      vertex -0.0313053652 0.0337384336 0.195
      vertex -0.0395221315 0.0353176494 0.22
      vertex -0.0353176494 0.0311131674 0.195
    endloop
  endfacet
  facet normal 0.748345968 -0.621985432 0.230461352
    outer loop
      vertex -0.0353176494 0.0311131674 0.195
      vertex -0.0395221315 0.0353176494 0.22
      vertex -0.0428569291 0.0313053652 0.22
    endloop
  endfacet
  facet normal 0.744177275 -0.627412537 0.229245918
    outer loop
      vertex -0.0353176494 0.0311131674 0.195
      vertex -0.0428569291 0.0313053652 0.22
      vertex -0.0382976813 0.027578536 0.195
    endloop
  endfacet
  facet normal 0.894109627 -0.389455591 0.221116072
    outer loop
      vertex -0.0382976813 0.027578536 0.195
      vertex -0.0428569291 0.0313053652 0.22
      vertex -0.0451757666 0.0259817931 0.22
    endloop
  endfacet
  facet normal 0.892222637 -0.394220685 0.220292572
    outer loop
      vertex -0.0382976813 0.027578536 0.195
      vertex -0.0451757666 0.0259817931 0.22
      vertex -0.040369834 0.0228887225 0.195
    endloop
  endfacet
  facet normal 0.962132296 -0.177450563 0.206912404
    outer loop
      vertex -0.040369834 0.0228887225 0.195
      vertex -0.0451757666 0.0259817931 0.22
      vertex -0.0465462639 0.0185509926 0.22
    endloop
  endfacet
  facet normal 0.961781838 -0.179936041 0.206394568
    outer loop
      vertex -0.040369834 0.0228887225 0.195
      vertex -0.0465462639 0.0185509926 0.22
      vertex -0.0415945337 0.0163425411 0.195
    endloop
  endfacet
  facet normal 0.98025544 -0.0239759287 0.196276406
    outer loop
      vertex -0.0415945337 0.0163425411 0.195
      vertex -0.0465462639 0.0185509926 0.22
      vertex -0.047 4.64787796e-10 0.22
    endloop
  endfacet
  facet normal 0.980290609 -0.0243214811 0.196058122
    outer loop
      vertex -0.0415945337 0.0163425411 0.195
      vertex -0.047 4.64787796e-10 0.22
      vertex -0.042 4.09455916e-10 0.195
    endloop
  endfacet
  facet normal 0.980298769 0.0239769873 0.196059754
    outer loop
      vertex -0.042 4.09455916e-10 0.195
      vertex -0.047 4.64787796e-10 0.22
      vertex -0.0465462639 -0.0185509926 0.22
    endloop
  endfacet
  facet normal 0.980241422 0.0243202595 0.196304047
    outer loop
      vertex -0.042 4.09455916e-10 0.195
      vertex -0.0465462639 -0.0185509926 0.22
      vertex -0.0415945337 -0.0163425411 0.195
    endloop
  endfacet
  facet normal 0.962265089 0.177475055 0.206272886
    outer loop
      vertex -0.0415945337 -0.0163425411 0.195
      vertex -0.0465462639 -0.0185509926 0.22
      vertex -0.0451757666 -0.0259817931 0.22
    endloop
  endfacet
  facet normal 0.961631134 0.179907846 0.207120084
    outer loop
      vertex -0.0415945337 -0.0163425411 0.195
      vertex -0.0451757666 -0.0259817931 0.22
      vertex -0.040369834 -0.0228887225 0.195
    endloop
  endfacet
  facet normal 0.894316853 0.389545854 0.220116775
    outer loop
      vertex -0.040369834 -0.0228887225 0.195
      vertex -0.0451757666 -0.0259817931 0.22
      vertex -0.0428569291 -0.0313053652 0.22
    endloop
  endfacet
  facet normal 0.891988259 0.394117127 0.221424108
    outer loop
      vertex -0.040369834 -0.0228887225 0.195
      vertex -0.0428569291 -0.0313053652 0.22
      vertex -0.0382976813 -0.027578536 0.195
    endloop
  endfacet
  facet normal 0.748563499 0.622166232 0.22926375
    outer loop
      vertex -0.0382976813 -0.027578536 0.195
      vertex -0.0428569291 -0.0313053652 0.22
      vertex -0.0395221315 -0.0353176494 0.22
    endloop
  endfacet
  facet normal 0.74393318 0.627206741 0.230597329
    outer loop
      vertex -0.0382976813 -0.027578536 0.195
      vertex -0.0395221315 -0.0353176494 0.22
      vertex -0.0353176494 -0.0311131674 0.195
    endloop
  endfacet
  facet normal 0.538554509 0.811426172 0.227038783
    outer loop
      vertex -0.0353176494 -0.0311131674 0.195
      vertex -0.0395221315 -0.0353176494 0.22
      vertex -0.0350321944 -0.0382976813 0.22
    endloop
  endfacet
  facet normal 0.533091574 0.814742108 0.228054096
    outer loop
      vertex -0.0353176494 -0.0311131674 0.195
      vertex -0.0350321944 -0.0382976813 0.22
      vertex -0.0313053652 -0.0337384336 0.195
    endloop
  endfacet
  facet normal 0.320770584 0.922198685 0.215999579
    outer loop
      vertex -0.0313053652 -0.0337384336 0.195
      vertex -0.0350321944 -0.0382976813 0.22
      vertex -0.0290748638 -0.040369834 0.22
    endloop
  endfacet
  facet normal 0.316655531 0.923455643 0.21670014
    outer loop
      vertex -0.0313053652 -0.0337384336 0.195
      vertex -0.0290748638 -0.040369834 0.22
      vertex -0.0259817931 -0.0355639014 0.195
    endloop
  endfacet
  facet normal 0.142649408 0.968555519 0.20384149
    outer loop
      vertex -0.0259817931 -0.0355639014 0.195
      vertex -0.0290748638 -0.040369834 0.22
      vertex -0.0207594441 -0.0415945337 0.22
    endloop
  endfacet
  facet normal 0.140655891 0.968749455 0.204304706
    outer loop
      vertex -0.0259817931 -0.0355639014 0.195
      vertex -0.0207594441 -0.0415945337 0.22
      vertex -0.0185509926 -0.0366428035 0.195
    endloop
  endfacet
  facet normal 0.0191496075 0.980439575 0.195886529
    outer loop
      vertex -0.0185509926 -0.0366428035 0.195
      vertex -0.0207594441 -0.0415945337 0.22
      vertex -6.37013906e-10 -0.042 0.22
    endloop
  endfacet
  facet normal 0.0188775652 0.980405939 0.196081188
    outer loop
      vertex -0.0185509926 -0.0366428035 0.195
      vertex -6.37013906e-10 -0.042 0.22
      vertex -5.6924647e-10 -0.037 0.195
    endloop
  endfacet
  facet normal -0.0191488506 0.98040088 0.196080176
    outer loop
      vertex -5.6924647e-10 -0.037 0.195
      vertex -6.37013906e-10 -0.042 0.22
      vertex 0.0207594441 -0.0415945337 0.22
    endloop
  endfacet
  facet normal -0.0188783978 0.980449239 0.195864485
    outer loop
      vertex -5.6924647e-10 -0.037 0.195
      vertex 0.0207594441 -0.0415945337 0.22
      vertex 0.0185509926 -0.0366428035 0.195
    endloop
  endfacet
  facet normal -0.142631913 0.968436728 0.204417322
    outer loop
      vertex 0.0185509926 -0.0366428035 0.195
      vertex 0.0207594441 -0.0415945337 0.22
      vertex 0.0290748638 -0.040369834 0.22
    endloop
  endfacet
  facet normal -0.140675191 0.96888238 0.203660069
    outer loop
      vertex 0.0185509926 -0.0366428035 0.195
      vertex 0.0290748638 -0.040369834 0.22
      vertex 0.0259817931 -0.0355639014 0.195
    endloop
  endfacet
  facet normal -0.320703382 0.922005482 0.216922177
    outer loop
      vertex 0.0259817931 -0.0355639014 0.195
      vertex 0.0290748638 -0.040369834 0.22
      vertex 0.0350321944 -0.0382976813 0.22
    endloop
  endfacet
  facet normal -0.316729807 0.923672253 0.215665942
    outer loop
      vertex 0.0259817931 -0.0355639014 0.195
      vertex 0.0350321944 -0.0382976813 0.22
      vertex 0.0313053652 -0.0337384336 0.195
    endloop
  endfacet
  facet normal -0.538404388 0.811199989 0.228200117
    outer loop
      vertex 0.0313053652 -0.0337384336 0.195
      vertex 0.0350321944 -0.0382976813 0.22
      vertex 0.0395221315 -0.0353176494 0.22
    endloop
  endfacet
  facet normal -0.533258481 0.814997197 0.226748673
    outer loop
      vertex 0.0313053652 -0.0337384336 0.195
      vertex 0.0395221315 -0.0353176494 0.22
      vertex 0.0353176494 -0.0311131674 0.195
    endloop
  endfacet
  facet normal -0.748345968 0.621985432 0.230461352
    outer loop
      vertex 0.0353176494 -0.0311131674 0.195
      vertex 0.0395221315 -0.0353176494 0.22
      vertex 0.0428569291 -0.0313053652 0.22
    endloop
  endfacet
  facet normal -0.744177275 0.627412537 0.229245918
    outer loop
      vertex 0.0353176494 -0.0311131674 0.195
      vertex 0.0428569291 -0.0313053652 0.22
      vertex 0.0382976813 -0.027578536 0.195
    endloop
  endfacet
  facet normal -0.894109627 0.389455591 0.221116072
    outer loop
      vertex 0.0382976813 -0.027578536 0.195
      vertex 0.0428569291 -0.0313053652 0.22
      vertex 0.0451757666 -0.0259817931 0.22
    endloop
  endfacet
  facet normal -0.892222637 0.394220685 0.220292572
    outer loop
      vertex 0.0382976813 -0.027578536 0.195
      vertex 0.0451757666 -0.0259817931 0.22
      vertex 0.040369834 -0.0228887225 0.195
    endloop
  endfacet
  facet normal -0.962132296 0.177450563 0.206912404
    outer loop
      vertex 0.040369834 -0.0228887225 0.195
      vertex 0.0451757666 -0.0259817931 0.22
      vertex 0.0465462639 -0.0185509926 0.22
    endloop
  endfacet
  facet normal -0.961781838 0.179936041 0.206394568
    outer loop
      vertex 0.040369834 -0.0228887225 0.195
      vertex 0.0465462639 -0.0185509926 0.22
      vertex 0.0415945337 -0.0163425411 0.195
    endloop
  endfacet
  facet normal -0.98025544 0.0239759281 0.196276406
    outer loop
      vertex 0.0415945337 -0.0163425411 0.195
      vertex 0.0465462639 -0.0185509926 0.22
      vertex 0.047 0 0.22
    endloop
  endfacet
  facet normal -0.980290609 0.0243214805 0.196058122
    outer loop
      vertex 0.0415945337 -0.0163425411 0.195
      vertex 0.047 0 0.22
      vertex 0.042 0 0.195
    endloop
  endfacet
  facet normal 0 0 -1
    outer loop
      vertex 0 0 0
      vertex 0.048526956 0.0194343732 0
      vertex 0.049 0 0
    endloop
  endfacet
  facet normal 0 0 1
    outer loop
      vertex 0 0 0.22
      vertex 0.047 0 0.22
      vertex 0.0465462639 0.0185509926 0.22
    endloop
  endfacet
  facet normal 0 0 -1
    outer loop
      vertex 0 0 0
      vertex 0.0470981396 0.0272190214 0
      vertex 0.048526956 0.0194343732 0
    endloop
  endfacet
  facet normal 0 0 1
    outer loop
      vertex 0 0 0.22
      vertex 0.0465462639 0.0185509926 0.22
      vertex 0.0451757666 0.0259817931 0.22
    endloop
  endfacet
  facet normal 0 0 -1
    outer loop
      vertex 0 0 0
      vertex 0.0446806282 0.0327960969 0
      vertex 0.0470981396 0.0272190214 0
    endloop
  endfacet
  facet normal 0 0 1
    outer loop
      vertex 0 0 0.22
      vertex 0.0451757666 0.0259817931 0.22
      vertex 0.0428569291 0.0313053652 0.22
    endloop
  endfacet
  facet normal 0 0 -1
    outer loop
      vertex 0 0 0
      vertex 0.0412039243 0.0369994423 0
      vertex 0.0446806282 0.0327960969 0
    endloop
  endfacet
  facet normal 0 0 1
    outer loop
      vertex 0 0 0.22
      vertex 0.0428569291 0.0313053652 0.22
      vertex 0.0395221315 0.0353176494 0.22
    endloop
  endfacet
  facet normal 0 0 -1
    outer loop
      vertex 0 0 0
      vertex 0.0365229261 0.0401213805 0
      vertex 0.0412039243 0.0369994423 0
    endloop
  endfacet
  facet normal 0 0 1
    outer loop
      vertex 0 0 0.22
      vertex 0.0395221315 0.0353176494 0.22
      vertex 0.0350321944 0.0382976813 0.22
    endloop
  endfacet
  facet normal 0 0 -1
    outer loop
      vertex 0 0 0
      vertex 0.030312092 0.042292207 0
      vertex 0.0365229261 0.0401213805 0
    endloop
  endfacet
  facet normal 0 0 1
    outer loop
      vertex 0 0 0.22
      vertex 0.0350321944 0.0382976813 0.22
      vertex 0.0290748638 0.040369834 0.22
    endloop
  endfacet
  facet normal 0 0 -1
    outer loop
      vertex 0 0 0
      vertex 0.0216428248 0.0435752258 0
      vertex 0.030312092 0.042292207 0
    endloop
  endfacet
  facet normal 0 0 1
    outer loop
      vertex 0 0 0.22
      vertex 0.0290748638 0.040369834 0.22
      vertex 0.0207594441 0.0415945337 0.22
    endloop
  endfacet
  facet normal 0 0 -1
    outer loop
      vertex 0 0 0
      vertex 3.83430369e-10 0.044 0
      vertex 0.0216428248 0.0435752258 0
    endloop
  endfacet
  facet normal 0 0 1
    outer loop
      vertex 0 0 0.22
      vertex 0.0207594441 0.0415945337 0.22
      vertex 3.6778015e-10 0.042 0.22
    endloop
  endfacet
  facet normal 0 0 -1
    outer loop
      vertex 0 0 0
      vertex -0.0216428248 0.0435752258 0
      vertex 3.83430369e-10 0.044 0
    endloop
  endfacet
  facet normal 0 -0 1
    outer loop
      vertex 0 0 0.22
      vertex 3.6778015e-10 0.042 0.22
      vertex -0.0207594441 0.0415945337 0.22
    endloop
  endfacet
  facet normal 0 0 -1
    outer loop
      vertex 0 0 0
      vertex -0.030312092 0.042292207 0
      vertex -0.0216428248 0.0435752258 0
    endloop
  endfacet
  facet normal 0 0 1
    outer loop
      vertex 0 0 0.22
      vertex -0.0207594441 0.0415945337 0.22
      vertex -0.0290748638 0.040369834 0.22
    endloop
  endfacet
  facet normal 0 0 -1
    outer loop
      vertex 0 0 0
      vertex -0.0365229261 0.0401213805 0
      vertex -0.030312092 0.042292207 0
    endloop
  endfacet
  facet normal 0 0 1
    outer loop
      vertex 0 0 0.22
      vertex -0.0290748638 0.040369834 0.22
      vertex -0.0350321944 0.0382976813 0.22
    endloop
  endfacet
  facet normal 0 0 -1
    outer loop
      vertex 0 0 0
      vertex -0.0412039243 0.0369994423 0
      vertex -0.0365229261 0.0401213805 0
    endloop
  endfacet
  facet normal 0 0 1
    outer loop
      vertex 0 0 0.22
      vertex -0.0350321944 0.0382976813 0.22
      vertex -0.0395221315 0.0353176494 0.22
    endloop
  endfacet
  facet normal 0 0 -1
    outer loop
      vertex 0 0 0
      vertex -0.0446806282 0.0327960969 0
      vertex -0.0412039243 0.0369994423 0
    endloop
  endfacet
  facet normal 0 0 1
    outer loop
      vertex 0 0 0.22
      vertex -0.0395221315 0.0353176494 0.22
      vertex -0.0428569291 0.0313053652 0.22
    endloop
  endfacet
  facet normal 0 0 -1
    outer loop
      vertex 0 0 0
      vertex -0.0470981396 0.0272190214 0
      vertex -0.0446806282 0.0327960969 0
    endloop
  endfacet
  facet normal 0 0 1
    outer loop
      vertex 0 0 0.22
      vertex -0.0428569291 0.0313053652 0.22
      vertex -0.0451757666 0.0259817931 0.22
    endloop
  endfacet
  facet normal 0 0 -1
    outer loop
      vertex 0 0 0
      vertex -0.048526956 0.0194343732 0
      vertex -0.0470981396 0.0272190214 0
    endloop
  endfacet
  facet normal 0 0 1
    outer loop
      vertex 0 0 0.22
      vertex -0.0451757666 0.0259817931 0.22
      vertex -0.0465462639 0.0185509926 0.22
    endloop
  endfacet
  facet normal 0 0 -1
    outer loop
      vertex 0 0 0
      vertex -0.049 4.86920548e-10 0
      vertex -0.048526956 0.0194343732 0
    endloop
  endfacet
  facet normal 0 0 1
    outer loop
      vertex 0 0 0.22
      vertex -0.0465462639 0.0185509926 0.22
      vertex -0.047 4.64787796e-10 0.22
    endloop
  endfacet
  facet normal -0 0 -1
    outer loop
      vertex 0 0 0
      vertex -0.048526956 -0.0194343732 0
      vertex -0.049 4.86920548e-10 0
    endloop
  endfacet
  facet normal 0 0 1
    outer loop
      vertex 0 0 0.22
      vertex -0.047 4.64787796e-10 0.22
      vertex -0.0465462639 -0.0185509926 0.22
    endloop
  endfacet
  facet normal 0 0 -1
    outer loop
      vertex 0 0 0
      vertex -0.0470981396 -0.0272190214 0
      vertex -0.048526956 -0.0194343732 0
    endloop
  endfacet
  facet normal 0 0 1
    outer loop
      vertex 0 0 0.22
      vertex -0.0465462639 -0.0185509926 0.22
      vertex -0.0451757666 -0.0259817931 0.22
    endloop
  endfacet
  facet normal 0 0 -1
    outer loop
      vertex 0 0 0
      vertex -0.0446806282 -0.0327960969 0
      vertex -0.0470981396 -0.0272190214 0
    endloop
  endfacet
  facet normal 0 0 1
    outer loop
      vertex 0 0 0.22
      vertex -0.0451757666 -0.0259817931 0.22
      vertex -0.0428569291 -0.0313053652 0.22
    endloop
  endfacet
  facet normal 0 0 -1
    outer loop
      vertex 0 0 0
      vertex -0.0412039243 -0.0369994423 0
      vertex -0.0446806282 -0.0327960969 0
    endloop
  endfacet
  facet normal 0 0 1
    outer loop
      vertex 0 0 0.22
      vertex -0.0428569291 -0.0313053652 0.22
      vertex -0.0395221315 -0.0353176494 0.22
    endloop
  endfacet
  facet normal 0 0 -1
    outer loop
      vertex 0 0 0
      vertex -0.0365229261 -0.0401213805 0
      vertex -0.0412039243 -0.0369994423 0
    endloop
  endfacet
  facet normal 0 0 1
    outer loop
      vertex 0 0 0.22
      vertex -0.0395221315 -0.0353176494 0.22
      vertex -0.0350321944 -0.0382976813 0.22
    endloop
  endfacet
  facet normal 0 0 -1
    outer loop
      vertex 0 0 0
      vertex -0.030312092 -0.042292207 0
      vertex -0.0365229261 -0.0401213805 0
    endloop
  endfacet
  facet normal 0 0 1
    outer loop
      vertex 0 0 0.22
      vertex -0.0350321944 -0.0382976813 0.22
      vertex -0.0290748638 -0.040369834 0.22
    endloop
  endfacet
  facet normal 0 0 -1
    outer loop
      vertex 0 0 0
      vertex -0.0216428248 -0.0435752258 0
      vertex -0.030312092 -0.042292207 0
    endloop
  endfacet
  facet normal 0 0 1
    outer loop
      vertex 0 0 0.22
      vertex -0.0290748638 -0.040369834 0.22
      vertex -0.0207594441 -0.0415945337 0.22
    endloop
  endfacet
  facet normal 0 0 -1
    outer loop
      vertex 0 0 0
      vertex -6.64120881e-10 -0.044 0
      vertex -0.0216428248 -0.0435752258 0
    endloop
  endfacet
  facet normal 0 0 1
    outer loop
      vertex 0 0 0.22
      vertex -0.0207594441 -0.0415945337 0.22
      vertex -6.37013906e-10 -0.042 0.22
    endloop
  endfacet
  facet normal 0 -0 -1
    outer loop
      vertex 0 0 0
      vertex 0.0216428248 -0.0435752258 0
      vertex -6.64120881e-10 -0.044 0
    endloop
  endfacet
  facet normal 0 0 1
    outer loop
      vertex 0 0 0.22
      vertex -6.37013906e-10 -0.042 0.22
      vertex 0.0207594441 -0.0415945337 0.22
    endloop
  endfacet
  facet normal 0 0 -1
    outer loop
      vertex 0 0 0
      vertex 0.030312092 -0.042292207 0
      vertex 0.0216428248 -0.0435752258 0
    endloop
  endfacet
  facet normal 0 0 1
    outer loop
      vertex 0 0 0.22
      vertex 0.0207594441 -0.0415945337 0.22
      vertex 0.0290748638 -0.040369834 0.22
    endloop
  endfacet
  facet normal 0 0 -1
    outer loop
      vertex 0 0 0
      vertex 0.0365229261 -0.0401213805 0
      vertex 0.030312092 -0.042292207 0
    endloop
  endfacet
  facet normal 0 0 1
    outer loop
      vertex 0 0 0.22
      vertex 0.0290748638 -0.040369834 0.22
      vertex 0.0350321944 -0.0382976813 0.22
    endloop
  endfacet
  facet normal 0 0 -1
    outer loop
      vertex 0 0 0
      vertex 0.0412039243 -0.0369994423 0
      vertex 0.0365229261 -0.0401213805 0
    endloop
  endfacet
  facet normal 0 0 1
    outer loop
      vertex 0 0 0.22
      vertex 0.0350321944 -0.0382976813 0.22
      vertex 0.0395221315 -0.0353176494 0.22
    endloop
  endfacet
  facet normal 0 0 -1
    outer loop
      vertex 0 0 0
      vertex 0.0446806282 -0.0327960969 0
      vertex 0.0412039243 -0.0369994423 0
    endloop
  endfacet
  facet normal 0 0 1
    outer loop
      vertex 0 0 0.22
      vertex 0.0395221315 -0.0353176494 0.22
      vertex 0.0428569291 -0.0313053652 0.22
    endloop
  endfacet
  facet normal 0 0 -1
    outer loop
      vertex 0 0 0
      vertex 0.0470981396 -0.0272190214 0
      vertex 0.0446806282 -0.0327960969 0
    endloop
  endfacet
  facet normal 0 0 1
    outer loop
      vertex 0 0 0.22
      vertex 0.0428569291 -0.0313053652 0.22
      vertex 0.0451757666 -0.0259817931 0.22
    endloop
  endfacet
  facet normal 0 0 -1
    outer loop
      vertex 0 0 0
      vertex 0.048526956 -0.0194343732 0
      vertex 0.0470981396 -0.0272190214 0
    endloop
  endfacet
  facet normal 0 0 1
    outer loop
      vertex 0 0 0.22
      vertex 0.0451757666 -0.0259817931 0.22
      vertex 0.0465462639 -0.0185509926 0.22
    endloop
  endfacet
  facet normal 0 0 -1
    outer loop
      vertex 0 0 0
      vertex 0.049 0 0
      vertex 0.048526956 -0.0194343732 0
    endloop
  endfacet
  facet normal -0 0 1
    outer loop
      vertex 0 0 0.22
      vertex 0.0465462639 -0.0185509926 0.22
      vertex 0.047 0 0.22
    endloop
  endfacet
endsolid wrist_column_shell
